<svg xmlns="http://www.w3.org/2000/svg" width="72" height="73" fill="none"><g clip-path="url(#a)"><circle cx="47.281" cy="47.026" r="18.095" fill="#146EF6" style="mix-blend-mode:multiply" transform="rotate(-60 47.28 47.026)"/><circle cx="36.753" cy="26.204" r="18.095" fill="#0B2F73" style="mix-blend-mode:multiply" transform="rotate(-60 36.753 26.204)"/><circle cx="24.718" cy="47.026" r="18.095" fill="#4089F8" opacity=".8" style="mix-blend-mode:multiply" transform="rotate(-60 24.718 47.026)"/><path fill="#fff" d="M47.282 46.358h-6.04a1.333 1.333 0 1 0 0 2.666h3.2a10.666 10.666 0 0 1-18.373-7.346 1.333 1.333 0 1 0-2.667 0 13.334 13.334 0 0 0 22.507 9.64v2.36a1.334 1.334 0 0 0 2.667 0v-6a1.333 1.333 0 0 0-1.294-1.32ZM36.736 28.344a13.334 13.334 0 0 0-9.174 3.694v-2.36a1.333 1.333 0 1 0-2.666 0v6a1.334 1.334 0 0 0 1.333 1.333h6a1.333 1.333 0 0 0 0-2.667h-3.2a10.668 10.668 0 0 1 18.373 7.334 1.333 1.333 0 0 0 2.667 0 13.335 13.335 0 0 0-13.333-13.334Z"/></g><defs><clipPath id="a"><path fill="#fff" d="M0 .333h72v72H0z"/></clipPath></defs></svg>