<svg xmlns="http://www.w3.org/2000/svg" width="52" height="61" fill="none"><path fill="#220B73" d="M3.84 12.251a2.489 2.489 0 0 1 3.52 0l2.346 2.347a2.489 2.489 0 0 1-3.52 3.52L3.84 15.77a2.489 2.489 0 0 1 0-3.52ZM48.145 12.251a2.489 2.489 0 0 0-3.52 0l-2.347 2.347a2.489 2.489 0 0 0 3.52 3.52l2.347-2.347a2.489 2.489 0 0 0 0-3.52ZM20.055 5.514h12.167v4.977H20.055V5.514Z"/><path fill="#7E5FED" d="M51.856 34.412c0 14.28-11.576 25.856-25.856 25.856C11.72 60.268.145 48.69.145 34.412.145 20.132 11.72 8.556 26 8.556c14.28 0 25.856 11.576 25.856 25.856Z"/><path fill="#fff" d="M46.326 34.411c0 11.226-9.1 20.326-20.325 20.326S5.676 45.637 5.676 34.41c0-11.225 9.1-20.325 20.325-20.325s20.325 9.1 20.325 20.325Z"/><path fill="#fff" fill-rule="evenodd" d="M26.001 54.057c10.85 0 19.646-8.796 19.646-19.646 0-10.85-8.796-19.645-19.646-19.645-10.85 0-19.645 8.796-19.645 19.645 0 10.85 8.795 19.646 19.645 19.646Zm0 .68c11.225 0 20.325-9.1 20.325-20.326 0-11.225-9.1-20.325-20.325-20.325s-20.325 9.1-20.325 20.325c0 11.226 9.1 20.326 20.325 20.326Z" clip-rule="evenodd"/><path fill="#7E5FED" d="M13.97 3.025A2.489 2.489 0 0 1 16.46.536h19.08a2.489 2.489 0 0 1 0 4.978H16.46a2.489 2.489 0 0 1-2.49-2.489Z"/><path fill="#220B73" fill-rule="evenodd" d="M25.298 22.29v-4.079h1.927v4.079h-1.927ZM25.298 52.881v-4.078h1.927v4.078h-1.927ZM44.33 34.527h-4.078V32.6h4.079v1.927ZM11.7 34.527H7.62V32.6H11.7v1.927Z" clip-rule="evenodd"/><path fill="#220B73" d="m28.153 36.256 7.74-9.489a1.013 1.013 0 0 0-1.413-1.433l-9.598 7.603a2.344 2.344 0 1 0 3.271 3.319Z"/></svg>