<svg xmlns="http://www.w3.org/2000/svg" width="134" height="134" fill="none"><path fill="#CC2979" d="M22.734 37.698c0-8.449 6.686-15.298 14.934-15.298H97.4c8.247 0 14.933 6.85 14.933 15.298v59.005c0 8.448-6.686 15.297-14.933 15.297H37.668c-8.248 0-14.934-6.849-14.934-15.297V37.698Z" style="mix-blend-mode:multiply"/><path fill="#fff" d="M75.828 75.824h11.337a2.503 2.503 0 0 1 1.702.75 2.351 2.351 0 0 1 .726 1.727V89.56a2.502 2.502 0 0 1-5.006 0V85.13a25.029 25.029 0 0 1-42.245-18.089 2.502 2.502 0 0 1 5.005 0 20.011 20.011 0 0 0 12.588 18.533 20.027 20.027 0 0 0 21.9-4.747h-6.007a2.504 2.504 0 0 1-2.312-3.46 2.504 2.504 0 0 1 2.312-1.544ZM50.15 48.953a25.03 25.03 0 0 1 17.219-6.93 25.28 25.28 0 0 1 9.585 1.9c6.13 2.54 11 7.409 13.54 13.536a25.261 25.261 0 0 1 1.902 9.583 2.501 2.501 0 0 1-4.273 1.77 2.501 2.501 0 0 1-.733-1.77 20.012 20.012 0 0 0-12.6-18.512 20.027 20.027 0 0 0-21.887 4.751h6.007a2.503 2.503 0 1 1 0 5.004H47.648a2.503 2.503 0 0 1-2.503-2.502V44.524a2.5 2.5 0 0 1 3.462-2.325 2.502 2.502 0 0 1 1.543 2.325v4.429Z"/><path fill="#fff" fill-rule="evenodd" d="M73 63.29a6.878 6.878 0 0 1 1.126 3.752 6.754 6.754 0 0 1-6.757 6.755 6.884 6.884 0 0 1-3.754-1.126 6.88 6.88 0 0 1-2.878-6.955 6.78 6.78 0 0 1 5.305-5.304A6.884 6.884 0 0 1 73 63.289Zm-7.507 2.495c-.25.371-.382.81-.377 1.257a2.226 2.226 0 0 0 2.253 2.252 2.202 2.202 0 0 0 2.077-1.401 2.1 2.1 0 0 0 .125-1.301 2.176 2.176 0 0 0-1.752-1.752 2.103 2.103 0 0 0-1.301.125 2.202 2.202 0 0 0-1.025.82Z" clip-rule="evenodd"/><path fill="#FECF40" d="M14.108 107.263c.294-.795 1.419-.795 1.713 0l2.55 6.89c.092.25.289.447.539.539l6.89 2.55c.794.294.794 1.418 0 1.712l-6.89 2.55a.911.911 0 0 0-.54.539l-2.55 6.89c-.293.795-1.418.795-1.712 0l-2.55-6.89a.91.91 0 0 0-.539-.539l-6.89-2.55c-.795-.294-.795-1.418 0-1.712l6.89-2.55a.91.91 0 0 0 .54-.539l2.549-6.89ZM119.799 4.808c.267-.722 1.288-.722 1.555 0l2.314 6.253a.829.829 0 0 0 .49.49l6.253 2.314c.722.267.722 1.287 0 1.554l-6.253 2.314a.83.83 0 0 0-.49.49l-2.314 6.254c-.267.721-1.288.721-1.555 0l-2.314-6.254a.825.825 0 0 0-.489-.49l-6.254-2.314c-.721-.267-.721-1.287 0-1.554l6.254-2.314a.825.825 0 0 0 .489-.49l2.314-6.253Z"/></svg>