<svg xmlns="http://www.w3.org/2000/svg" width="56" height="57" fill="none"><path fill="#4089F8" fill-rule="evenodd" d="M23.201 27.468a8.64 8.64 0 0 1-2.965 4.359c.976.385 1.903.873 2.765 1.452v3.703a11.623 11.623 0 0 0-8.11-3.293 11.623 11.623 0 0 0-7.721 2.932 11.502 11.502 0 0 0-3.792 7.304 1.447 1.447 0 0 1-.537.973 1.463 1.463 0 0 1-2.31-.726 1.442 1.442 0 0 1-.05-.563 14.36 14.36 0 0 1 2.866-7.13 14.474 14.474 0 0 1 6.143-4.652 8.64 8.64 0 0 1-2.965-4.359 8.597 8.597 0 0 1 .126-5.26 8.647 8.647 0 0 1 3.172-4.213 8.723 8.723 0 0 1 10.08 0 8.647 8.647 0 0 1 3.172 4.212 8.598 8.598 0 0 1 .126 5.261Zm-11.557 2.365a5.816 5.816 0 0 0 7.315-.716 5.74 5.74 0 0 0 .72-7.275 5.787 5.787 0 0 0-2.6-2.122 5.824 5.824 0 0 0-6.313 1.249 5.732 5.732 0 0 0-1.256 6.279 5.769 5.769 0 0 0 2.134 2.585Z" clip-rule="evenodd"/><path fill="#8BB7F9" fill-rule="evenodd" d="M46.178 31.826a8.64 8.64 0 0 0 2.965-4.358 8.597 8.597 0 0 0-.127-5.261 8.646 8.646 0 0 0-3.17-4.213 8.722 8.722 0 0 0-10.081 0 8.646 8.646 0 0 0-3.172 4.213 8.597 8.597 0 0 0-.126 5.26 8.64 8.64 0 0 0 2.965 4.36c-.56.222-1.103.479-1.627.767a5.794 5.794 0 0 1-.705 4.037l.012-.01a11.623 11.623 0 0 1 7.722-2.933c2.849 0 5.598 1.044 7.722 2.933a11.502 11.502 0 0 1 3.792 7.304c.04.354.21.68.477.918.267.236.613.366.971.364h.16a1.45 1.45 0 0 0 .965-.531c.239-.297.35-.676.309-1.053a14.36 14.36 0 0 0-2.88-7.147 14.475 14.475 0 0 0-6.172-4.65Zm-5.373-1.023a5.816 5.816 0 0 1-3.218-.97 5.769 5.769 0 0 1-2.134-2.586 5.732 5.732 0 0 1 1.256-6.279 5.822 5.822 0 0 1 6.313-1.249 5.786 5.786 0 0 1 2.6 2.122 5.739 5.739 0 0 1-.72 7.275 5.81 5.81 0 0 1-4.097 1.688Z" clip-rule="evenodd"/><path fill="#0B2F73" d="M33.496 40.474a8.64 8.64 0 0 0 2.965-4.359 8.597 8.597 0 0 0-.127-5.26 8.647 8.647 0 0 0-3.171-4.213 8.723 8.723 0 0 0-10.08 0 8.647 8.647 0 0 0-3.172 4.212 8.597 8.597 0 0 0-.127 5.261 8.64 8.64 0 0 0 2.966 4.359 14.474 14.474 0 0 0-6.143 4.652 14.359 14.359 0 0 0-2.866 7.13 1.441 1.441 0 0 0 .312 1.065 1.46 1.46 0 0 0 2.585-.748 11.502 11.502 0 0 1 3.792-7.305 11.623 11.623 0 0 1 7.722-2.932c2.849 0 5.598 1.044 7.722 2.932a11.502 11.502 0 0 1 3.792 7.304c.039.354.209.681.476.918.268.237.614.366.972.364h.16c.379-.043.726-.234.965-.53.238-.297.35-.676.309-1.054a14.36 14.36 0 0 0-2.881-7.147 14.475 14.475 0 0 0-6.171-4.65Zm-5.373-1.023a5.816 5.816 0 0 1-3.219-.971 5.769 5.769 0 0 1-2.134-2.586 5.732 5.732 0 0 1 1.256-6.278 5.824 5.824 0 0 1 6.313-1.249 5.786 5.786 0 0 1 2.6 2.122 5.738 5.738 0 0 1-.72 7.274 5.81 5.81 0 0 1-4.096 1.688Z"/><path fill="#146EF6" d="M26.854.878c.298-.804 1.436-.804 1.734 0l1.73 4.679a.924.924 0 0 0 .547.546l4.679 1.731c.804.298.804 1.436 0 1.733l-4.68 1.732a.924.924 0 0 0-.545.546l-1.731 4.678c-.298.805-1.436.805-1.734 0l-1.731-4.678a.924.924 0 0 0-.546-.546l-4.679-1.732c-.804-.297-.804-1.435 0-1.733l4.68-1.731a.924.924 0 0 0 .545-.546L26.854.878Z"/></svg>