<svg width="134" height="138" viewBox="0 0 134 138" fill="none" xmlns="http://www.w3.org/2000/svg">
<path d="M19.5352 40.9959C19.5352 31.5702 27.1762 23.9292 36.6018 23.9292H94.3834C103.809 23.9292 111.45 31.5702 111.45 40.9959V99.6419C111.45 109.068 103.809 116.709 94.3834 116.709H36.6018C27.1762 116.709 19.5352 109.068 19.5352 99.6419V40.9959Z" fill="#EB7A2F"/>
<path fill-rule="evenodd" clip-rule="evenodd" d="M49.7024 57.2968L64.3374 67.6027C62.1281 69.8938 60.7652 73.0153 60.7652 76.4578C60.7652 79.1776 61.6171 81.6962 63.0627 83.7619L58.9033 87.9547C58.5268 87.8467 58.1304 87.787 57.7197 87.787C56.5751 87.787 55.502 88.234 54.6966 89.0411C53.8904 89.8489 53.4454 90.9334 53.4454 92.0782C53.4454 93.2241 53.8913 94.2989 54.6966 95.1058C55.5067 95.9175 56.5914 96.341 57.7197 96.341C58.8558 96.341 59.9315 95.928 60.7522 95.1058C61.5579 94.2984 62.0034 93.2141 62.0034 92.0782C62.0034 91.7369 61.9658 91.4038 61.8844 91.0764L66.0938 86.842C68.1842 88.3434 70.7367 89.2237 73.5072 89.2237C80.5404 89.2237 86.221 83.5099 86.221 76.4672C86.221 70.2242 81.7645 65.0272 75.8527 63.9269V58.8363C77.5064 58.0075 78.5059 56.3647 78.5059 54.4836C78.5059 51.7695 76.3362 49.4854 73.6013 49.4854C70.8624 49.4854 68.7248 51.7736 68.7248 54.4836C68.7248 56.3647 69.7243 58.0075 71.378 58.8363V63.8833C70.1508 64.0932 68.9793 64.4729 67.8928 65.0116C66.7816 64.1751 64.871 62.7737 62.6784 61.1655L61.0231 59.951C58.0834 57.7931 54.8864 55.438 52.4966 53.622C52.5738 53.2706 52.623 52.9004 52.623 52.5134C52.623 49.531 50.195 47.1099 47.2103 47.1099C44.2332 47.1099 41.8164 49.5328 41.8164 52.5134C41.8164 55.5028 44.2326 57.9263 47.2103 57.9263C48.1157 57.9263 48.9589 57.6876 49.7024 57.2968ZM73.5072 82.4797C70.19 82.4797 67.498 79.7838 67.498 76.4578C67.498 73.1318 70.19 70.4358 73.5072 70.4358C76.8244 70.4358 79.5164 73.1318 79.5164 76.4578C79.5164 79.7838 76.8244 82.4797 73.5072 82.4797Z" fill="white"/>
<rect x="88.6191" y="0.0668945" width="45.0481" height="45.0481" rx="22.524" fill="white"/>
<path fill-rule="evenodd" clip-rule="evenodd" d="M111.143 3.8208C107.431 3.8208 103.802 4.92164 100.715 6.98412C97.6283 9.0466 95.2225 11.9781 93.8018 15.4079C92.3812 18.8376 92.0095 22.6117 92.7337 26.2527C93.458 29.8937 95.2456 33.2382 97.8707 35.8633C100.496 38.4883 103.84 40.276 107.481 41.0002C111.122 41.7245 114.896 41.3528 118.326 39.9321C121.756 38.5114 124.687 36.1056 126.75 33.0189C128.812 29.9322 129.913 26.3032 129.913 22.5908C129.913 20.1259 129.428 17.6851 128.484 15.4079C127.541 13.1306 126.158 11.0614 124.416 9.31842C122.673 7.57546 120.603 6.19287 118.326 5.24959C116.049 4.3063 113.608 3.8208 111.143 3.8208ZM108.196 24.6368L116.249 16.5657C116.6 16.2161 117.076 16.0198 117.572 16.0198C118.068 16.0198 118.544 16.2161 118.895 16.5657C119.071 16.7402 119.211 16.9477 119.306 17.1765C119.401 17.4052 119.45 17.6505 119.45 17.8983C119.45 18.1461 119.401 18.3915 119.306 18.6202C119.211 18.8489 119.071 19.0565 118.895 19.231L109.51 28.616C109.161 28.9628 108.689 29.1583 108.196 29.1604C107.949 29.1618 107.704 29.1144 107.476 29.021C107.247 28.9276 107.039 28.79 106.864 28.616L102.453 24.1863C102.256 24.018 102.097 23.811 101.984 23.5781C101.871 23.3452 101.808 23.0916 101.798 22.8331C101.788 22.5746 101.832 22.3168 101.926 22.0759C102.02 21.8351 102.163 21.6163 102.346 21.4334C102.529 21.2505 102.748 21.1073 102.989 21.013C103.23 20.9186 103.487 20.875 103.746 20.885C104.004 20.895 104.258 20.9583 104.491 21.071C104.724 21.1836 104.931 21.3432 105.099 21.5397L108.196 24.6368Z" fill="#1DB268"/>
<path d="M15.4351 11.4935C15.8102 10.48 17.2436 10.48 17.6187 11.4935L19.1709 15.6883C19.2888 16.007 19.54 16.2582 19.8586 16.3761L24.0534 17.9283C25.0669 18.3033 25.0669 19.7368 24.0534 20.1118L19.8586 21.664C19.54 21.782 19.2888 22.0332 19.1709 22.3518L17.6187 26.5466C17.2436 27.5601 15.8102 27.5601 15.4351 26.5466L13.8829 22.3518C13.765 22.0332 13.5138 21.782 13.1951 21.664L9.00036 20.1118C7.98686 19.7368 7.98686 18.3033 9.00036 17.9283L13.1951 16.3761C13.5138 16.2582 13.765 16.007 13.8829 15.6883L15.4351 11.4935Z" fill="#FFBC05"/>
<path d="M117.888 110.933C118.263 109.92 119.697 109.92 120.072 110.933L121.624 115.128C121.742 115.447 121.993 115.698 122.312 115.816L126.507 117.368C127.52 117.743 127.52 119.177 126.507 119.552L122.312 121.104C121.993 121.222 121.742 121.473 121.624 121.792L120.072 125.987C119.697 127 118.263 127 117.888 125.987L116.336 121.792C116.218 121.473 115.967 121.222 115.648 121.104L111.453 119.552C110.44 119.177 110.44 117.743 111.453 117.368L115.648 115.816C115.967 115.698 116.218 115.447 116.336 115.128L117.888 110.933Z" fill="#FFBC05"/>
</svg>
