<svg width="142" height="137" viewBox="0 0 142 137" fill="none" xmlns="http://www.w3.org/2000/svg">
<path d="M20.2266 37.0667C20.2266 27.641 27.8676 20 37.2932 20H98.3773C107.803 20 115.444 27.641 115.444 37.0667V99.0463C115.444 108.472 107.803 116.113 98.3773 116.113H37.2932C27.8676 116.113 20.2266 108.472 20.2266 99.0463V37.0667Z" fill="#146EF6"/>
<path fill-rule="evenodd" clip-rule="evenodd" d="M62.5236 52.0444C64.5662 50.044 67.4098 48.8033 70.5548 48.8033C74.7355 48.8033 78.383 50.9945 80.3255 54.2474C82.0136 53.5385 83.882 53.1442 85.8478 53.1442C93.388 53.1442 99.5013 58.9402 99.5013 66.0895C99.5013 73.2398 93.388 79.0358 85.8478 79.0358C84.9447 79.0363 84.0436 78.9519 83.1582 78.7839C81.4479 81.6517 78.1882 83.5894 74.4468 83.5894C72.8805 83.5894 71.3991 83.2494 70.0803 82.6448C68.3461 86.4786 64.3061 89.1667 59.5976 89.1667C54.6943 89.1667 50.5154 86.2505 48.9113 82.1607C48.2104 82.3004 47.4841 82.3735 46.7389 82.3735C40.9009 82.3735 36.168 77.8791 36.168 72.3341C36.168 68.6183 38.2944 65.3738 41.4539 63.638C40.8034 62.2313 40.4416 60.6786 40.4416 59.0461C40.4416 52.6693 45.9495 47.5 52.7429 47.5C56.7315 47.5 60.2761 49.2825 62.5236 52.0444Z" fill="white"/>
<rect x="95.334" width="46.6667" height="46.6667" rx="23.3333" fill="white"/>
<path fill-rule="evenodd" clip-rule="evenodd" d="M118.667 3.88867C114.821 3.88867 111.062 5.02907 107.864 7.16565C104.667 9.30224 102.174 12.339 100.703 15.8921C99.2311 19.4451 98.846 23.3547 99.5963 27.1265C100.347 30.8984 102.198 34.3631 104.918 37.0824C107.637 39.8018 111.102 41.6537 114.874 42.404C118.646 43.1542 122.555 42.7692 126.108 41.2975C129.661 39.8258 132.698 37.3335 134.835 34.1359C136.971 30.9383 138.112 27.1789 138.112 23.3331C138.112 20.7796 137.609 18.2512 136.631 15.8921C135.654 13.5329 134.222 11.3894 132.416 9.58382C130.611 7.77824 128.467 6.34597 126.108 5.36879C123.749 4.39162 121.221 3.88867 118.667 3.88867ZM115.614 25.4526L123.956 17.0915C124.32 16.7293 124.813 16.526 125.327 16.526C125.841 16.526 126.333 16.7293 126.698 17.0915C126.88 17.2722 127.025 17.4873 127.123 17.7242C127.222 17.9612 127.273 18.2153 127.273 18.472C127.273 18.7287 127.222 18.9829 127.123 19.2198C127.025 19.4567 126.88 19.6718 126.698 19.8526L116.976 29.5748C116.613 29.934 116.125 30.1365 115.614 30.1387C115.359 30.1402 115.105 30.0911 114.868 29.9943C114.631 29.8976 114.416 29.755 114.234 29.5748L109.664 24.9859C109.461 24.8116 109.296 24.5971 109.179 24.3558C109.062 24.1146 108.997 23.8518 108.986 23.5841C108.976 23.3163 109.021 23.0492 109.119 22.7997C109.216 22.5502 109.365 22.3236 109.554 22.1341C109.744 21.9446 109.97 21.7963 110.22 21.6986C110.469 21.6008 110.736 21.5557 111.004 21.566C111.272 21.5764 111.535 21.6419 111.776 21.7587C112.017 21.8754 112.232 22.0407 112.406 22.2442L115.614 25.4526Z" fill="#1DB268"/>
<path d="M9.95896 4.17434C10.3738 3.05322 11.9595 3.05322 12.3744 4.17434L14.0914 8.8146C14.2218 9.16708 14.4998 9.44498 14.8522 9.57541L19.4925 11.2925C20.6136 11.7073 20.6136 13.293 19.4925 13.7079L14.8522 15.4249C14.4998 15.5553 14.2218 15.8333 14.0914 16.1857L12.3744 20.826C11.9595 21.9471 10.3738 21.9471 9.95896 20.826L8.24191 16.1857C8.11148 15.8333 7.83358 15.5553 7.4811 15.4249L2.84084 13.7079C1.71972 13.293 1.71972 11.7073 2.84084 11.2925L7.4811 9.57541C7.83358 9.44498 8.11148 9.16708 8.24191 8.8146L9.95896 4.17434Z" fill="#FFBC05"/>
<path d="M123.293 114.174C123.708 113.053 125.293 113.053 125.708 114.174L127.425 118.815C127.556 119.167 127.834 119.445 128.186 119.575L132.826 121.292C133.948 121.707 133.948 123.293 132.826 123.708L128.186 125.425C127.834 125.555 127.556 125.833 127.425 126.186L125.708 130.826C125.293 131.947 123.708 131.947 123.293 130.826L121.576 126.186C121.445 125.833 121.168 125.555 120.815 125.425L116.175 123.708C115.054 123.293 115.054 121.707 116.175 121.292L120.815 119.575C121.168 119.445 121.445 119.167 121.576 118.815L123.293 114.174Z" fill="#FFBC05"/>
</svg>
