<svg width="52" height="53" viewBox="0 0 52 53" fill="none" xmlns="http://www.w3.org/2000/svg">
  <path fill-rule="evenodd" clip-rule="evenodd"
    d="M23.2 28.8672L23.2 37.0411C23.2 39.0931 21.5366 40.7565 19.4846 40.7565C17.4327 40.7565 15.7692 39.0931 15.7692 37.0411L15.7692 28.8672L23.2 28.8672Z"
    fill="#A4D446" />
  <path fill-rule="evenodd" clip-rule="evenodd"
    d="M42.52 28.8672L42.52 37.0411C42.52 39.0931 40.8566 40.7565 38.8046 40.7565C36.7526 40.7565 35.0892 39.0931 35.0892 37.0411L35.0892 28.8672L42.52 28.8672Z"
    fill="#A4D446" />
  <path fill-rule="evenodd" clip-rule="evenodd"
    d="M25.4293 48.7446L25.4293 28.8672L32.8601 28.8672L32.8601 48.7446C32.8601 50.7965 31.1966 52.46 29.1447 52.46C27.0927 52.46 25.4293 50.7966 25.4293 48.7446Z"
    fill="#A4D446" />
  <path
    d="M13.6289 14.0723C22.6099 6.26317 35.9989 6.27857 44.9933 14.0723V32.8791C44.9933 33.4991 44.4907 34.0017 43.8706 34.0017H14.7515C14.1315 34.0017 13.6289 33.4991 13.6289 32.8791V14.0723Z"
    fill="#4877EB" />
  <path d="M29.2839 2.64185L42.6366 14.2057L29.2839 26.7877L15.9311 14.2057L29.2839 2.64185Z" fill="#0D3877" />
  <path
    d="M17.9384 0.605469H40.6296V11.6602V16.0966L36.7023 19.8058L33.6477 22.7149H29.284H24.9203L21.2839 19.3694L17.9384 16.1012V11.6602V0.605469Z"
    fill="#A3BBF5" />
  <mask id="mask0_701_1892" style="mask-type:alpha" maskUnits="userSpaceOnUse" x="13" y="8" width="32" height="27">
    <path
      d="M13.6289 14.0723C22.6099 6.26317 35.9989 6.27857 44.9933 14.0723V32.8791C44.9933 33.4991 44.4907 34.0017 43.8706 34.0017H14.7515C14.1315 34.0017 13.6289 33.4991 13.6289 32.8791V14.0723Z"
      fill="#A48CFA" />
  </mask>
  <g mask="url(#mask0_701_1892)">
    <path d="M27.3978 20.6925C28.3954 19.7312 29.9746 19.7312 30.9722 20.6925L45.8342 35.0151H12.5358L27.3978 20.6925Z"
      fill="#4877EB" />
    <path fill-rule="evenodd" clip-rule="evenodd"
      d="M27.171 20.4572C28.2951 19.3739 30.0747 19.3739 31.1988 20.4572L46.6439 35.3418H11.7258L27.171 20.4572ZM30.7453 20.9277C29.8743 20.0883 28.4954 20.0883 27.6244 20.9277L13.3455 34.6883H45.0242L30.7453 20.9277Z"
      fill="#0D3877" />
  </g>
  <path
    d="M31.3544 10.892C31.9038 10.4622 32.3048 9.87272 32.5016 9.20569C32.6984 8.53866 32.6813 7.8272 32.4526 7.1703C32.2239 6.5134 31.795 5.94373 31.2256 5.54053C30.6562 5.13733 29.9746 4.92065 29.2756 4.92065C28.5766 4.92065 27.895 5.13733 27.3256 5.54053C26.7562 5.94373 26.3273 6.5134 26.0986 7.1703C25.8699 7.8272 25.8528 8.53866 26.0496 9.20569C26.2464 9.87272 26.6474 10.4622 27.1967 10.892C26.2554 11.2671 25.4341 11.8891 24.8203 12.6919C24.2065 13.4947 23.8233 14.4481 23.7114 15.4504C23.7034 15.5236 23.7098 15.5976 23.7305 15.6683C23.7512 15.739 23.7857 15.805 23.832 15.8624C23.9255 15.9784 24.0615 16.0527 24.2101 16.069C24.3588 16.0852 24.5078 16.0421 24.6244 15.9491C24.7411 15.8561 24.8158 15.7208 24.8321 15.573C24.9552 14.4837 25.4775 13.4776 26.2992 12.747C27.121 12.0164 28.1846 11.6126 29.2868 11.6126C30.389 11.6126 31.4526 12.0164 32.2744 12.747C33.0962 13.4776 33.6184 14.4837 33.7415 15.573C33.7567 15.7099 33.8224 15.8364 33.9259 15.928C34.0294 16.0196 34.1633 16.0698 34.3018 16.069H34.3635C34.5103 16.0522 34.6446 15.9783 34.737 15.8635C34.8293 15.7487 34.8723 15.6022 34.8566 15.456C34.7442 14.4508 34.3589 13.495 33.742 12.691C33.125 11.8869 32.2997 11.2651 31.3544 10.892ZM29.2756 10.4963C28.8323 10.4963 28.399 10.3656 28.0304 10.1207C27.6618 9.87575 27.3745 9.52762 27.2049 9.12031C27.0352 8.71301 26.9908 8.26482 27.0773 7.83243C27.1638 7.40003 27.3773 7.00285 27.6907 6.69112C28.0042 6.37938 28.4036 6.16708 28.8383 6.08107C29.2731 5.99506 29.7238 6.03921 30.1333 6.20792C30.5429 6.37663 30.8929 6.66233 31.1392 7.0289C31.3855 7.39546 31.5169 7.82643 31.5169 8.26729C31.5169 8.85847 31.2808 9.42544 30.8605 9.84347C30.4401 10.2615 29.87 10.4963 29.2756 10.4963Z"
    fill="#0B2F73" />
  <path
    d="M47.172 3.81852C47.3219 3.41328 47.8951 3.41328 48.045 3.81852L48.7914 5.83552C48.8385 5.96293 48.939 6.06338 49.0664 6.11052L51.0834 6.85688C51.4887 7.00684 51.4886 7.58 51.0834 7.72995L49.0664 8.47631C48.939 8.52345 48.8385 8.62391 48.7914 8.75131L48.045 10.7683C47.8951 11.1736 47.3219 11.1736 47.172 10.7683L46.4256 8.75131C46.3785 8.62391 46.278 8.52345 46.1506 8.47631L44.1336 7.72995C43.7284 7.58 43.7284 7.00683 44.1336 6.85688L46.1506 6.11052C46.278 6.06338 46.3785 5.96293 46.4256 5.83552L47.172 3.81852Z"
    fill="white" />
  <path
    d="M9.24337 40.16C9.38212 39.785 9.91248 39.785 10.0512 40.16L10.8582 42.3408C10.9018 42.4586 10.9948 42.5516 11.1127 42.5952L13.2934 43.4022C13.6684 43.5409 13.6684 44.0713 13.2934 44.21L11.1127 45.017C10.9948 45.0606 10.9018 45.1536 10.8582 45.2714L10.0512 47.4522C9.91248 47.8272 9.38212 47.8272 9.24337 47.4522L8.43642 45.2714C8.39279 45.1536 8.29984 45.0606 8.18195 45.017L6.0012 44.21C5.62623 44.0713 5.62623 43.5409 6.0012 43.4022L8.18195 42.5952C8.29984 42.5516 8.39279 42.4586 8.43642 42.3408L9.24337 40.16Z"
    fill="white" />
</svg>