<svg width="440" height="279" viewBox="0 0 440 279" fill="none" xmlns="http://www.w3.org/2000/svg">
  <g filter="url(#filter0_d_52_4262)">
    <rect x="46" y="50" width="297" height="198" rx="8" fill="white"/>
    <path d="M79.4041 90V78.7266H81.4197V88.3047H86.5838V90H79.4041ZM91.5372 90.1719C90.6882 90.1719 89.9565 89.9948 89.3419 89.6406C88.7273 89.2812 88.2533 88.7708 87.92 88.1094C87.5919 87.4479 87.4278 86.6562 87.4278 85.7344V85.7188C87.4278 84.8073 87.5945 84.0208 87.9278 83.3594C88.2611 82.6927 88.7325 82.1823 89.3419 81.8281C89.9565 81.474 90.6882 81.2969 91.5372 81.2969C92.3861 81.2969 93.1153 81.474 93.7247 81.8281C94.3393 82.1823 94.8132 82.6901 95.1466 83.3516C95.4799 84.013 95.6466 84.8021 95.6466 85.7188V85.7344C95.6466 86.6562 95.4799 87.4479 95.1466 88.1094C94.8184 88.7708 94.3471 89.2812 93.7325 89.6406C93.1231 89.9948 92.3914 90.1719 91.5372 90.1719ZM91.5372 88.5938C91.9851 88.5938 92.3653 88.4818 92.6778 88.2578C92.9955 88.0286 93.2377 87.7031 93.4044 87.2812C93.571 86.8542 93.6544 86.3411 93.6544 85.7422V85.7266C93.6544 85.1224 93.571 84.6094 93.4044 84.1875C93.2377 83.7604 92.9955 83.4349 92.6778 83.2109C92.3653 82.9818 91.9851 82.8672 91.5372 82.8672C91.0893 82.8672 90.7065 82.9818 90.3888 83.2109C90.071 83.4349 89.8289 83.7604 89.6622 84.1875C89.4955 84.6094 89.4122 85.1224 89.4122 85.7266V85.7422C89.4122 86.3411 89.4955 86.8542 89.6622 87.2812C89.8289 87.7083 90.0684 88.0339 90.3809 88.2578C90.6986 88.4818 91.0841 88.5938 91.5372 88.5938ZM100.952 93C100.202 93 99.5531 92.901 99.0063 92.7031C98.4646 92.5052 98.0375 92.224 97.725 91.8594C97.4125 91.5 97.2224 91.0807 97.1547 90.6016L97.1625 90.5781H99.1L99.1156 90.6016C99.1781 90.8724 99.3682 91.0938 99.6859 91.2656C100.009 91.4427 100.441 91.5312 100.983 91.5312C101.649 91.5312 102.165 91.3828 102.53 91.0859C102.899 90.7891 103.084 90.3672 103.084 89.8203V88.1797H102.952C102.79 88.487 102.579 88.7474 102.319 88.9609C102.064 89.1745 101.769 89.3359 101.436 89.4453C101.108 89.5495 100.746 89.6016 100.35 89.6016C99.6313 89.6016 99.0089 89.4297 98.4828 89.0859C97.9568 88.737 97.5505 88.2552 97.2641 87.6406C96.9828 87.026 96.8422 86.3151 96.8422 85.5078V85.4922C96.8422 84.6693 96.9854 83.9453 97.2719 83.3203C97.5583 82.6953 97.9646 82.2057 98.4906 81.8516C99.0219 81.4974 99.6547 81.3203 100.389 81.3203C100.785 81.3203 101.147 81.3828 101.475 81.5078C101.808 81.6328 102.1 81.8099 102.35 82.0391C102.605 82.2682 102.814 82.5443 102.975 82.8672H103.077V81.4609H105.022V89.7891C105.022 90.4453 104.855 91.013 104.522 91.4922C104.194 91.9766 103.725 92.349 103.116 92.6094C102.506 92.8698 101.785 93 100.952 93ZM100.952 88.0547C101.399 88.0547 101.785 87.9479 102.108 87.7344C102.431 87.5156 102.678 87.2161 102.85 86.8359C103.027 86.4557 103.116 86.013 103.116 85.5078V85.4922C103.116 84.987 103.027 84.5443 102.85 84.1641C102.678 83.7786 102.431 83.4792 102.108 83.2656C101.785 83.0469 101.399 82.9375 100.952 82.9375C100.498 82.9375 100.113 83.0469 99.7953 83.2656C99.4828 83.4792 99.2432 83.7786 99.0766 84.1641C98.9151 84.5443 98.8344 84.987 98.8344 85.4922V85.5078C98.8344 86.0078 98.9151 86.4505 99.0766 86.8359C99.2432 87.2161 99.4828 87.5156 99.7953 87.7344C100.113 87.9479 100.498 88.0547 100.952 88.0547ZM107.108 90V81.4609H109.046V90H107.108ZM108.085 80.0312C107.767 80.0312 107.494 79.9193 107.264 79.6953C107.035 79.4714 106.921 79.2031 106.921 78.8906C106.921 78.5677 107.035 78.2969 107.264 78.0781C107.494 77.8542 107.767 77.7422 108.085 77.7422C108.402 77.7422 108.673 77.8542 108.897 78.0781C109.126 78.2969 109.241 78.5677 109.241 78.8906C109.241 79.2031 109.126 79.4714 108.897 79.6953C108.673 79.9193 108.402 80.0312 108.085 80.0312ZM111.124 90V81.4609H113.069V82.7734H113.202C113.405 82.3099 113.713 81.9479 114.124 81.6875C114.536 81.4271 115.049 81.2969 115.663 81.2969C116.616 81.2969 117.345 81.5729 117.851 82.125C118.356 82.6771 118.608 83.4609 118.608 84.4766V90H116.663V84.9297C116.663 84.263 116.523 83.763 116.241 83.4297C115.965 83.0964 115.533 82.9297 114.944 82.9297C114.559 82.9297 114.226 83.0156 113.944 83.1875C113.663 83.3594 113.447 83.6016 113.296 83.9141C113.145 84.2266 113.069 84.5964 113.069 85.0234V90H111.124ZM127.89 90.0391C126.911 90.0391 126.205 89.8594 125.773 89.5C125.341 89.1406 125.125 88.5521 125.125 87.7344V82.9688H123.797V81.4609H125.125V79.3672H127.101V81.4609H128.898V82.9688H127.101V87.2734C127.101 87.6953 127.19 88.0052 127.367 88.2031C127.549 88.3958 127.841 88.4922 128.242 88.4922C128.383 88.4922 128.497 88.4896 128.586 88.4844C128.679 88.474 128.784 88.4635 128.898 88.4531V89.9531C128.763 89.9792 128.606 90 128.429 90.0156C128.258 90.0312 128.078 90.0391 127.89 90.0391ZM134.133 90.1719C133.284 90.1719 132.552 89.9948 131.938 89.6406C131.323 89.2812 130.849 88.7708 130.516 88.1094C130.188 87.4479 130.023 86.6562 130.023 85.7344V85.7188C130.023 84.8073 130.19 84.0208 130.523 83.3594C130.857 82.6927 131.328 82.1823 131.938 81.8281C132.552 81.474 133.284 81.2969 134.133 81.2969C134.982 81.2969 135.711 81.474 136.32 81.8281C136.935 82.1823 137.409 82.6901 137.742 83.3516C138.076 84.013 138.242 84.8021 138.242 85.7188V85.7344C138.242 86.6562 138.076 87.4479 137.742 88.1094C137.414 88.7708 136.943 89.2812 136.328 89.6406C135.719 89.9948 134.987 90.1719 134.133 90.1719ZM134.133 88.5938C134.581 88.5938 134.961 88.4818 135.273 88.2578C135.591 88.0286 135.833 87.7031 136 87.2812C136.167 86.8542 136.25 86.3411 136.25 85.7422V85.7266C136.25 85.1224 136.167 84.6094 136 84.1875C135.833 83.7604 135.591 83.4349 135.273 83.2109C134.961 82.9818 134.581 82.8672 134.133 82.8672C133.685 82.8672 133.302 82.9818 132.984 83.2109C132.667 83.4349 132.424 83.7604 132.258 84.1875C132.091 84.6094 132.008 85.1224 132.008 85.7266V85.7422C132.008 86.3411 132.091 86.8542 132.258 87.2812C132.424 87.7083 132.664 88.0339 132.977 88.2578C133.294 88.4818 133.68 88.5938 134.133 88.5938ZM143.188 90L147.188 78.7266H148.86V80.8203H148.258L145.298 90H143.188ZM145.204 87.0859L145.727 85.5312H150.899L151.423 87.0859H145.204ZM151.352 90L148.391 80.8203V78.7266H149.454L153.462 90H151.352ZM154.876 92.8359V81.4609H156.821V82.7969H156.954C157.11 82.4896 157.313 82.2266 157.563 82.0078C157.819 81.7891 158.113 81.6198 158.446 81.5C158.78 81.3802 159.147 81.3203 159.548 81.3203C160.261 81.3203 160.879 81.5 161.399 81.8594C161.925 82.2188 162.332 82.7292 162.618 83.3906C162.91 84.0469 163.056 84.8255 163.056 85.7266V85.7422C163.056 86.6484 162.912 87.4297 162.626 88.0859C162.339 88.7422 161.933 89.25 161.407 89.6094C160.886 89.9635 160.267 90.1406 159.548 90.1406C159.157 90.1406 158.793 90.0807 158.454 89.9609C158.116 89.8359 157.819 89.6615 157.563 89.4375C157.308 89.2135 157.105 88.9479 156.954 88.6406H156.821V92.8359H154.876ZM158.938 88.5C159.381 88.5 159.761 88.3906 160.079 88.1719C160.397 87.9479 160.642 87.6302 160.813 87.2188C160.985 86.8021 161.071 86.3099 161.071 85.7422V85.7266C161.071 85.1484 160.985 84.6536 160.813 84.2422C160.642 83.8307 160.397 83.5156 160.079 83.2969C159.761 83.0729 159.381 82.9609 158.938 82.9609C158.496 82.9609 158.113 83.0729 157.79 83.2969C157.472 83.5156 157.225 83.8307 157.048 84.2422C156.876 84.6536 156.79 85.1458 156.79 85.7188V85.7344C156.79 86.3073 156.876 86.8021 157.048 87.2188C157.225 87.6302 157.475 87.9479 157.798 88.1719C158.121 88.3906 158.501 88.5 158.938 88.5ZM168.384 90.1719C167.535 90.1719 166.803 89.9948 166.189 89.6406C165.574 89.2812 165.1 88.7708 164.767 88.1094C164.439 87.4479 164.275 86.6562 164.275 85.7344V85.7188C164.275 84.8073 164.441 84.0208 164.775 83.3594C165.108 82.6927 165.579 82.1823 166.189 81.8281C166.803 81.474 167.535 81.2969 168.384 81.2969C169.233 81.2969 169.962 81.474 170.572 81.8281C171.186 82.1823 171.66 82.6901 171.993 83.3516C172.327 84.013 172.493 84.8021 172.493 85.7188V85.7344C172.493 86.6562 172.327 87.4479 171.993 88.1094C171.665 88.7708 171.194 89.2812 170.579 89.6406C169.97 89.9948 169.238 90.1719 168.384 90.1719ZM168.384 88.5938C168.832 88.5938 169.212 88.4818 169.525 88.2578C169.842 88.0286 170.085 87.7031 170.251 87.2812C170.418 86.8542 170.501 86.3411 170.501 85.7422V85.7266C170.501 85.1224 170.418 84.6094 170.251 84.1875C170.085 83.7604 169.842 83.4349 169.525 83.2109C169.212 82.9818 168.832 82.8672 168.384 82.8672C167.936 82.8672 167.553 82.9818 167.236 83.2109C166.918 83.4349 166.676 83.7604 166.509 84.1875C166.342 84.6094 166.259 85.1224 166.259 85.7266V85.7422C166.259 86.3411 166.342 86.8542 166.509 87.2812C166.676 87.7083 166.915 88.0339 167.228 88.2578C167.546 88.4818 167.931 88.5938 168.384 88.5938ZM174.205 90V78.1562H176.15V90H174.205ZM178.353 90V78.1562H180.299V90H178.353ZM186.112 90.1719C185.263 90.1719 184.531 89.9948 183.916 89.6406C183.302 89.2812 182.828 88.7708 182.494 88.1094C182.166 87.4479 182.002 86.6562 182.002 85.7344V85.7188C182.002 84.8073 182.169 84.0208 182.502 83.3594C182.836 82.6927 183.307 82.1823 183.916 81.8281C184.531 81.474 185.263 81.2969 186.112 81.2969C186.961 81.2969 187.69 81.474 188.299 81.8281C188.914 82.1823 189.388 82.6901 189.721 83.3516C190.054 84.013 190.221 84.8021 190.221 85.7188V85.7344C190.221 86.6562 190.054 87.4479 189.721 88.1094C189.393 88.7708 188.921 89.2812 188.307 89.6406C187.697 89.9948 186.966 90.1719 186.112 90.1719ZM186.112 88.5938C186.559 88.5938 186.94 88.4818 187.252 88.2578C187.57 88.0286 187.812 87.7031 187.979 87.2812C188.145 86.8542 188.229 86.3411 188.229 85.7422V85.7266C188.229 85.1224 188.145 84.6094 187.979 84.1875C187.812 83.7604 187.57 83.4349 187.252 83.2109C186.94 82.9818 186.559 82.8672 186.112 82.8672C185.664 82.8672 185.281 82.9818 184.963 83.2109C184.645 83.4349 184.403 83.7604 184.237 84.1875C184.07 84.6094 183.987 85.1224 183.987 85.7266V85.7422C183.987 86.3411 184.07 86.8542 184.237 87.2812C184.403 87.7083 184.643 88.0339 184.955 88.2578C185.273 88.4818 185.658 88.5938 186.112 88.5938Z" fill="#146EF6"/>
    <rect x="78.5" y="110.5" width="210" height="31" rx="7.5" fill="white"/>
    <rect x="90" y="122" width="162" height="8" rx="4" fill="#E3E3E6"/>
    <rect x="78.5" y="110.5" width="210" height="31" rx="7.5" stroke="#E3E3E6"/>
    <rect x="78.5" y="148.5" width="210" height="31" rx="7.5" fill="white"/>
    <path d="M97.9536 159.5H99.7126L99.52 164.006H98.1462L97.9536 159.5ZM97.9536 168.5L98.1462 164.006H99.52L99.7126 168.5H97.9536ZM94.5 162.427L95.373 161.066L99.1733 163.467L98.48 164.533L94.5 162.427ZM103.153 162.427L99.1733 164.533L98.48 163.467L102.28 161.066L103.153 162.427ZM103.153 165.573L102.28 166.934L98.48 164.533L99.1733 163.467L103.153 165.573ZM94.5 165.573L98.48 163.467L99.1733 164.533L95.373 166.934L94.5 165.573Z" fill="#CACACC"/>
    <path d="M115.954 159.5H117.713L117.52 164.006H116.146L115.954 159.5ZM115.954 168.5L116.146 164.006H117.52L117.713 168.5H115.954ZM112.5 162.427L113.373 161.066L117.173 163.467L116.48 164.533L112.5 162.427ZM121.153 162.427L117.173 164.533L116.48 163.467L120.28 161.066L121.153 162.427ZM121.153 165.573L120.28 166.934L116.48 164.533L117.173 163.467L121.153 165.573ZM112.5 165.573L116.48 163.467L117.173 164.533L113.373 166.934L112.5 165.573Z" fill="#CACACC"/>
    <path d="M133.954 159.5H135.713L135.52 164.006H134.146L133.954 159.5ZM133.954 168.5L134.146 164.006H135.52L135.713 168.5H133.954ZM130.5 162.427L131.373 161.066L135.173 163.467L134.48 164.533L130.5 162.427ZM139.153 162.427L135.173 164.533L134.48 163.467L138.28 161.066L139.153 162.427ZM139.153 165.573L138.28 166.934L134.48 164.533L135.173 163.467L139.153 165.573ZM130.5 165.573L134.48 163.467L135.173 164.533L131.373 166.934L130.5 165.573Z" fill="#CACACC"/>
    <path d="M151.954 159.5H153.713L153.52 164.006H152.146L151.954 159.5ZM151.954 168.5L152.146 164.006H153.52L153.713 168.5H151.954ZM148.5 162.427L149.373 161.066L153.173 163.467L152.48 164.533L148.5 162.427ZM157.153 162.427L153.173 164.533L152.48 163.467L156.28 161.066L157.153 162.427ZM157.153 165.573L156.28 166.934L152.48 164.533L153.173 163.467L157.153 165.573ZM148.5 165.573L152.48 163.467L153.173 164.533L149.373 166.934L148.5 165.573Z" fill="#CACACC"/>
    <path d="M169.954 159.5H171.713L171.52 164.006H170.146L169.954 159.5ZM169.954 168.5L170.146 164.006H171.52L171.713 168.5H169.954ZM166.5 162.427L167.373 161.066L171.173 163.467L170.48 164.533L166.5 162.427ZM175.153 162.427L171.173 164.533L170.48 163.467L174.28 161.066L175.153 162.427ZM175.153 165.573L174.28 166.934L170.48 164.533L171.173 163.467L175.153 165.573ZM166.5 165.573L170.48 163.467L171.173 164.533L167.373 166.934L166.5 165.573Z" fill="#CACACC"/>
    <path d="M187.954 159.5H189.713L189.52 164.006H188.146L187.954 159.5ZM187.954 168.5L188.146 164.006H189.52L189.713 168.5H187.954ZM184.5 162.427L185.373 161.066L189.173 163.467L188.48 164.533L184.5 162.427ZM193.153 162.427L189.173 164.533L188.48 163.467L192.28 161.066L193.153 162.427ZM193.153 165.573L192.28 166.934L188.48 164.533L189.173 163.467L193.153 165.573ZM184.5 165.573L188.48 163.467L189.173 164.533L185.373 166.934L184.5 165.573Z" fill="#CACACC"/>
    <rect x="78.5" y="148.5" width="210" height="31" rx="7.5" stroke="#E3E3E6"/>
    <rect x="78" y="192" width="124" height="32" rx="8" fill="#E3E3E6"/>
    <path fill-rule="evenodd" clip-rule="evenodd" d="M100.4 204V205.6C101.037 205.6 101.647 205.853 102.097 206.303C102.547 206.753 102.8 207.363 102.8 208V213.6C102.8 214.237 102.547 214.847 102.097 215.297C101.647 215.747 101.037 216 100.4 216H92.4C91.7635 216 91.153 215.747 90.7029 215.297C90.2529 214.847 90 214.237 90 213.6V208C90 207.363 90.2529 206.753 90.7029 206.303C91.153 205.853 91.7635 205.6 92.4 205.6V204C92.4 202.939 92.8214 201.922 93.5716 201.172C94.3217 200.421 95.3391 200 96.4 200C97.4609 200 98.4783 200.421 99.2284 201.172C99.9786 201.922 100.4 202.939 100.4 204ZM94.7029 202.303C94.2529 202.753 94 203.363 94 204V205.6H98.8V204C98.8 203.363 98.5471 202.753 98.0971 202.303C97.647 201.853 97.0365 201.6 96.4 201.6C95.7635 201.6 95.153 201.853 94.7029 202.303ZM96.4 208.8C96.1565 208.797 95.9179 208.869 95.7164 209.006C95.5149 209.143 95.3601 209.338 95.273 209.565C95.1858 209.793 95.1705 210.042 95.2289 210.278C95.2874 210.515 95.4169 210.727 95.6 210.888V212C95.6 212.212 95.6843 212.416 95.8343 212.566C95.9844 212.716 96.1878 212.8 96.4 212.8C96.6122 212.8 96.8157 212.716 96.9657 212.566C97.1157 212.416 97.2 212.212 97.2 212V210.888C97.3831 210.727 97.5126 210.515 97.5711 210.278C97.6296 210.042 97.6142 209.793 97.527 209.565C97.4399 209.338 97.2852 209.143 97.0837 209.006C96.8822 208.869 96.6436 208.797 96.4 208.8Z" fill="white"/>
    <rect x="114.8" y="204" width="69" height="8" rx="4" fill="white"/>
  </g>
  <g filter="url(#filter1_d_52_4262)">
    <mask id="mask0_52_4262" style="mask-type:alpha" maskUnits="userSpaceOnUse" x="291" y="17" width="103" height="125">
      <path d="M291.373 85.646C299.16 108.552 327.098 131.438 338.05 139.738C340.708 141.751 344.292 141.751 346.95 139.738C357.902 131.438 385.84 108.552 393.627 85.646C393.886 84.8851 394 84.0913 394 83.2876V32.0539C394 29.5056 392.814 27.0623 390.569 25.856C374.088 17 342.5 17 342.5 17C342.5 17 310.912 17 294.431 25.856C292.186 27.0623 291 29.5056 291 32.0539V83.2876C291 84.0913 291.114 84.8851 291.373 85.646Z" fill="white"/>
    </mask>
    <g mask="url(#mask0_52_4262)">
      <path d="M291.373 85.646C299.16 108.552 327.098 131.438 338.05 139.738C340.708 141.751 344.292 141.751 346.95 139.738C357.902 131.438 385.84 108.552 393.627 85.646C393.886 84.8851 394 84.0913 394 83.2876V32.0539C394 29.5056 392.814 27.0623 390.569 25.856C374.088 17 342.5 17 342.5 17C342.5 17 310.912 17 294.431 25.856C292.186 27.0623 291 29.5056 291 32.0539V83.2876C291 84.0913 291.114 84.8851 291.373 85.646Z" fill="white"/>
    </g>
    <path fill-rule="evenodd" clip-rule="evenodd" d="M354.667 56.3333V61C356.523 61 358.304 61.7375 359.616 63.0503C360.929 64.363 361.667 66.1435 361.667 68V84.3333C361.667 86.1898 360.929 87.9703 359.616 89.2831C358.304 90.5958 356.523 91.3333 354.667 91.3333H331.333C329.477 91.3333 327.696 90.5958 326.384 89.2831C325.071 87.9703 324.333 86.1898 324.333 84.3333V68C324.333 66.1435 325.071 64.363 326.384 63.0503C327.696 61.7375 329.477 61 331.333 61V56.3333C331.333 53.2391 332.563 50.2717 334.75 48.0838C336.938 45.8958 339.906 44.6667 343 44.6667C346.094 44.6667 349.062 45.8958 351.25 48.0838C353.438 50.2717 354.667 53.2391 354.667 56.3333ZM338.05 51.3836C336.738 52.6963 336 54.4768 336 56.3333V61H350V56.3333C350 54.4768 349.263 52.6963 347.95 51.3836C346.637 50.0708 344.857 49.3333 343 49.3333C341.144 49.3333 339.363 50.0708 338.05 51.3836ZM343 70.3333C342.29 70.325 341.594 70.5345 341.006 70.9337C340.419 71.3328 339.967 71.9025 339.713 72.5659C339.459 73.2293 339.414 73.9546 339.585 74.6443C339.755 75.334 340.133 75.9548 340.667 76.4233V79.6667C340.667 80.2855 340.913 80.879 341.35 81.3166C341.788 81.7542 342.381 82 343 82C343.619 82 344.213 81.7542 344.65 81.3166C345.088 80.879 345.334 80.2855 345.334 79.6667V76.4233C345.868 75.9548 346.245 75.334 346.416 74.6443C346.586 73.9546 346.542 73.2293 346.287 72.5659C346.033 71.9025 345.582 71.3328 344.994 70.9337C344.407 70.5345 343.711 70.325 343 70.3333Z" fill="#8BB7F9"/>
  </g>
  <g filter="url(#filter2_d_52_4262)">
    <rect x="370" y="150" width="48" height="48" rx="8" fill="white"/>
    <path d="M402.4 174.66C402.24 174.478 402.151 174.243 402.151 174C402.151 173.757 402.24 173.522 402.4 173.34L403.68 171.9C403.821 171.743 403.909 171.545 403.93 171.335C403.952 171.124 403.906 170.913 403.8 170.73L401.8 167.27C401.695 167.088 401.535 166.943 401.343 166.857C401.151 166.77 400.936 166.747 400.73 166.79L398.85 167.17C398.611 167.219 398.362 167.18 398.15 167.058C397.938 166.936 397.778 166.741 397.7 166.51L397.09 164.68C397.023 164.481 396.895 164.309 396.725 164.187C396.554 164.065 396.35 163.999 396.14 164H392.14C391.922 163.989 391.706 164.049 391.526 164.172C391.345 164.295 391.21 164.473 391.14 164.68L390.58 166.51C390.502 166.741 390.342 166.936 390.13 167.058C389.918 167.18 389.669 167.219 389.43 167.17L387.5 166.79C387.305 166.762 387.105 166.793 386.927 166.879C386.749 166.964 386.601 167.1 386.5 167.27L384.5 170.73C384.391 170.911 384.342 171.121 384.36 171.331C384.378 171.541 384.462 171.74 384.6 171.9L385.87 173.34C386.03 173.522 386.119 173.757 386.119 174C386.119 174.243 386.03 174.478 385.87 174.66L384.6 176.1C384.462 176.26 384.378 176.459 384.36 176.669C384.342 176.879 384.391 177.089 384.5 177.27L386.5 180.73C386.605 180.912 386.765 181.057 386.957 181.143C387.149 181.23 387.364 181.253 387.57 181.21L389.45 180.83C389.689 180.781 389.938 180.82 390.15 180.942C390.362 181.064 390.522 181.259 390.6 181.49L391.21 183.32C391.28 183.527 391.415 183.705 391.596 183.828C391.776 183.951 391.992 184.011 392.21 184H396.21C396.42 184.001 396.624 183.935 396.795 183.813C396.965 183.691 397.093 183.519 397.16 183.32L397.77 181.49C397.848 181.259 398.008 181.064 398.22 180.942C398.432 180.82 398.681 180.781 398.92 180.83L400.8 181.21C401.006 181.253 401.221 181.23 401.413 181.143C401.605 181.057 401.765 180.912 401.87 180.73L403.87 177.27C403.976 177.087 404.022 176.876 404 176.665C403.979 176.455 403.891 176.257 403.75 176.1L402.4 174.66ZM400.91 176L401.71 176.9L400.43 179.12L399.25 178.88C398.53 178.733 397.781 178.855 397.145 179.224C396.509 179.592 396.03 180.182 395.8 180.88L395.42 182H392.86L392.5 180.86C392.27 180.162 391.791 179.572 391.155 179.204C390.519 178.835 389.77 178.713 389.05 178.86L387.87 179.1L386.57 176.89L387.37 175.99C387.862 175.44 388.134 174.728 388.134 173.99C388.134 173.252 387.862 172.54 387.37 171.99L386.57 171.09L387.85 168.89L389.03 169.13C389.75 169.277 390.499 169.155 391.135 168.786C391.771 168.418 392.25 167.828 392.48 167.13L392.86 166H395.42L395.8 167.14C396.03 167.838 396.509 168.428 397.145 168.796C397.781 169.165 398.53 169.287 399.25 169.14L400.43 168.9L401.71 171.12L400.91 172.02C400.424 172.569 400.155 173.277 400.155 174.01C400.155 174.743 400.424 175.451 400.91 176ZM394.14 170C393.349 170 392.576 170.235 391.918 170.674C391.26 171.114 390.747 171.738 390.444 172.469C390.142 173.2 390.063 174.004 390.217 174.78C390.371 175.556 390.752 176.269 391.312 176.828C391.871 177.388 392.584 177.769 393.36 177.923C394.136 178.077 394.94 177.998 395.671 177.696C396.402 177.393 397.026 176.88 397.466 176.222C397.905 175.564 398.14 174.791 398.14 174C398.14 172.939 397.719 171.922 396.968 171.172C396.218 170.421 395.201 170 394.14 170ZM394.14 176C393.744 176 393.358 175.883 393.029 175.663C392.7 175.443 392.444 175.131 392.292 174.765C392.141 174.4 392.101 173.998 392.178 173.61C392.256 173.222 392.446 172.865 392.726 172.586C393.006 172.306 393.362 172.116 393.75 172.038C394.138 171.961 394.54 172.001 394.905 172.152C395.271 172.304 395.583 172.56 395.803 172.889C396.023 173.218 396.14 173.604 396.14 174C396.14 174.53 395.929 175.039 395.554 175.414C395.179 175.789 394.67 176 394.14 176Z" fill="#919191"/>
  </g>
  <g filter="url(#filter3_d_52_4262)">
    <rect x="314" y="198" width="40" height="40" rx="8" fill="white"/>
    <path d="M337.094 218.591C337.916 217.949 338.515 217.068 338.809 216.071C339.103 215.074 339.077 214.011 338.736 213.029C338.394 212.047 337.753 211.196 336.902 210.593C336.051 209.99 335.032 209.667 333.988 209.667C332.943 209.667 331.924 209.99 331.073 210.593C330.222 211.196 329.581 212.047 329.239 213.029C328.898 214.011 328.872 215.074 329.166 216.071C329.46 217.068 330.06 217.949 330.881 218.591C329.474 219.152 328.246 220.081 327.329 221.281C326.412 222.481 325.839 223.906 325.672 225.404C325.66 225.513 325.669 225.624 325.7 225.73C325.731 225.835 325.783 225.934 325.852 226.02C325.992 226.193 326.195 226.304 326.417 226.328C326.639 226.353 326.862 226.288 327.036 226.149C327.21 226.01 327.322 225.808 327.347 225.587C327.53 223.959 328.311 222.455 329.539 221.364C330.767 220.272 332.357 219.668 334.004 219.668C335.652 219.668 337.241 220.272 338.469 221.364C339.698 222.455 340.478 223.959 340.662 225.587C340.685 225.792 340.783 225.981 340.938 226.118C341.092 226.254 341.292 226.33 341.499 226.328H341.592C341.811 226.303 342.012 226.193 342.15 226.021C342.288 225.85 342.352 225.631 342.329 225.412C342.161 223.91 341.585 222.481 340.663 221.28C339.741 220.078 338.507 219.149 337.094 218.591ZM333.988 218C333.325 218 332.677 217.804 332.126 217.438C331.576 217.072 331.146 216.552 330.893 215.943C330.639 215.335 330.573 214.665 330.702 214.018C330.831 213.372 331.15 212.779 331.619 212.313C332.087 211.847 332.684 211.53 333.334 211.401C333.984 211.272 334.657 211.338 335.269 211.591C335.882 211.843 336.405 212.27 336.773 212.818C337.141 213.365 337.337 214.009 337.337 214.668C337.337 215.552 336.984 216.399 336.356 217.024C335.728 217.649 334.876 218 333.988 218Z" fill="#919191"/>
  </g>
  <defs>
    <filter id="filter0_d_52_4262" x="26" y="33" width="337" height="238" filterUnits="userSpaceOnUse" color-interpolation-filters="sRGB">
      <feFlood flood-opacity="0" result="BackgroundImageFix"/>
      <feColorMatrix in="SourceAlpha" type="matrix" values="0 0 0 0 0 0 0 0 0 0 0 0 0 0 0 0 0 0 127 0" result="hardAlpha"/>
      <feOffset dy="3"/>
      <feGaussianBlur stdDeviation="10"/>
      <feColorMatrix type="matrix" values="0 0 0 0 0 0 0 0 0 0 0 0 0 0 0 0 0 0 0.1 0"/>
      <feBlend mode="normal" in2="BackgroundImageFix" result="effect1_dropShadow_52_4262"/>
      <feBlend mode="normal" in="SourceGraphic" in2="effect1_dropShadow_52_4262" result="shape"/>
    </filter>
    <filter id="filter1_d_52_4262" x="271" y="0" width="143" height="166" filterUnits="userSpaceOnUse" color-interpolation-filters="sRGB">
      <feFlood flood-opacity="0" result="BackgroundImageFix"/>
      <feColorMatrix in="SourceAlpha" type="matrix" values="0 0 0 0 0 0 0 0 0 0 0 0 0 0 0 0 0 0 127 0" result="hardAlpha"/>
      <feOffset dy="3"/>
      <feGaussianBlur stdDeviation="10"/>
      <feColorMatrix type="matrix" values="0 0 0 0 0 0 0 0 0 0 0 0 0 0 0 0 0 0 0.1 0"/>
      <feBlend mode="normal" in2="BackgroundImageFix" result="effect1_dropShadow_52_4262"/>
      <feBlend mode="normal" in="SourceGraphic" in2="effect1_dropShadow_52_4262" result="shape"/>
    </filter>
    <filter id="filter2_d_52_4262" x="358" y="143" width="72" height="72" filterUnits="userSpaceOnUse" color-interpolation-filters="sRGB">
      <feFlood flood-opacity="0" result="BackgroundImageFix"/>
      <feColorMatrix in="SourceAlpha" type="matrix" values="0 0 0 0 0 0 0 0 0 0 0 0 0 0 0 0 0 0 127 0" result="hardAlpha"/>
      <feOffset dy="5"/>
      <feGaussianBlur stdDeviation="6"/>
      <feColorMatrix type="matrix" values="0 0 0 0 0 0 0 0 0 0 0 0 0 0 0 0 0 0 0.12 0"/>
      <feBlend mode="normal" in2="BackgroundImageFix" result="effect1_dropShadow_52_4262"/>
      <feBlend mode="normal" in="SourceGraphic" in2="effect1_dropShadow_52_4262" result="shape"/>
    </filter>
    <filter id="filter3_d_52_4262" x="302" y="191" width="64" height="64" filterUnits="userSpaceOnUse" color-interpolation-filters="sRGB">
      <feFlood flood-opacity="0" result="BackgroundImageFix"/>
      <feColorMatrix in="SourceAlpha" type="matrix" values="0 0 0 0 0 0 0 0 0 0 0 0 0 0 0 0 0 0 127 0" result="hardAlpha"/>
      <feOffset dy="5"/>
      <feGaussianBlur stdDeviation="6"/>
      <feColorMatrix type="matrix" values="0 0 0 0 0 0 0 0 0 0 0 0 0 0 0 0 0 0 0.12 0"/>
      <feBlend mode="normal" in2="BackgroundImageFix" result="effect1_dropShadow_52_4262"/>
      <feBlend mode="normal" in="SourceGraphic" in2="effect1_dropShadow_52_4262" result="shape"/>
    </filter>
  </defs>
</svg>
