<svg width="452" height="269" viewBox="0 0 452 269" fill="none" xmlns="http://www.w3.org/2000/svg">
  <g filter="url(#filter0_d_52_4316)">
    <rect x="24" y="34" width="324" height="212" rx="8" fill="white"/>
    <path d="M49.3906 74V62.7266H51.4062V74H49.3906ZM54.8753 70.2734V68.6484H57.8753C58.5993 68.6484 59.1618 68.4635 59.5628 68.0938C59.9639 67.7188 60.1644 67.1927 60.1644 66.5156V66.5C60.1644 65.8177 59.9639 65.2917 59.5628 64.9219C59.1618 64.5521 58.5993 64.3672 57.8753 64.3672H54.8753V62.7266H58.3675C59.1331 62.7266 59.8024 62.8828 60.3753 63.1953C60.9482 63.5078 61.3961 63.9479 61.7191 64.5156C62.042 65.0781 62.2034 65.737 62.2034 66.4922V66.5078C62.2034 67.2578 62.042 67.9167 61.7191 68.4844C61.3961 69.0469 60.9482 69.487 60.3753 69.8047C59.8024 70.1172 59.1331 70.2734 58.3675 70.2734H54.8753ZM53.8675 74V62.7266H55.8831V74H53.8675ZM69.4853 74L67.165 65.4609H69.1181L70.5322 71.8828H70.6728L72.3134 65.4609H74.165L75.8134 71.8828H75.9541L77.3681 65.4609H79.2978L76.9775 74H74.9463L73.2822 67.8125H73.1494L71.4931 74H69.4853ZM80.7356 74V62.1562H82.6809V66.7734H82.8137C83.0169 66.3099 83.3242 65.9479 83.7356 65.6875C84.1471 65.4271 84.6601 65.2969 85.2747 65.2969C85.9101 65.2969 86.4466 65.4219 86.8841 65.6719C87.3216 65.9167 87.6523 66.276 87.8762 66.75C88.1054 67.224 88.22 67.7995 88.22 68.4766V74H86.2747V68.9297C86.2747 68.263 86.1341 67.763 85.8528 67.4297C85.5768 67.0964 85.1445 66.9297 84.5559 66.9297C84.1705 66.9297 83.8372 67.0156 83.5559 67.1875C83.2747 67.3594 83.0585 67.6016 82.9075 67.9141C82.7565 68.2266 82.6809 68.5964 82.6809 69.0234V74H80.7356ZM90.2203 74V65.4609H92.1578V74H90.2203ZM91.1969 64.0312C90.8792 64.0312 90.6057 63.9193 90.3766 63.6953C90.1474 63.4714 90.0328 63.2031 90.0328 62.8906C90.0328 62.5677 90.1474 62.2969 90.3766 62.0781C90.6057 61.8542 90.8792 61.7422 91.1969 61.7422C91.5146 61.7422 91.7854 61.8542 92.0094 62.0781C92.2385 62.2969 92.3531 62.5677 92.3531 62.8906C92.3531 63.2031 92.2385 63.4714 92.0094 63.6953C91.7854 63.9193 91.5146 64.0312 91.1969 64.0312ZM97.5956 74.0391C96.6165 74.0391 95.9107 73.8594 95.4784 73.5C95.0461 73.1406 94.83 72.5521 94.83 71.7344V66.9688H93.5019V65.4609H94.83V63.3672H96.8066V65.4609H98.6034V66.9688H96.8066V71.2734C96.8066 71.6953 96.8951 72.0052 97.0722 72.2031C97.2545 72.3958 97.5461 72.4922 97.9472 72.4922C98.0878 72.4922 98.2024 72.4896 98.2909 72.4844C98.3847 72.474 98.4889 72.4635 98.6034 72.4531V73.9531C98.468 73.9792 98.3118 74 98.1347 74.0156C97.9628 74.0312 97.7831 74.0391 97.5956 74.0391ZM103.807 74.1719C102.958 74.1719 102.229 73.9922 101.619 73.6328C101.015 73.2734 100.549 72.763 100.221 72.1016C99.8928 71.4401 99.7287 70.6562 99.7287 69.75V69.7422C99.7287 68.8464 99.8902 68.0651 100.213 67.3984C100.541 66.7318 101.005 66.2161 101.604 65.8516C102.203 65.4818 102.906 65.2969 103.713 65.2969C104.526 65.2969 105.224 65.4766 105.807 65.8359C106.395 66.1901 106.849 66.6875 107.166 67.3281C107.484 67.9688 107.643 68.7188 107.643 69.5781V70.2188H100.705V68.9141H106.69L105.768 70.1328V69.3594C105.768 68.7917 105.682 68.3203 105.51 67.9453C105.338 67.5703 105.099 67.2891 104.791 67.1016C104.489 66.9141 104.138 66.8203 103.737 66.8203C103.336 66.8203 102.979 66.9193 102.666 67.1172C102.359 67.3099 102.114 67.5964 101.932 67.9766C101.755 68.3516 101.666 68.8125 101.666 69.3594V70.1406C101.666 70.6667 101.755 71.1172 101.932 71.4922C102.109 71.862 102.359 72.1484 102.682 72.3516C103.01 72.5495 103.398 72.6484 103.846 72.6484C104.195 72.6484 104.494 72.599 104.744 72.5C105 72.3958 105.205 72.2734 105.362 72.1328C105.518 71.987 105.627 71.849 105.69 71.7188L105.713 71.6641H107.557L107.541 71.7344C107.474 72.0104 107.349 72.2917 107.166 72.5781C106.989 72.8594 106.747 73.1224 106.44 73.3672C106.138 73.6068 105.768 73.8021 105.33 73.9531C104.893 74.099 104.385 74.1719 103.807 74.1719ZM109.346 74V62.1562H111.292V74H109.346ZM113.44 74V65.4609H115.378V74H113.44ZM114.417 64.0312C114.099 64.0312 113.826 63.9193 113.597 63.6953C113.367 63.4714 113.253 63.2031 113.253 62.8906C113.253 62.5677 113.367 62.2969 113.597 62.0781C113.826 61.8542 114.099 61.7422 114.417 61.7422C114.735 61.7422 115.005 61.8542 115.229 62.0781C115.459 62.2969 115.573 62.5677 115.573 62.8906C115.573 63.2031 115.459 63.4714 115.229 63.6953C115.005 63.9193 114.735 64.0312 114.417 64.0312ZM120.683 74.1719C119.959 74.1719 119.334 74.0703 118.808 73.8672C118.287 73.6589 117.876 73.3724 117.573 73.0078C117.271 72.638 117.092 72.2109 117.034 71.7266V71.7109H118.964L118.972 71.7266C119.076 72.0234 119.271 72.2656 119.558 72.4531C119.844 72.6406 120.23 72.7344 120.714 72.7344C121.037 72.7344 121.321 72.6901 121.566 72.6016C121.81 72.5078 122.003 72.3802 122.144 72.2188C122.284 72.0573 122.355 71.8698 122.355 71.6562V71.6406C122.355 71.3906 122.253 71.1823 122.05 71.0156C121.847 70.8438 121.511 70.7057 121.042 70.6016L119.659 70.2891C119.118 70.1693 118.67 70.0026 118.316 69.7891C117.961 69.5755 117.696 69.3125 117.519 69C117.347 68.6875 117.261 68.3229 117.261 67.9062V67.8984C117.261 67.3828 117.404 66.9297 117.691 66.5391C117.982 66.1484 118.386 65.8438 118.902 65.625C119.417 65.4062 120.011 65.2969 120.683 65.2969C121.376 65.2969 121.972 65.401 122.472 65.6094C122.972 65.8177 123.363 66.1042 123.644 66.4688C123.925 66.8333 124.086 67.2474 124.128 67.7109V67.7266H122.3L122.292 67.7031C122.219 67.4323 122.045 67.2031 121.769 67.0156C121.498 66.8229 121.133 66.7266 120.675 66.7266C120.389 66.7266 120.131 66.7708 119.902 66.8594C119.678 66.9479 119.501 67.0729 119.37 67.2344C119.245 67.3906 119.183 67.5755 119.183 67.7891V67.7969C119.183 67.9635 119.224 68.1094 119.308 68.2344C119.396 68.3594 119.534 68.4688 119.722 68.5625C119.909 68.6562 120.157 68.7396 120.464 68.8125L121.847 69.1172C122.685 69.3047 123.305 69.5833 123.706 69.9531C124.107 70.3229 124.308 70.8203 124.308 71.4453V71.4609C124.308 72.0026 124.152 72.4766 123.839 72.8828C123.527 73.2891 123.097 73.6068 122.55 73.8359C122.003 74.0599 121.381 74.1719 120.683 74.1719ZM129.261 74.0391C128.282 74.0391 127.576 73.8594 127.144 73.5C126.712 73.1406 126.496 72.5521 126.496 71.7344V66.9688H125.168V65.4609H126.496V63.3672H128.472V65.4609H130.269V66.9688H128.472V71.2734C128.472 71.6953 128.561 72.0052 128.738 72.2031C128.92 72.3958 129.212 72.4922 129.613 72.4922C129.753 72.4922 129.868 72.4896 129.957 72.4844C130.05 72.474 130.154 72.4635 130.269 72.4531V73.9531C130.134 73.9792 129.977 74 129.8 74.0156C129.628 74.0312 129.449 74.0391 129.261 74.0391Z" fill="#146EF6"/>
    <path d="M54.3431 110.343C55.8434 108.843 57.8783 108 60 108C62.1217 108 64.1566 108.843 65.6569 110.343C67.1571 111.843 68 113.878 68 116C68 121.4 61 127.5 60.65 127.76C60.4689 127.915 60.2384 128 60 128C59.7616 128 59.5311 127.915 59.35 127.76L59.3483 127.759C59.025 127.478 52 121.39 52 116C52 113.878 52.8429 111.843 54.3431 110.343Z" fill="#3DCC85"/>
    <path d="M64.2938 112.703C64.2343 112.638 64.1635 112.587 64.0854 112.553C64.0074 112.518 63.9237 112.5 63.8392 112.5C63.7546 112.5 63.6709 112.518 63.5929 112.553C63.5148 112.587 63.444 112.638 63.3845 112.703L58.6135 117.811L56.6091 115.661C56.5473 115.597 56.4743 115.547 56.3944 115.513C56.3144 115.48 56.229 115.463 56.1431 115.465C56.0572 115.466 55.9724 115.486 55.8936 115.523C55.8148 115.559 55.7435 115.612 55.6837 115.678C55.624 115.744 55.5771 115.822 55.5456 115.908C55.5141 115.993 55.4986 116.085 55.5001 116.176C55.5016 116.268 55.52 116.359 55.5542 116.443C55.5885 116.528 55.6379 116.604 55.6998 116.668L58.1589 119.297C58.2184 119.362 58.2892 119.413 58.3673 119.447C58.4453 119.482 58.529 119.5 58.6135 119.5C58.6981 119.5 58.7818 119.482 58.8598 119.447C58.9379 119.413 59.0087 119.362 59.0682 119.297L64.2938 113.709C64.3588 113.645 64.4107 113.567 64.4462 113.481C64.4817 113.394 64.5 113.3 64.5 113.206C64.5 113.111 64.4817 113.018 64.4462 112.931C64.4107 112.845 64.3588 112.767 64.2938 112.703Z" fill="white"/>
    <rect x="78" y="114" width="162" height="8" rx="4" fill="#E3E3E6"/>
    <path d="M54.3431 154.343C55.8434 152.843 57.8783 152 60 152C62.1217 152 64.1566 152.843 65.6569 154.343C67.1571 155.843 68 157.878 68 160C68 165.4 61 171.5 60.65 171.76C60.4689 171.915 60.2384 172 60 172C59.7616 172 59.5311 171.915 59.35 171.76L59.3483 171.759C59.025 171.478 52 165.39 52 160C52 157.878 52.8429 155.843 54.3431 154.343Z" fill="#3DCC85"/>
    <path d="M64.2938 156.703C64.2343 156.638 64.1635 156.587 64.0854 156.553C64.0074 156.518 63.9237 156.5 63.8392 156.5C63.7546 156.5 63.6709 156.518 63.5929 156.553C63.5148 156.587 63.444 156.638 63.3845 156.703L58.6135 161.811L56.6091 159.661C56.5473 159.597 56.4743 159.547 56.3944 159.513C56.3144 159.48 56.229 159.463 56.1431 159.465C56.0572 159.466 55.9724 159.486 55.8936 159.523C55.8148 159.559 55.7435 159.612 55.6837 159.678C55.624 159.744 55.5771 159.822 55.5456 159.908C55.5141 159.993 55.4986 160.085 55.5001 160.176C55.5016 160.268 55.52 160.359 55.5542 160.443C55.5885 160.528 55.6379 160.604 55.6998 160.668L58.1589 163.297C58.2184 163.362 58.2892 163.413 58.3673 163.447C58.4453 163.482 58.529 163.5 58.6135 163.5C58.6981 163.5 58.7818 163.482 58.8598 163.447C58.9379 163.413 59.0087 163.362 59.0682 163.297L64.2938 157.709C64.3588 157.645 64.4107 157.567 64.4462 157.481C64.4817 157.394 64.5 157.3 64.5 157.206C64.5 157.111 64.4817 157.018 64.4462 156.931C64.4107 156.845 64.3588 156.767 64.2938 156.703Z" fill="white"/>
    <rect x="78" y="158" width="62" height="8" rx="4" fill="#E3E3E6"/>
    <path d="M147.005 163.582V162.475H151.599V163.582H147.005Z" fill="#616161"/>
    <rect x="159" y="158" width="62" height="8" rx="4" fill="#E3E3E6"/>
    <path d="M54.3431 198.343C55.8434 196.843 57.8783 196 60 196C62.1217 196 64.1566 196.843 65.6569 198.343C67.1571 199.843 68 201.878 68 204C68 209.4 61 215.5 60.65 215.76C60.4689 215.915 60.2384 216 60 216C59.7616 216 59.5311 215.915 59.35 215.76L59.3483 215.759C59.025 215.478 52 209.39 52 204C52 201.878 52.8429 199.843 54.3431 198.343Z" fill="#3DCC85"/>
    <path d="M64.2938 200.703C64.2343 200.638 64.1635 200.587 64.0854 200.553C64.0074 200.518 63.9237 200.5 63.8392 200.5C63.7546 200.5 63.6709 200.518 63.5929 200.553C63.5148 200.587 63.444 200.638 63.3845 200.703L58.6135 205.811L56.6091 203.661C56.5473 203.597 56.4743 203.547 56.3944 203.513C56.3144 203.48 56.229 203.463 56.1431 203.465C56.0572 203.466 55.9724 203.486 55.8936 203.523C55.8148 203.559 55.7435 203.612 55.6837 203.678C55.624 203.744 55.5771 203.822 55.5456 203.908C55.5141 203.993 55.4986 204.085 55.5001 204.176C55.5016 204.268 55.52 204.359 55.5542 204.443C55.5885 204.528 55.6379 204.604 55.6998 204.668L58.1589 207.297C58.2184 207.362 58.2892 207.413 58.3673 207.447C58.4453 207.482 58.529 207.5 58.6135 207.5C58.6981 207.5 58.7818 207.482 58.8598 207.447C58.9379 207.413 59.0087 207.362 59.0682 207.297L64.2938 201.709C64.3588 201.645 64.4107 201.567 64.4462 201.481C64.4817 201.394 64.5 201.3 64.5 201.206C64.5 201.111 64.4817 201.018 64.4462 200.931C64.4107 200.845 64.3588 200.767 64.2938 200.703Z" fill="white"/>
    <rect x="78" y="202" width="62" height="8" rx="4" fill="#E3E3E6"/>
    <path d="M150.259 200.705L147.142 213.461H146L149.117 200.705H150.259Z" fill="#616161"/>
    <rect x="157" y="202" width="16" height="8" rx="4" fill="#E3E3E6"/>
  </g>
  <g filter="url(#filter1_d_52_4316)">
    <rect x="286" y="8" width="108" height="108" rx="8" fill="white"/>
    <path d="M368.226 51.8909C368.226 51.8909 368.226 51.8909 368.226 51.7404C366.108 45.9522 362.265 40.9548 357.217 37.4243C352.168 33.8937 346.158 32.0004 340 32.0004C333.842 32.0004 327.832 33.8937 322.783 37.4243C317.735 40.9548 313.892 45.9522 311.774 51.7404C311.774 51.7404 311.774 51.7404 311.774 51.8909C309.409 58.4226 309.409 65.5781 311.774 72.1098C311.774 72.1098 311.774 72.1099 311.774 72.2603C313.892 78.0485 317.735 83.0459 322.783 86.5765C327.832 90.107 333.842 92.0004 340 92.0004C346.158 92.0004 352.168 90.107 357.217 86.5765C362.265 83.0459 366.108 78.0485 368.226 72.2603C368.226 72.2603 368.226 72.2603 368.226 72.1098C370.591 65.5781 370.591 58.4226 368.226 51.8909ZM316.674 68.0179C315.631 64.0741 315.631 59.9267 316.674 55.9828H322.265C321.784 59.9801 321.784 64.0206 322.265 68.0179H316.674ZM319.139 74.0355H323.347C324.053 76.7188 325.061 79.313 326.353 81.768C323.405 79.758 320.941 77.1166 319.139 74.0355ZM323.347 49.9653H319.139C320.915 46.8935 323.348 44.253 326.263 42.2327C325.002 44.6916 324.024 47.2857 323.347 49.9653ZM336.934 85.1679C333.242 82.4561 330.649 78.5042 329.629 74.0355H336.934V85.1679ZM336.934 68.0179H328.337C327.776 64.0259 327.776 59.9749 328.337 55.9828H336.934V68.0179ZM336.934 49.9653H329.629C330.649 45.4965 333.242 41.5446 336.934 38.8328V49.9653ZM360.741 49.9653H356.533C355.827 47.2819 354.819 44.6877 353.527 42.2327C356.475 44.2428 358.939 46.8841 360.741 49.9653ZM342.946 38.8328C346.638 41.5446 349.231 45.4965 350.25 49.9653H342.946V38.8328ZM342.946 85.1679V74.0355H350.25C349.231 78.5042 346.638 82.4561 342.946 85.1679ZM351.543 68.0179H342.946V55.9828H351.543C352.104 59.9749 352.104 64.0259 351.543 68.0179ZM353.617 81.768C354.909 79.313 355.917 76.7188 356.623 74.0355H360.831C359.029 77.1166 356.565 79.758 353.617 81.768ZM363.206 68.0179H357.615C357.859 66.0215 357.98 64.0117 357.976 62.0004C357.979 59.989 357.859 57.9793 357.615 55.9828H363.206C364.248 59.9267 364.248 64.0741 363.206 68.0179Z" fill="#8BB7F9"/>
  </g>
  <g filter="url(#filter2_d_52_4316)">
    <rect x="310" y="138" width="68" height="68" rx="8" fill="white"/>
    <path d="M333.333 161.333H354.667C355.403 161.333 356 161.93 356 162.667V176C356 176.736 355.403 177.333 354.667 177.333H333.333C332.597 177.333 332 176.736 332 176V162.667C332 161.93 332.597 161.333 333.333 161.333ZM345.333 180H354.667C356.876 180 358.667 178.209 358.667 176V162.667C358.667 160.458 356.876 158.667 354.667 158.667H333.333C331.124 158.667 329.333 160.458 329.333 162.667V176C329.333 178.209 331.124 180 333.333 180H342.667V182.667H338.667C337.93 182.667 337.333 183.264 337.333 184C337.333 184.736 337.93 185.333 338.667 185.333H349.333C350.07 185.333 350.667 184.736 350.667 184C350.667 183.264 350.07 182.667 349.333 182.667H345.333V180Z" fill="#919191"/>
  </g>
  <g filter="url(#filter3_d_52_4316)">
    <rect x="400" y="136" width="40" height="40" rx="8" fill="white"/>
    <path d="M427 156.55C426.866 156.398 426.793 156.202 426.793 156C426.793 155.798 426.866 155.602 427 155.45L428.067 154.25C428.184 154.119 428.257 153.954 428.275 153.779C428.293 153.604 428.255 153.427 428.167 153.275L426.5 150.392C426.412 150.24 426.279 150.119 426.119 150.047C425.959 149.975 425.78 149.956 425.608 149.992L424.042 150.308C423.842 150.35 423.635 150.316 423.458 150.215C423.282 150.114 423.148 149.951 423.083 149.758L422.575 148.233C422.519 148.068 422.413 147.924 422.27 147.822C422.128 147.721 421.958 147.666 421.783 147.667H418.45C418.268 147.657 418.088 147.707 417.938 147.81C417.787 147.912 417.675 148.061 417.617 148.233L417.15 149.758C417.085 149.951 416.952 150.114 416.775 150.215C416.598 150.316 416.391 150.35 416.192 150.308L414.583 149.992C414.42 149.969 414.254 149.994 414.106 150.066C413.958 150.137 413.834 150.25 413.75 150.392L412.083 153.275C411.993 153.426 411.952 153.601 411.967 153.776C411.982 153.951 412.052 154.117 412.167 154.25L413.225 155.45C413.359 155.602 413.432 155.798 413.432 156C413.432 156.202 413.359 156.398 413.225 156.55L412.167 157.75C412.052 157.883 411.982 158.049 411.967 158.224C411.952 158.399 411.993 158.574 412.083 158.725L413.75 161.608C413.838 161.76 413.971 161.881 414.131 161.953C414.291 162.025 414.47 162.044 414.642 162.008L416.208 161.692C416.408 161.65 416.615 161.684 416.792 161.785C416.968 161.886 417.102 162.049 417.167 162.242L417.675 163.767C417.733 163.939 417.846 164.088 417.996 164.19C418.147 164.293 418.327 164.343 418.508 164.333H421.842C422.016 164.334 422.187 164.279 422.329 164.178C422.471 164.076 422.577 163.932 422.633 163.767L423.142 162.242C423.207 162.049 423.34 161.886 423.517 161.785C423.693 161.684 423.901 161.65 424.1 161.692L425.667 162.008C425.838 162.044 426.017 162.025 426.177 161.953C426.337 161.881 426.471 161.76 426.558 161.608L428.225 158.725C428.313 158.573 428.351 158.396 428.333 158.221C428.315 158.046 428.242 157.881 428.125 157.75L427 156.55ZM425.758 157.667L426.425 158.417L425.358 160.267L424.375 160.067C423.775 159.944 423.15 160.046 422.62 160.353C422.09 160.66 421.692 161.152 421.5 161.733L421.183 162.667H419.05L418.75 161.717C418.558 161.135 418.159 160.644 417.629 160.336C417.099 160.029 416.475 159.927 415.875 160.05L414.892 160.25L413.808 158.408L414.475 157.658C414.885 157.2 415.112 156.607 415.112 155.992C415.112 155.377 414.885 154.783 414.475 154.325L413.808 153.575L414.875 151.742L415.858 151.942C416.458 152.064 417.083 151.962 417.613 151.655C418.143 151.348 418.541 150.857 418.733 150.275L419.05 149.333H421.183L421.5 150.283C421.692 150.865 422.09 151.356 422.62 151.663C423.15 151.971 423.775 152.073 424.375 151.95L425.358 151.75L426.425 153.6L425.758 154.35C425.353 154.807 425.129 155.397 425.129 156.008C425.129 156.619 425.353 157.209 425.758 157.667ZM420.117 152.667C419.457 152.667 418.813 152.862 418.265 153.228C417.717 153.595 417.289 154.115 417.037 154.724C416.785 155.333 416.719 156.004 416.847 156.65C416.976 157.297 417.293 157.891 417.76 158.357C418.226 158.823 418.82 159.141 419.466 159.269C420.113 159.398 420.783 159.332 421.392 159.08C422.001 158.827 422.522 158.4 422.888 157.852C423.254 157.304 423.45 156.659 423.45 156C423.45 155.116 423.099 154.268 422.474 153.643C421.849 153.018 421.001 152.667 420.117 152.667ZM420.117 157.667C419.787 157.667 419.465 157.569 419.191 157.386C418.917 157.203 418.703 156.942 418.577 156.638C418.451 156.333 418.418 155.998 418.482 155.675C418.546 155.352 418.705 155.055 418.938 154.821C419.171 154.588 419.468 154.43 419.791 154.365C420.115 154.301 420.45 154.334 420.754 154.46C421.059 154.586 421.319 154.8 421.502 155.074C421.686 155.348 421.783 155.67 421.783 156C421.783 156.442 421.608 156.866 421.295 157.179C420.983 157.491 420.559 157.667 420.117 157.667Z" fill="#919191"/>
  </g>
  <defs>
    <filter id="filter0_d_52_4316" x="4" y="17" width="364" height="252" filterUnits="userSpaceOnUse" color-interpolation-filters="sRGB">
      <feFlood flood-opacity="0" result="BackgroundImageFix"/>
      <feColorMatrix in="SourceAlpha" type="matrix" values="0 0 0 0 0 0 0 0 0 0 0 0 0 0 0 0 0 0 127 0" result="hardAlpha"/>
      <feOffset dy="3"/>
      <feGaussianBlur stdDeviation="10"/>
      <feColorMatrix type="matrix" values="0 0 0 0 0 0 0 0 0 0 0 0 0 0 0 0 0 0 0.1 0"/>
      <feBlend mode="normal" in2="BackgroundImageFix" result="effect1_dropShadow_52_4316"/>
      <feBlend mode="normal" in="SourceGraphic" in2="effect1_dropShadow_52_4316" result="shape"/>
    </filter>
    <filter id="filter1_d_52_4316" x="274" y="1" width="132" height="132" filterUnits="userSpaceOnUse" color-interpolation-filters="sRGB">
      <feFlood flood-opacity="0" result="BackgroundImageFix"/>
      <feColorMatrix in="SourceAlpha" type="matrix" values="0 0 0 0 0 0 0 0 0 0 0 0 0 0 0 0 0 0 127 0" result="hardAlpha"/>
      <feOffset dy="5"/>
      <feGaussianBlur stdDeviation="6"/>
      <feColorMatrix type="matrix" values="0 0 0 0 0 0 0 0 0 0 0 0 0 0 0 0 0 0 0.12 0"/>
      <feBlend mode="normal" in2="BackgroundImageFix" result="effect1_dropShadow_52_4316"/>
      <feBlend mode="normal" in="SourceGraphic" in2="effect1_dropShadow_52_4316" result="shape"/>
    </filter>
    <filter id="filter2_d_52_4316" x="298" y="131" width="92" height="92" filterUnits="userSpaceOnUse" color-interpolation-filters="sRGB">
      <feFlood flood-opacity="0" result="BackgroundImageFix"/>
      <feColorMatrix in="SourceAlpha" type="matrix" values="0 0 0 0 0 0 0 0 0 0 0 0 0 0 0 0 0 0 127 0" result="hardAlpha"/>
      <feOffset dy="5"/>
      <feGaussianBlur stdDeviation="6"/>
      <feColorMatrix type="matrix" values="0 0 0 0 0 0 0 0 0 0 0 0 0 0 0 0 0 0 0.12 0"/>
      <feBlend mode="normal" in2="BackgroundImageFix" result="effect1_dropShadow_52_4316"/>
      <feBlend mode="normal" in="SourceGraphic" in2="effect1_dropShadow_52_4316" result="shape"/>
    </filter>
    <filter id="filter3_d_52_4316" x="388" y="129" width="64" height="64" filterUnits="userSpaceOnUse" color-interpolation-filters="sRGB">
      <feFlood flood-opacity="0" result="BackgroundImageFix"/>
      <feColorMatrix in="SourceAlpha" type="matrix" values="0 0 0 0 0 0 0 0 0 0 0 0 0 0 0 0 0 0 127 0" result="hardAlpha"/>
      <feOffset dy="5"/>
      <feGaussianBlur stdDeviation="6"/>
      <feColorMatrix type="matrix" values="0 0 0 0 0 0 0 0 0 0 0 0 0 0 0 0 0 0 0.12 0"/>
      <feBlend mode="normal" in2="BackgroundImageFix" result="effect1_dropShadow_52_4316"/>
      <feBlend mode="normal" in="SourceGraphic" in2="effect1_dropShadow_52_4316" result="shape"/>
    </filter>
  </defs>
</svg>
