<svg width="260" height="260" viewBox="0 0 260 260" fill="none" xmlns="http://www.w3.org/2000/svg">
  <rect x="40.5841" y="51.8106" width="50.7" height="50.7" rx="10.0595" fill="white" stroke="#474747" stroke-width="0.804762"/>
  <path fill-rule="evenodd" clip-rule="evenodd" d="M80.8715 62.0894C81.4321 62.6499 81.4321 63.5587 80.8715 64.1193L79.0158 65.975L82.3069 69.2662C82.8675 69.8267 82.8675 70.7355 82.3069 71.2961L77.2831 76.3198C76.7226 76.8804 75.8138 76.8804 75.2532 76.3198L71.9621 73.0287L68.02 76.9708C68.4613 77.5677 68.8308 78.2165 69.1196 78.904C69.5962 80.0384 69.8437 81.2559 69.8478 82.4864C69.852 83.7169 69.6126 84.936 69.1437 86.0736C68.6747 87.2112 67.9853 88.2448 67.1152 89.1149C66.2452 89.9849 65.2116 90.6743 64.074 91.1433C62.9364 91.6123 61.7172 91.8516 60.4868 91.8475C59.2563 91.8433 58.0388 91.5959 56.9044 91.1193C55.77 90.6427 54.741 89.9464 53.8768 89.0705L53.866 89.0596C52.1665 87.3 51.2262 84.9432 51.2474 82.4969C51.2687 80.0507 52.2499 77.7106 53.9797 75.9808C55.7096 74.251 58.0496 73.2697 60.4959 73.2485C62.4664 73.2314 64.3788 73.8382 65.9678 74.9632L78.8416 62.0894C79.4022 61.5288 80.311 61.5288 80.8715 62.0894ZM65.1037 77.9688C65.0904 77.9569 65.0772 77.9446 65.0642 77.932C63.846 76.7554 62.2144 76.1044 60.5208 76.1191C58.8272 76.1338 57.2072 76.8131 56.0096 78.0107C54.8121 79.2083 54.1328 80.8283 54.118 82.5219C54.1033 84.2129 54.7524 85.8421 55.9256 87.0597C56.5228 87.6635 57.2333 88.1437 58.0163 88.4726C58.8017 88.8026 59.6445 88.9739 60.4964 88.9768C61.3483 88.9796 62.1923 88.8139 62.9798 88.4893C63.7674 88.1646 64.483 87.6873 65.0853 87.085C65.6877 86.4826 66.165 85.767 66.4896 84.9795C66.8143 84.1919 66.98 83.3479 66.9771 82.496C66.9743 81.6442 66.8029 80.8013 66.473 80.0159C66.152 79.2519 65.6871 78.5569 65.1037 77.9688ZM73.992 70.9988L76.2682 73.275L79.262 70.2811L76.9859 68.0049L73.992 70.9988Z" fill="#3DCC85"/>
  <path d="M72.7549 178.544H26.0787C25.1898 178.544 24.4692 177.823 24.4692 176.934V140.72" stroke="#3DCC85" stroke-width="1.60952"/>
  <rect x="66.6304" y="115.28" width="152.98" height="107.211" rx="4.70224" fill="white" stroke="#474747" stroke-width="0.626966"/>
  <path d="M92.6494 195.845C92.4585 195.843 92.2715 195.899 92.1136 196.006C91.9557 196.113 91.8344 196.266 91.7661 196.445C91.6978 196.623 91.6858 196.818 91.7316 197.003C91.7774 197.189 91.8789 197.355 92.0224 197.481V198.353C92.0224 198.519 92.0885 198.678 92.2061 198.796C92.3236 198.914 92.4831 198.98 92.6494 198.98C92.8157 198.98 92.9751 198.914 93.0927 198.796C93.2103 198.678 93.2764 198.519 93.2764 198.353V197.481C93.4199 197.355 93.5214 197.189 93.5672 197.003C93.613 196.818 93.601 196.623 93.5327 196.445C93.4644 196.266 93.3431 196.113 93.1852 196.006C93.0273 195.899 92.8403 195.843 92.6494 195.845ZM95.7842 193.337V192.083C95.7842 191.252 95.4539 190.454 94.8661 189.866C94.2782 189.279 93.4808 188.948 92.6494 188.948C91.818 188.948 91.0206 189.279 90.4327 189.866C89.8448 190.454 89.5146 191.252 89.5146 192.083V193.337C89.0157 193.337 88.5373 193.535 88.1846 193.888C87.8318 194.241 87.6337 194.719 87.6337 195.218V199.607C87.6337 200.106 87.8318 200.584 88.1846 200.937C88.5373 201.289 89.0157 201.488 89.5146 201.488H95.7842C96.2831 201.488 96.7615 201.289 97.1142 200.937C97.467 200.584 97.6651 200.106 97.6651 199.607V195.218C97.6651 194.719 97.467 194.241 97.1142 193.888C96.7615 193.535 96.2831 193.337 95.7842 193.337ZM90.7685 192.083C90.7685 191.584 90.9667 191.106 91.3194 190.753C91.6721 190.4 92.1505 190.202 92.6494 190.202C93.1482 190.202 93.6267 190.4 93.9794 190.753C94.3321 191.106 94.5303 191.584 94.5303 192.083V193.337H90.7685V192.083ZM96.4112 199.607C96.4112 199.773 96.3451 199.932 96.2276 200.05C96.11 200.168 95.9505 200.234 95.7842 200.234H89.5146C89.3483 200.234 89.1888 200.168 89.0712 200.05C88.9537 199.932 88.8876 199.773 88.8876 199.607V195.218C88.8876 195.052 88.9537 194.892 89.0712 194.775C89.1888 194.657 89.3483 194.591 89.5146 194.591H95.7842C95.9505 194.591 96.11 194.657 96.2276 194.775C96.3451 194.892 96.4112 195.052 96.4112 195.218V199.607Z" fill="#474747"/>
  <circle cx="111.145" cy="195.218" r="4.07528" fill="#3DCC85"/>
  <circle cx="126.192" cy="195.218" r="4.07528" fill="#3DCC85"/>
  <circle cx="141.239" cy="195.218" r="4.07528" fill="#3DCC85"/>
  <circle cx="156.286" cy="195.218" r="4.07528" fill="#3DCC85"/>
  <circle cx="171.334" cy="195.218" r="4.07528" fill="#3DCC85"/>
  <circle cx="186.381" cy="195.218" r="4.07528" fill="#3DCC85"/>
  <rect x="75.4079" y="182.992" width="134.171" height="24.4517" rx="4.70224" stroke="#474747" stroke-width="0.626966"/>
  <path d="M76.678 140.014V132.946H77.9418V138.951H81.1795V140.014H76.678ZM84.2851 140.121C83.7528 140.121 83.294 140.01 82.9087 139.788C82.5234 139.563 82.2262 139.243 82.0173 138.828C81.8115 138.414 81.7087 137.917 81.7087 137.339V137.329C81.7087 136.758 81.8132 136.265 82.0221 135.85C82.2311 135.432 82.5267 135.112 82.9087 134.89C83.294 134.668 83.7528 134.557 84.2851 134.557C84.8174 134.557 85.2745 134.668 85.6566 134.89C86.0419 135.112 86.3391 135.431 86.5481 135.845C86.757 136.26 86.8615 136.755 86.8615 137.329V137.339C86.8615 137.917 86.757 138.414 86.5481 138.828C86.3423 139.243 86.0468 139.563 85.6615 139.788C85.2794 140.01 84.8206 140.121 84.2851 140.121ZM84.2851 139.132C84.5659 139.132 84.8043 139.062 85.0002 138.921C85.1994 138.778 85.3513 138.574 85.4558 138.309C85.5603 138.041 85.6125 137.72 85.6125 137.344V137.334C85.6125 136.956 85.5603 136.634 85.4558 136.369C85.3513 136.102 85.1994 135.898 85.0002 135.757C84.8043 135.613 84.5659 135.542 84.2851 135.542C84.0043 135.542 83.7643 135.613 83.5651 135.757C83.3659 135.898 83.214 136.102 83.1095 136.369C83.005 136.634 82.9528 136.956 82.9528 137.334V137.344C82.9528 137.72 83.005 138.041 83.1095 138.309C83.214 138.577 83.3642 138.781 83.5602 138.921C83.7594 139.062 84.001 139.132 84.2851 139.132ZM90.1876 141.895C89.7174 141.895 89.3108 141.833 88.9679 141.708C88.6283 141.584 88.3606 141.408 88.1646 141.179C87.9687 140.954 87.8495 140.691 87.8071 140.391L87.812 140.376H89.0267L89.0365 140.391C89.0757 140.561 89.1949 140.699 89.3941 140.807C89.5965 140.918 89.8676 140.974 90.2072 140.974C90.6252 140.974 90.9484 140.881 91.177 140.695C91.4089 140.508 91.5248 140.244 91.5248 139.901V138.872H91.4415C91.3403 139.065 91.208 139.228 91.0448 139.362C90.8848 139.496 90.7003 139.597 90.4913 139.666C90.2856 139.731 90.0586 139.764 89.8104 139.764C89.3598 139.764 88.9696 139.656 88.6398 139.441C88.31 139.222 88.0553 138.92 87.8757 138.534C87.6993 138.149 87.6112 137.703 87.6112 137.197V137.187C87.6112 136.671 87.701 136.218 87.8806 135.826C88.0602 135.434 88.3149 135.127 88.6447 134.905C88.9777 134.683 89.3745 134.572 89.8349 134.572C90.0831 134.572 90.31 134.611 90.5158 134.689C90.7248 134.768 90.9076 134.879 91.0644 135.022C91.2244 135.166 91.355 135.339 91.4562 135.542H91.5199V134.66H92.7395V139.881C92.7395 140.293 92.635 140.649 92.4261 140.949C92.2203 141.253 91.9264 141.486 91.5444 141.65C91.1623 141.813 90.7101 141.895 90.1876 141.895ZM90.1876 138.794C90.4684 138.794 90.7101 138.727 90.9125 138.593C91.115 138.456 91.2701 138.268 91.3778 138.03C91.4889 137.792 91.5444 137.514 91.5444 137.197V137.187C91.5444 136.871 91.4889 136.593 91.3778 136.355C91.2701 136.113 91.115 135.925 90.9125 135.791C90.7101 135.654 90.4684 135.586 90.1876 135.586C89.9035 135.586 89.6619 135.654 89.4627 135.791C89.2667 135.925 89.1165 136.113 89.012 136.355C88.9108 136.593 88.8602 136.871 88.8602 137.187V137.197C88.8602 137.511 88.9108 137.788 89.012 138.03C89.1165 138.268 89.2667 138.456 89.4627 138.593C89.6619 138.727 89.9035 138.794 90.1876 138.794ZM94.0475 140.014V134.66H95.2623V140.014H94.0475ZM94.6598 133.764C94.4606 133.764 94.2892 133.693 94.1455 133.553C94.0018 133.413 93.93 133.244 93.93 133.048C93.93 132.846 94.0018 132.676 94.1455 132.539C94.2892 132.399 94.4606 132.328 94.6598 132.328C94.859 132.328 95.0288 132.399 95.1692 132.539C95.3129 132.676 95.3847 132.846 95.3847 133.048C95.3847 133.244 95.3129 133.413 95.1692 133.553C95.0288 133.693 94.859 133.764 94.6598 133.764ZM96.5654 140.014V134.66H97.785V135.483H97.8683C97.9957 135.192 98.1883 134.965 98.4463 134.802C98.7043 134.639 99.0259 134.557 99.4112 134.557C100.009 134.557 100.466 134.73 100.783 135.076C101.099 135.422 101.258 135.914 101.258 136.551V140.014H100.038V136.835C100.038 136.417 99.95 136.103 99.7737 135.894C99.6006 135.685 99.3296 135.581 98.9606 135.581C98.719 135.581 98.51 135.635 98.3336 135.742C98.1573 135.85 98.0218 136.002 97.9271 136.198C97.8324 136.394 97.785 136.626 97.785 136.894V140.014H96.5654ZM107.077 140.038C106.463 140.038 106.021 139.926 105.75 139.7C105.479 139.475 105.343 139.106 105.343 138.593V135.605H104.511V134.66H105.343V133.347H106.583V134.66H107.709V135.605H106.583V138.304C106.583 138.569 106.638 138.763 106.749 138.887C106.863 139.008 107.046 139.068 107.298 139.068C107.386 139.068 107.458 139.067 107.513 139.063C107.572 139.057 107.637 139.05 107.709 139.044V139.984C107.624 140.001 107.526 140.014 107.415 140.023C107.307 140.033 107.195 140.038 107.077 140.038ZM110.991 140.121C110.459 140.121 110 140.01 109.615 139.788C109.229 139.563 108.932 139.243 108.723 138.828C108.518 138.414 108.415 137.917 108.415 137.339V137.329C108.415 136.758 108.519 136.265 108.728 135.85C108.937 135.432 109.233 135.112 109.615 134.89C110 134.668 110.459 134.557 110.991 134.557C111.523 134.557 111.981 134.668 112.363 134.89C112.748 135.112 113.045 135.431 113.254 135.845C113.463 136.26 113.568 136.755 113.568 137.329V137.339C113.568 137.917 113.463 138.414 113.254 138.828C113.048 139.243 112.753 139.563 112.367 139.788C111.985 140.01 111.527 140.121 110.991 140.121ZM110.991 139.132C111.272 139.132 111.51 139.062 111.706 138.921C111.905 138.778 112.057 138.574 112.162 138.309C112.266 138.041 112.319 137.72 112.319 137.344V137.334C112.319 136.956 112.266 136.634 112.162 136.369C112.057 136.102 111.905 135.898 111.706 135.757C111.51 135.613 111.272 135.542 110.991 135.542C110.71 135.542 110.47 135.613 110.271 135.757C110.072 135.898 109.92 136.102 109.816 136.369C109.711 136.634 109.659 136.956 109.659 137.334V137.344C109.659 137.72 109.711 138.041 109.816 138.309C109.92 138.577 110.07 138.781 110.266 138.921C110.465 139.062 110.707 139.132 110.991 139.132ZM116.668 140.014L119.176 132.946H120.225V134.258H119.847L117.991 140.014H116.668ZM117.932 138.187L118.26 137.212H121.503L121.831 138.187H117.932ZM121.787 140.014L119.931 134.258V132.946H120.597L123.11 140.014H121.787ZM123.996 141.792V134.66H125.216V135.498H125.299C125.397 135.305 125.525 135.14 125.681 135.003C125.841 134.866 126.026 134.76 126.235 134.684C126.444 134.609 126.674 134.572 126.925 134.572C127.373 134.572 127.76 134.684 128.086 134.91C128.416 135.135 128.671 135.455 128.85 135.87C129.033 136.281 129.125 136.769 129.125 137.334V137.344C129.125 137.912 129.035 138.402 128.855 138.814C128.676 139.225 128.421 139.543 128.091 139.769C127.765 139.991 127.376 140.102 126.925 140.102C126.681 140.102 126.452 140.064 126.24 139.989C126.027 139.911 125.841 139.801 125.681 139.661C125.521 139.521 125.394 139.354 125.299 139.161H125.216V141.792H123.996ZM126.543 139.073C126.821 139.073 127.059 139.005 127.259 138.868C127.458 138.727 127.611 138.528 127.719 138.27C127.827 138.009 127.881 137.7 127.881 137.344V137.334C127.881 136.972 127.827 136.662 127.719 136.404C127.611 136.146 127.458 135.948 127.259 135.811C127.059 135.671 126.821 135.6 126.543 135.6C126.266 135.6 126.026 135.671 125.823 135.811C125.624 135.948 125.469 136.146 125.358 136.404C125.25 136.662 125.196 136.97 125.196 137.329V137.339C125.196 137.698 125.25 138.009 125.358 138.27C125.469 138.528 125.626 138.727 125.828 138.868C126.031 139.005 126.269 139.073 126.543 139.073ZM132.465 140.121C131.933 140.121 131.474 140.01 131.089 139.788C130.704 139.563 130.407 139.243 130.198 138.828C129.992 138.414 129.889 137.917 129.889 137.339V137.329C129.889 136.758 129.994 136.265 130.203 135.85C130.411 135.432 130.707 135.112 131.089 134.89C131.474 134.668 131.933 134.557 132.465 134.557C132.998 134.557 133.455 134.668 133.837 134.89C134.222 135.112 134.519 135.431 134.728 135.845C134.937 136.26 135.042 136.755 135.042 137.329V137.339C135.042 137.917 134.937 138.414 134.728 138.828C134.523 139.243 134.227 139.563 133.842 139.788C133.46 140.01 133.001 140.121 132.465 140.121ZM132.465 139.132C132.746 139.132 132.985 139.062 133.181 138.921C133.38 138.778 133.532 138.574 133.636 138.309C133.741 138.041 133.793 137.72 133.793 137.344V137.334C133.793 136.956 133.741 136.634 133.636 136.369C133.532 136.102 133.38 135.898 133.181 135.757C132.985 135.613 132.746 135.542 132.465 135.542C132.185 135.542 131.945 135.613 131.745 135.757C131.546 135.898 131.394 136.102 131.29 136.369C131.185 136.634 131.133 136.956 131.133 137.334V137.344C131.133 137.72 131.185 138.041 131.29 138.309C131.394 138.577 131.545 138.781 131.741 138.921C131.94 139.062 132.181 139.132 132.465 139.132ZM136.115 140.014V132.588H137.334V140.014H136.115ZM138.716 140.014V132.588H139.936V140.014H138.716ZM143.58 140.121C143.048 140.121 142.589 140.01 142.204 139.788C141.818 139.563 141.521 139.243 141.312 138.828C141.106 138.414 141.004 137.917 141.004 137.339V137.329C141.004 136.758 141.108 136.265 141.317 135.85C141.526 135.432 141.822 135.112 142.204 134.89C142.589 134.668 143.048 134.557 143.58 134.557C144.112 134.557 144.569 134.668 144.951 134.89C145.337 135.112 145.634 135.431 145.843 135.845C146.052 136.26 146.156 136.755 146.156 137.329V137.339C146.156 137.917 146.052 138.414 145.843 138.828C145.637 139.243 145.342 139.563 144.956 139.788C144.574 140.01 144.116 140.121 143.58 140.121ZM143.58 139.132C143.861 139.132 144.099 139.062 144.295 138.921C144.494 138.778 144.646 138.574 144.751 138.309C144.855 138.041 144.907 137.72 144.907 137.344V137.334C144.907 136.956 144.855 136.634 144.751 136.369C144.646 136.102 144.494 135.898 144.295 135.757C144.099 135.613 143.861 135.542 143.58 135.542C143.299 135.542 143.059 135.613 142.86 135.757C142.661 135.898 142.509 136.102 142.404 136.369C142.3 136.634 142.248 136.956 142.248 137.334V137.344C142.248 137.72 142.3 138.041 142.404 138.309C142.509 138.577 142.659 138.781 142.855 138.921C143.054 139.062 143.296 139.132 143.58 139.132Z" fill="black"/>
  <path d="M94.9776 163.688C95.5953 163.205 96.0462 162.542 96.2675 161.792C96.4888 161.042 96.4695 160.242 96.2124 159.503C95.9552 158.765 95.473 158.124 94.8327 157.671C94.1925 157.217 93.426 156.974 92.6401 156.974C91.8541 156.974 91.0877 157.217 90.4474 157.671C89.8072 158.124 89.3249 158.765 89.0678 159.503C88.8106 160.242 88.7913 161.042 89.0127 161.792C89.234 162.542 89.6848 163.205 90.3025 163.688C89.2441 164.11 88.3206 164.809 87.6304 165.712C86.9402 166.615 86.5093 167.687 86.3836 168.814C86.3745 168.896 86.3817 168.979 86.405 169.059C86.4283 169.138 86.467 169.212 86.5191 169.277C86.6243 169.407 86.7772 169.491 86.9443 169.509C87.1114 169.527 87.279 169.479 87.4101 169.374C87.5413 169.27 87.6253 169.118 87.6437 168.951C87.782 167.727 88.3693 166.595 89.2933 165.774C90.2173 164.952 91.4133 164.498 92.6527 164.498C93.8921 164.498 95.088 164.952 96.012 165.774C96.936 166.595 97.5233 167.727 97.6617 168.951C97.6788 169.105 97.7527 169.248 97.869 169.351C97.9854 169.454 98.136 169.51 98.2917 169.509H98.361C98.5262 169.49 98.6771 169.407 98.781 169.278C98.8849 169.149 98.9332 168.984 98.9155 168.82C98.7892 167.69 98.3559 166.615 97.6622 165.711C96.9685 164.807 96.0405 164.108 94.9776 163.688ZM92.6401 163.243C92.1416 163.243 91.6544 163.096 91.2399 162.821C90.8254 162.545 90.5024 162.154 90.3117 161.696C90.1209 161.238 90.071 160.734 90.1683 160.248C90.2655 159.762 90.5055 159.315 90.858 158.964C91.2105 158.614 91.6595 158.375 92.1484 158.278C92.6373 158.182 93.144 158.231 93.6045 158.421C94.065 158.611 94.4587 158.932 94.7356 159.344C95.0125 159.756 95.1603 160.241 95.1603 160.737C95.1603 161.401 94.8948 162.039 94.4222 162.509C93.9495 162.979 93.3085 163.243 92.6401 163.243Z" fill="#474747"/>
  <rect x="107.07" y="158.228" width="92.164" height="10.0315" rx="4.38876" fill="#E3E3E5"/>
  <rect x="75.4079" y="151.018" width="134.171" height="24.4517" rx="4.70224" stroke="#474747" stroke-width="0.626966"/>
  <rect x="3.94779" y="90.4219" width="50.7" height="50.7" rx="10.0595" fill="white" stroke="#474747" stroke-width="0.804762"/>
  <path d="M30.0144 122.469L29.778 122.271C29.6901 122.208 29.5947 122.158 29.4943 122.122L29.2106 121.989C28.955 121.933 28.6902 121.945 28.4398 122.023C28.1895 122.101 27.9615 122.243 27.7765 122.436C27.6372 122.597 27.5253 122.782 27.4455 122.982C27.3262 123.284 27.2946 123.616 27.3545 123.936C27.4144 124.256 27.5633 124.551 27.7823 124.783C28.0013 125.014 28.2807 125.173 28.5854 125.238C28.89 125.304 29.2062 125.273 29.4943 125.15C29.6826 125.054 29.8576 124.932 30.0144 124.786C30.233 124.553 30.3812 124.258 30.4401 123.937C30.499 123.616 30.466 123.284 30.3453 122.982C30.2667 122.791 30.1545 122.617 30.0144 122.469ZM35.1994 98.8223H22.5914C21.3375 98.8223 20.1349 99.3453 19.2483 100.276C18.3616 101.207 17.8635 102.47 17.8635 103.787V126.954C17.8635 128.27 18.3616 129.533 19.2483 130.464C20.1349 131.395 21.3375 131.918 22.5914 131.918H35.1994C36.4533 131.918 37.6559 131.395 38.5426 130.464C39.4292 129.533 39.9274 128.27 39.9274 126.954V103.787C39.9274 102.47 39.4292 101.207 38.5426 100.276C37.6559 99.3453 36.4533 98.8223 35.1994 98.8223ZM36.7754 126.954C36.7754 127.393 36.6093 127.814 36.3138 128.124C36.0182 128.434 35.6174 128.609 35.1994 128.609H22.5914C22.1735 128.609 21.7726 128.434 21.477 128.124C21.1815 127.814 21.0154 127.393 21.0154 126.954V103.787C21.0154 103.348 21.1815 102.927 21.477 102.617C21.7726 102.306 22.1735 102.132 22.5914 102.132H35.1994C35.6174 102.132 36.0182 102.306 36.3138 102.617C36.6093 102.927 36.7754 103.348 36.7754 103.787V126.954Z" fill="#3DCC85"/>
  <g clip-path="url(#clip0_449_9358)">
    <path fill-rule="evenodd" clip-rule="evenodd" d="M183.09 67.8779L191.176 74.6964L191.948 73.7822L183.862 66.9636C183.609 66.7506 183.232 66.7826 183.018 67.0351C182.805 67.2875 182.837 67.6649 183.09 67.8779Z" fill="#332603"/>
    <path fill-rule="evenodd" clip-rule="evenodd" d="M193.466 59.7822L197.058 69.7273L198.184 69.3213L194.592 59.3761C194.48 59.0654 194.137 58.9044 193.826 59.0166C193.515 59.1287 193.354 59.4715 193.466 59.7822Z" fill="#332603"/>
    <path fill-rule="evenodd" clip-rule="evenodd" d="M178.206 84.4707L188.749 83.5781L188.648 82.3862L178.105 83.2788C177.775 83.3067 177.531 83.5961 177.559 83.9252C177.587 84.2544 177.876 84.4986 178.206 84.4707Z" fill="#332603"/>
    <path fill-rule="evenodd" clip-rule="evenodd" d="M211.354 76.6216C204.965 76.6216 199.786 81.801 199.786 88.1901V88.6799C199.786 90.6535 198.186 92.2534 196.212 92.2534C194.239 92.2534 192.639 90.6535 192.639 88.6799V88.1901C192.639 77.8538 201.018 69.4746 211.354 69.4746C221.69 69.4746 230.07 77.8538 230.07 88.1901V100.11H222.923V88.1901C222.923 81.801 217.743 76.6216 211.354 76.6216Z" fill="#332603"/>
    <path fill-rule="evenodd" clip-rule="evenodd" d="M211.354 76.6216C217.743 76.6216 222.922 81.801 222.922 88.1901V88.6799C222.922 90.6535 224.522 92.2534 226.496 92.2534C228.469 92.2534 230.069 90.6535 230.069 88.6799V88.1901C230.069 77.8538 221.69 69.4746 211.354 69.4746C201.017 69.4746 192.638 77.8538 192.638 88.1901V100.11H199.785V88.1901C199.785 81.801 204.964 76.6216 211.354 76.6216Z" fill="#332603"/>
    <path d="M186.547 100.69C186.547 98.5902 188.249 96.8877 190.35 96.8877H232.359C234.459 96.8877 236.161 98.5902 236.161 100.69V117.184C236.161 130.885 225.055 141.992 211.354 141.992C197.654 141.992 186.547 130.885 186.547 117.184V100.69Z" fill="#FECF40"/>
    <path fill-rule="evenodd" clip-rule="evenodd" d="M213.525 116.622C215.47 115.765 216.831 113.791 216.831 111.494C216.831 108.409 214.379 105.909 211.354 105.909C208.329 105.909 205.877 108.409 205.877 111.494C205.877 113.792 207.239 115.766 209.184 116.622L207.703 122.662H215.006L213.525 116.622Z" fill="#332603"/>
    <g clip-path="url(#clip1_449_9358)">
      <path d="M256.905 133.469C256.905 142.729 249.398 150.235 240.139 150.235C230.879 150.235 223.373 142.729 223.373 133.469C223.373 124.209 230.879 116.703 240.139 116.703C249.398 116.703 256.905 124.209 256.905 133.469Z" fill="#3DCC85"/>
      <path d="M248.489 127.81C248.38 127.696 248.25 127.605 248.108 127.543C247.965 127.481 247.812 127.449 247.657 127.449C247.502 127.449 247.349 127.481 247.207 127.543C247.064 127.605 246.934 127.696 246.825 127.81L238.099 136.921L234.433 133.087C234.319 132.973 234.186 132.883 234.04 132.823C233.893 132.763 233.737 132.733 233.58 132.736C233.423 132.739 233.268 132.774 233.124 132.84C232.98 132.905 232.849 132.999 232.74 133.117C232.631 133.235 232.545 133.374 232.487 133.527C232.43 133.679 232.401 133.842 232.404 134.006C232.407 134.17 232.44 134.331 232.503 134.482C232.566 134.632 232.656 134.768 232.769 134.882L237.267 139.572C237.376 139.686 237.506 139.777 237.648 139.839C237.791 139.901 237.944 139.933 238.099 139.933C238.253 139.933 238.407 139.901 238.549 139.839C238.692 139.777 238.822 139.686 238.931 139.572L248.489 129.606C248.608 129.491 248.703 129.353 248.767 129.198C248.832 129.044 248.866 128.877 248.866 128.708C248.866 128.539 248.832 128.373 248.767 128.218C248.703 128.064 248.608 127.925 248.489 127.81Z" fill="white"/>
    </g>
  </g>
  <defs>
    <clipPath id="clip0_449_9358">
      <rect width="100.595" height="100.595" fill="white" transform="translate(156.45 49.7812)"/>
    </clipPath>
    <clipPath id="clip1_449_9358">
      <rect width="33.5318" height="33.5318" fill="white" transform="translate(223.373 116.703)"/>
    </clipPath>
  </defs>
</svg>
