<svg width="260" height="260" viewBox="0 0 260 260" fill="none" xmlns="http://www.w3.org/2000/svg">
  <circle cx="129.332" cy="129.705" r="118.549" stroke="#474747" stroke-width="0.699405"/>
  <circle cx="129.331" cy="129.705" r="89.8736" stroke="#474747" stroke-width="0.699405"/>
  <circle cx="129.331" cy="129.705" r="66.0938" stroke="#474747" stroke-width="0.699405"/>
  <circle cx="219.339" cy="128.002" r="7.69346" fill="#4089F8"/>
  <circle cx="53.7955" cy="177.964" r="7.69346" fill="#4089F8"/>
  <circle cx="90.1645" cy="240.91" r="5.94495" fill="white" stroke="#474747" stroke-width="0.699405"/>
  <circle cx="45.4028" cy="47.1745" r="5.94495" fill="white" stroke="#474747" stroke-width="0.699405"/>
  <circle cx="245.433" cy="159.779" r="5.94495" fill="white" stroke="#474747" stroke-width="0.699405"/>
  <circle cx="109.049" cy="39.4806" r="7.69346" fill="#4089F8"/>
  <rect x="155.431" y="194.447" width="77.5816" height="21.1395" rx="4.06529" fill="white"/>
  <path d="M170.337 205.559C170.172 205.557 170.011 205.606 169.874 205.699C169.738 205.791 169.633 205.924 169.574 206.078C169.515 206.232 169.504 206.4 169.544 206.561C169.583 206.721 169.671 206.865 169.795 206.974V207.727C169.795 207.871 169.852 208.009 169.954 208.111C170.056 208.212 170.194 208.269 170.337 208.269C170.481 208.269 170.619 208.212 170.721 208.111C170.822 208.009 170.879 207.871 170.879 207.727V206.974C171.003 206.865 171.091 206.721 171.131 206.561C171.17 206.4 171.16 206.232 171.101 206.078C171.042 205.924 170.937 205.791 170.8 205.699C170.664 205.606 170.502 205.557 170.337 205.559ZM173.047 203.391V202.307C173.047 201.588 172.762 200.899 172.254 200.39C171.745 199.882 171.056 199.597 170.337 199.597C169.619 199.597 168.929 199.882 168.421 200.39C167.913 200.899 167.627 201.588 167.627 202.307V203.391C167.196 203.391 166.782 203.562 166.477 203.867C166.172 204.172 166.001 204.586 166.001 205.017V208.811C166.001 209.243 166.172 209.656 166.477 209.961C166.782 210.266 167.196 210.437 167.627 210.437H173.047C173.479 210.437 173.892 210.266 174.197 209.961C174.502 209.656 174.674 209.243 174.674 208.811V205.017C174.674 204.586 174.502 204.172 174.197 203.867C173.892 203.562 173.479 203.391 173.047 203.391ZM168.711 202.307C168.711 201.876 168.882 201.462 169.187 201.157C169.492 200.852 169.906 200.681 170.337 200.681C170.769 200.681 171.182 200.852 171.487 201.157C171.792 201.462 171.963 201.876 171.963 202.307V203.391H168.711V202.307ZM173.59 208.811C173.59 208.955 173.532 209.093 173.431 209.195C173.329 209.296 173.191 209.353 173.047 209.353H167.627C167.483 209.353 167.345 209.296 167.244 209.195C167.142 209.093 167.085 208.955 167.085 208.811V205.017C167.085 204.873 167.142 204.735 167.244 204.634C167.345 204.532 167.483 204.475 167.627 204.475H173.047C173.191 204.475 173.329 204.532 173.431 204.634C173.532 204.735 173.59 204.873 173.59 205.017V208.811Z" fill="#4089F8"/>
  <circle cx="183.163" cy="205.016" r="3.52325" fill="#4089F8"/>
  <circle cx="195.805" cy="205.016" r="3.52325" fill="#4089F8"/>
  <circle cx="208.446" cy="205.016" r="3.52325" fill="#4089F8"/>
  <circle cx="221.088" cy="205.016" r="3.52325" fill="#4089F8"/>
  <rect x="155.431" y="194.447" width="77.5816" height="21.1395" rx="4.06529" stroke="#474747" stroke-width="0.542039"/>
  <rect x="182.305" y="39.8962" width="45.1004" height="47.1499" rx="4.58097" fill="white"/>
  <path d="M207.124 53.6584C207.726 53.1875 208.165 52.5418 208.381 51.8112C208.596 51.0805 208.577 50.3011 208.327 49.5815C208.076 48.8619 207.607 48.2379 206.983 47.7962C206.359 47.3545 205.612 47.1172 204.847 47.1172C204.081 47.1172 203.334 47.3545 202.711 47.7962C202.087 48.2379 201.617 48.8619 201.366 49.5815C201.116 50.3011 201.097 51.0805 201.313 51.8112C201.528 52.5418 201.968 53.1875 202.569 53.6584C201.538 54.0693 200.639 54.7507 199.966 55.6301C199.294 56.5095 198.874 57.5538 198.752 58.6518C198.743 58.732 198.75 58.8131 198.772 58.8905C198.795 58.968 198.833 59.0402 198.884 59.1031C198.986 59.2302 199.135 59.3116 199.298 59.3294C199.461 59.3472 199.624 59.3 199.752 59.1981C199.879 59.0962 199.961 58.948 199.979 58.7861C200.114 57.5928 200.686 56.4907 201.586 55.6904C202.486 54.8901 203.652 54.4477 204.859 54.4477C206.066 54.4477 207.231 54.8901 208.132 55.6904C209.032 56.4907 209.604 57.5928 209.739 58.7861C209.755 58.9361 209.827 59.0747 209.941 59.175C210.054 59.2753 210.201 59.3303 210.353 59.3294H210.42C210.581 59.311 210.728 59.2301 210.829 59.1043C210.93 58.9785 210.977 58.8181 210.96 58.6579C210.837 57.5568 210.415 56.5098 209.739 55.629C209.063 54.7483 208.159 54.0671 207.124 53.6584ZM204.847 53.225C204.361 53.225 203.886 53.0818 203.483 52.8135C203.079 52.5452 202.764 52.1638 202.578 51.7176C202.392 51.2715 202.344 50.7805 202.439 50.3068C202.533 49.8332 202.767 49.3981 203.111 49.0566C203.454 48.7151 203.891 48.4826 204.368 48.3883C204.844 48.2941 205.338 48.3425 205.786 48.5273C206.235 48.7121 206.618 49.0251 206.888 49.4266C207.158 49.8282 207.302 50.3003 207.302 50.7832C207.302 51.4308 207.043 52.0519 206.583 52.5098C206.122 52.9677 205.498 53.225 204.847 53.225Z" fill="#4089F8"/>
  <rect x="188.305" y="66.8604" width="33.1012" height="5.51687" rx="2.75843" fill="#4089F8"/>
  <rect x="188.305" y="75.5293" width="33.1012" height="5.51687" rx="2.75843" fill="#4089F8"/>
  <rect x="182.305" y="39.8962" width="45.1004" height="47.1499" rx="4.58097" stroke="#474747" stroke-width="0.610796"/>
  <rect x="7.36184" y="91.271" width="76.3926" height="21.1395" rx="4.06529" fill="white"/>
  <path d="M19.1906 96.4199C18.0405 96.4199 16.9375 96.8768 16.1243 97.69C15.3111 98.5032 14.8542 99.6062 14.8542 100.756C14.8542 103.683 18.6756 106.99 18.8382 107.131C18.9364 107.215 19.0614 107.261 19.1906 107.261C19.3198 107.261 19.4447 107.215 19.5429 107.131C19.7326 106.99 23.5269 103.683 23.5269 100.756C23.5269 99.6062 23.07 98.5032 22.2568 97.69C21.4436 96.8768 20.3406 96.4199 19.1906 96.4199ZM19.1906 105.987C18.036 104.903 15.9383 102.567 15.9383 100.756C15.9383 99.8937 16.281 99.0665 16.8909 98.4566C17.5008 97.8466 18.328 97.504 19.1906 97.504C20.0531 97.504 20.8803 97.8466 21.4902 98.4566C22.1002 99.0665 22.4428 99.8937 22.4428 100.756C22.4428 102.567 20.3451 104.908 19.1906 105.987ZM19.1906 98.5881C18.7617 98.5881 18.3425 98.7152 17.986 98.9535C17.6294 99.1917 17.3515 99.5303 17.1874 99.9265C17.0233 100.323 16.9804 100.759 17.0641 101.179C17.1477 101.6 17.3542 101.986 17.6574 102.289C17.9607 102.593 18.347 102.799 18.7676 102.883C19.1882 102.966 19.6241 102.923 20.0203 102.759C20.4165 102.595 20.7551 102.317 20.9933 101.961C21.2316 101.604 21.3587 101.185 21.3587 100.756C21.3587 100.181 21.1303 99.6297 20.7237 99.2231C20.3171 98.8165 19.7656 98.5881 19.1906 98.5881ZM19.1906 101.84C18.9762 101.84 18.7666 101.777 18.5883 101.658C18.41 101.538 18.2711 101.369 18.189 101.171C18.107 100.973 18.0855 100.755 18.1273 100.545C18.1691 100.334 18.2724 100.141 18.424 99.9897C18.5756 99.8381 18.7688 99.7348 18.9791 99.693C19.1894 99.6512 19.4073 99.6726 19.6054 99.7547C19.8035 99.8367 19.9728 99.9757 20.0919 100.154C20.2111 100.332 20.2746 100.542 20.2746 100.756C20.2746 101.044 20.1604 101.319 19.9571 101.523C19.7538 101.726 19.4781 101.84 19.1906 101.84Z" fill="#4089F8"/>
  <rect x="28.4927" y="98.2949" width="49.9375" height="7.09091" rx="3.54545" fill="#4089F8"/>
  <rect x="7.36184" y="91.271" width="76.3926" height="21.1395" rx="4.06529" stroke="#474747" stroke-width="0.542039"/>
  <path d="M109.998 107.269C109.998 97.1273 118.219 88.9059 128.36 88.9059C138.502 88.9059 146.723 97.1273 146.723 107.269V124.035H109.998V107.269Z" stroke="black" stroke-width="5.85486"/>
  <path d="M99.3665 122.086C99.3665 119.646 101.345 117.668 103.785 117.668H152.596C155.036 117.668 157.015 119.646 157.015 122.086V141.251C157.015 157.17 144.11 170.075 128.191 170.075C112.271 170.075 99.3665 157.17 99.3665 141.251V122.086Z" fill="#FECF40"/>
  <path fill-rule="evenodd" clip-rule="evenodd" d="M130.713 140.597C132.973 139.601 134.554 137.308 134.554 134.638C134.554 131.054 131.705 128.149 128.19 128.149C124.676 128.149 121.827 131.054 121.827 134.638C121.827 137.308 123.409 139.602 125.669 140.597L123.948 147.615H132.433L130.713 140.597Z" fill="#332603"/>
</svg>
