<svg width="527" height="205" viewBox="0 0 527 205" fill="none" xmlns="http://www.w3.org/2000/svg">
<g filter="url(#filter0_d_63_3065)">
<path d="M9 10C9 7.23858 11.2386 5 14 5H512.354C515.115 5 517.354 7.23858 517.354 10V186.727C517.354 189.489 515.115 191.727 512.354 191.727H14C11.2386 191.727 9 189.489 9 186.727V10Z" fill="white"/>
<path d="M37.0327 21V29.7273H35.6265L31.5142 23.7827H31.4418V29.7273H29.8608V21H31.2756L35.3836 26.9489H35.4603V21H37.0327Z" fill="#1991EB"/>
<path d="M40.5707 29.8594C40.1559 29.8594 39.7824 29.7855 39.45 29.6378C39.1204 29.4872 38.8591 29.2656 38.6659 28.973C38.4755 28.6804 38.3804 28.3196 38.3804 27.8906C38.3804 27.5213 38.4486 27.2159 38.5849 26.9744C38.7213 26.733 38.9074 26.5398 39.1432 26.3949C39.379 26.25 39.6446 26.1406 39.94 26.0668C40.2383 25.9901 40.5466 25.9347 40.8647 25.9006C41.2483 25.8608 41.5593 25.8253 41.798 25.794C42.0366 25.7599 42.2099 25.7088 42.3179 25.6406C42.4287 25.5696 42.4841 25.4602 42.4841 25.3125V25.2869C42.4841 24.9659 42.3889 24.7173 42.1986 24.5412C42.0082 24.3651 41.7341 24.277 41.3761 24.277C40.9983 24.277 40.6986 24.3594 40.477 24.5241C40.2582 24.6889 40.1105 24.8835 40.0338 25.108L38.5934 24.9034C38.7071 24.5057 38.8946 24.1733 39.1559 23.9062C39.4173 23.6364 39.7369 23.4347 40.1147 23.3011C40.4926 23.1648 40.9102 23.0966 41.3676 23.0966C41.6829 23.0966 41.9968 23.1335 42.3093 23.2074C42.6218 23.2812 42.9074 23.4034 43.1659 23.5739C43.4244 23.7415 43.6318 23.9702 43.788 24.2599C43.9471 24.5497 44.0267 24.9119 44.0267 25.3466V29.7273H42.5437V28.8281H42.4926C42.3988 29.0099 42.2667 29.1804 42.0963 29.3395C41.9287 29.4957 41.717 29.6222 41.4613 29.7188C41.2085 29.8125 40.9116 29.8594 40.5707 29.8594ZM40.9713 28.7259C41.2809 28.7259 41.5494 28.6648 41.7767 28.5426C42.004 28.4176 42.1787 28.2528 42.3008 28.0483C42.4258 27.8438 42.4883 27.6207 42.4883 27.3793V26.608C42.44 26.6477 42.3576 26.6847 42.2412 26.7188C42.1275 26.7528 41.9997 26.7827 41.8576 26.8082C41.7156 26.8338 41.575 26.8565 41.4358 26.8764C41.2966 26.8963 41.1758 26.9134 41.0736 26.9276C40.8434 26.9588 40.6375 27.0099 40.4557 27.081C40.2738 27.152 40.1304 27.2514 40.0253 27.3793C39.9201 27.5043 39.8676 27.6662 39.8676 27.8651C39.8676 28.1491 39.9713 28.3636 40.1787 28.5085C40.3861 28.6534 40.6503 28.7259 40.9713 28.7259Z" fill="#1991EB"/>
<path d="M45.5778 29.7273V23.1818H47.0522V24.294H47.129C47.2653 23.919 47.4912 23.6264 47.8065 23.4162C48.1218 23.2031 48.4983 23.0966 48.9358 23.0966C49.3789 23.0966 49.7525 23.2045 50.0565 23.4205C50.3633 23.6335 50.5792 23.9247 50.7042 24.294H50.7724C50.9173 23.9304 51.1616 23.6406 51.5054 23.4247C51.852 23.206 52.2625 23.0966 52.7369 23.0966C53.3392 23.0966 53.8307 23.2869 54.2113 23.6676C54.592 24.0483 54.7824 24.6037 54.7824 25.3338V29.7273H53.2355V25.5724C53.2355 25.1662 53.1275 24.8693 52.9116 24.6818C52.6957 24.4915 52.4315 24.3963 52.119 24.3963C51.7468 24.3963 51.4557 24.5128 51.2454 24.7457C51.038 24.9759 50.9343 25.2756 50.9343 25.6449V29.7273H49.4216V25.5085C49.4216 25.1705 49.3193 24.9006 49.1147 24.6989C48.913 24.4972 48.6488 24.3963 48.3221 24.3963C48.1005 24.3963 47.8988 24.4531 47.717 24.5668C47.5352 24.6776 47.3903 24.8352 47.2824 25.0398C47.1744 25.2415 47.1204 25.4773 47.1204 25.7472V29.7273H45.5778Z" fill="#1991EB"/>
<path d="M59.2451 29.8551C58.5888 29.8551 58.0221 29.7188 57.5448 29.446C57.0704 29.1705 56.7053 28.7812 56.4496 28.2784C56.1939 27.7727 56.0661 27.1776 56.0661 26.4929C56.0661 25.8196 56.1939 25.2287 56.4496 24.7202C56.7081 24.2088 57.0689 23.8111 57.532 23.527C57.9951 23.2401 58.5391 23.0966 59.1641 23.0966C59.5675 23.0966 59.9482 23.1619 60.3062 23.2926C60.6669 23.4205 60.9851 23.6193 61.2607 23.8892C61.5391 24.1591 61.7579 24.5028 61.917 24.9205C62.076 25.3352 62.1556 25.8295 62.1556 26.4034V26.8764H56.7905V25.8366H60.6769C60.6741 25.5412 60.6101 25.2784 60.4851 25.0483C60.3601 24.8153 60.1854 24.6321 59.961 24.4986C59.7394 24.3651 59.4809 24.2983 59.1854 24.2983C58.8701 24.2983 58.5931 24.375 58.3544 24.5284C58.1158 24.679 57.9297 24.8778 57.7962 25.125C57.6655 25.3693 57.5988 25.6378 57.5959 25.9304V26.8381C57.5959 27.2187 57.6655 27.5455 57.8047 27.8182C57.9439 28.0881 58.1385 28.2955 58.3885 28.4403C58.6385 28.5824 58.9312 28.6534 59.2664 28.6534C59.4908 28.6534 59.6939 28.6222 59.8758 28.5597C60.0576 28.4943 60.2152 28.3991 60.3488 28.2741C60.4823 28.1491 60.5831 27.9943 60.6513 27.8097L62.0917 27.9716C62.0008 28.3523 61.8275 28.6847 61.5718 28.9688C61.3189 29.25 60.9951 29.4688 60.6002 29.625C60.2053 29.7784 59.7536 29.8551 59.2451 29.8551Z" fill="#1991EB"/>
<path d="M120.861 29.7273V21H124.134C124.804 21 125.367 21.125 125.821 21.375C126.278 21.625 126.624 21.9688 126.857 22.4062C127.092 22.8409 127.21 23.3352 127.21 23.8892C127.21 24.4489 127.092 24.946 126.857 25.3807C126.621 25.8153 126.273 26.1577 125.813 26.4077C125.352 26.6548 124.786 26.7784 124.112 26.7784H121.943V25.4787H123.899C124.291 25.4787 124.612 25.4105 124.862 25.2741C125.112 25.1378 125.297 24.9503 125.416 24.7116C125.538 24.473 125.599 24.1989 125.599 23.8892C125.599 23.5795 125.538 23.3068 125.416 23.071C125.297 22.8352 125.111 22.652 124.858 22.5213C124.608 22.3878 124.286 22.321 123.891 22.321H122.442V29.7273H120.861Z" fill="#1991EB"/>
<path d="M128.515 29.7273V23.1818H130.011V24.2727H130.079C130.199 23.8949 130.403 23.6037 130.693 23.3991C130.985 23.1918 131.319 23.0881 131.694 23.0881C131.78 23.0881 131.875 23.0923 131.98 23.1009C132.088 23.1065 132.177 23.1165 132.248 23.1307V24.5497C132.183 24.527 132.079 24.5071 131.937 24.4901C131.798 24.4702 131.663 24.4602 131.532 24.4602C131.251 24.4602 130.998 24.5213 130.774 24.6435C130.552 24.7628 130.378 24.929 130.25 25.142C130.122 25.3551 130.058 25.6009 130.058 25.8793V29.7273H128.515Z" fill="#1991EB"/>
<path d="M135.859 29.8551C135.22 29.8551 134.666 29.7145 134.197 29.4332C133.728 29.152 133.364 28.7585 133.106 28.2528C132.85 27.7472 132.722 27.1563 132.722 26.4801C132.722 25.804 132.85 25.2116 133.106 24.7031C133.364 24.1946 133.728 23.7997 134.197 23.5185C134.666 23.2372 135.22 23.0966 135.859 23.0966C136.498 23.0966 137.052 23.2372 137.521 23.5185C137.989 23.7997 138.352 24.1946 138.607 24.7031C138.866 25.2116 138.995 25.804 138.995 26.4801C138.995 27.1563 138.866 27.7472 138.607 28.2528C138.352 28.7585 137.989 29.152 137.521 29.4332C137.052 29.7145 136.498 29.8551 135.859 29.8551ZM135.867 28.6193C136.214 28.6193 136.504 28.5241 136.737 28.3338C136.97 28.1406 137.143 27.8821 137.256 27.5582C137.373 27.2344 137.431 26.8736 137.431 26.4759C137.431 26.0753 137.373 25.7131 137.256 25.3892C137.143 25.0625 136.97 24.8026 136.737 24.6094C136.504 24.4162 136.214 24.3196 135.867 24.3196C135.512 24.3196 135.217 24.4162 134.981 24.6094C134.748 24.8026 134.573 25.0625 134.457 25.3892C134.343 25.7131 134.286 26.0753 134.286 26.4759C134.286 26.8736 134.343 27.2344 134.457 27.5582C134.573 27.8821 134.748 28.1406 134.981 28.3338C135.217 28.5241 135.512 28.6193 135.867 28.6193Z" fill="#1991EB"/>
<path d="M143.151 32.3182C142.597 32.3182 142.121 32.2429 141.723 32.0923C141.326 31.9446 141.006 31.7457 140.765 31.4957C140.523 31.2457 140.356 30.9688 140.262 30.6648L141.651 30.3281C141.713 30.456 141.804 30.5824 141.924 30.7074C142.043 30.8352 142.204 30.9403 142.405 31.0227C142.61 31.108 142.867 31.1506 143.177 31.1506C143.614 31.1506 143.976 31.044 144.263 30.831C144.55 30.6207 144.694 30.2741 144.694 29.7912V28.5511H144.617C144.537 28.7102 144.421 28.8736 144.267 29.0412C144.117 29.2088 143.917 29.3494 143.667 29.4631C143.419 29.5767 143.108 29.6335 142.733 29.6335C142.231 29.6335 141.775 29.5156 141.365 29.2798C140.959 29.0412 140.635 28.6861 140.394 28.2145C140.155 27.7401 140.036 27.1463 140.036 26.4332C140.036 25.7145 140.155 25.108 140.394 24.6136C140.635 24.1165 140.961 23.7401 141.37 23.4844C141.779 23.2259 142.235 23.0966 142.738 23.0966C143.121 23.0966 143.436 23.1619 143.684 23.2926C143.934 23.4205 144.133 23.5753 144.28 23.7571C144.428 23.9361 144.54 24.1051 144.617 24.2642H144.702V23.1818H146.223V29.8338C146.223 30.3935 146.09 30.8565 145.823 31.223C145.556 31.5895 145.191 31.8636 144.728 32.0455C144.265 32.2273 143.739 32.3182 143.151 32.3182ZM143.164 28.4233C143.49 28.4233 143.769 28.3437 143.999 28.1847C144.229 28.0256 144.404 27.7969 144.523 27.4986C144.642 27.2003 144.702 26.8423 144.702 26.4247C144.702 26.0128 144.642 25.652 144.523 25.3423C144.407 25.0327 144.233 24.7926 144.003 24.6222C143.776 24.4489 143.496 24.3622 143.164 24.3622C142.82 24.3622 142.533 24.4517 142.303 24.6307C142.073 24.8097 141.9 25.0554 141.783 25.3679C141.667 25.6776 141.608 26.0298 141.608 26.4247C141.608 26.8253 141.667 27.1761 141.783 27.4773C141.902 27.7756 142.077 28.0085 142.307 28.1761C142.54 28.3409 142.826 28.4233 143.164 28.4233Z" fill="#1991EB"/>
<path d="M147.804 29.7273V23.1818H149.3V24.2727H149.368C149.488 23.8949 149.692 23.6037 149.982 23.3991C150.275 23.1918 150.608 23.0881 150.983 23.0881C151.069 23.0881 151.164 23.0923 151.269 23.1009C151.377 23.1065 151.466 23.1165 151.537 23.1307V24.5497C151.472 24.527 151.368 24.5071 151.226 24.4901C151.087 24.4702 150.952 24.4602 150.821 24.4602C150.54 24.4602 150.287 24.5213 150.063 24.6435C149.841 24.7628 149.667 24.929 149.539 25.142C149.411 25.3551 149.347 25.6009 149.347 25.8793V29.7273H147.804Z" fill="#1991EB"/>
<path d="M155.19 29.8551C154.534 29.8551 153.967 29.7188 153.49 29.446C153.016 29.1705 152.651 28.7812 152.395 28.2784C152.139 27.7727 152.011 27.1776 152.011 26.4929C152.011 25.8196 152.139 25.2287 152.395 24.7202C152.653 24.2088 153.014 23.8111 153.477 23.527C153.94 23.2401 154.484 23.0966 155.109 23.0966C155.513 23.0966 155.894 23.1619 156.251 23.2926C156.612 23.4205 156.93 23.6193 157.206 23.8892C157.484 24.1591 157.703 24.5028 157.862 24.9205C158.021 25.3352 158.101 25.8295 158.101 26.4034V26.8764H152.736V25.8366H156.622C156.619 25.5412 156.555 25.2784 156.43 25.0483C156.305 24.8153 156.131 24.6321 155.906 24.4986C155.685 24.3651 155.426 24.2983 155.131 24.2983C154.815 24.2983 154.538 24.375 154.3 24.5284C154.061 24.679 153.875 24.8778 153.742 25.125C153.611 25.3693 153.544 25.6378 153.541 25.9304V26.8381C153.541 27.2187 153.611 27.5455 153.75 27.8182C153.889 28.0881 154.084 28.2955 154.334 28.4403C154.584 28.5824 154.876 28.6534 155.212 28.6534C155.436 28.6534 155.639 28.6222 155.821 28.5597C156.003 28.4943 156.161 28.3991 156.294 28.2741C156.428 28.1491 156.528 27.9943 156.597 27.8097L158.037 27.9716C157.946 28.3523 157.773 28.6847 157.517 28.9688C157.264 29.25 156.94 29.4688 156.546 29.625C156.151 29.7784 155.699 29.8551 155.19 29.8551Z" fill="#1991EB"/>
<path d="M164.579 24.9119L163.173 25.0653C163.133 24.9233 163.064 24.7898 162.964 24.6648C162.868 24.5398 162.737 24.4389 162.572 24.3622C162.407 24.2855 162.206 24.2472 161.967 24.2472C161.646 24.2472 161.376 24.3168 161.157 24.456C160.941 24.5952 160.835 24.7756 160.838 24.9972C160.835 25.1875 160.905 25.3423 161.047 25.4616C161.191 25.581 161.43 25.679 161.762 25.7557L162.879 25.9943C163.498 26.1278 163.958 26.3395 164.26 26.6293C164.564 26.919 164.717 27.2983 164.72 27.767C164.717 28.179 164.596 28.5426 164.358 28.858C164.122 29.1705 163.794 29.4148 163.373 29.5909C162.953 29.767 162.47 29.8551 161.924 29.8551C161.123 29.8551 160.478 29.6875 159.99 29.3523C159.501 29.0142 159.21 28.544 159.116 27.9418L160.62 27.7969C160.689 28.0923 160.833 28.3153 161.055 28.4659C161.277 28.6165 161.565 28.6918 161.92 28.6918C162.287 28.6918 162.581 28.6165 162.802 28.4659C163.027 28.3153 163.139 28.1293 163.139 27.9077C163.139 27.7202 163.066 27.5653 162.922 27.4432C162.78 27.321 162.558 27.2273 162.257 27.1619L161.14 26.9276C160.512 26.7969 160.048 26.5767 159.747 26.267C159.446 25.9545 159.297 25.5597 159.299 25.0824C159.297 24.679 159.406 24.3295 159.628 24.0341C159.852 23.7358 160.163 23.5057 160.561 23.3438C160.961 23.179 161.423 23.0966 161.946 23.0966C162.713 23.0966 163.316 23.2599 163.757 23.5866C164.2 23.9134 164.474 24.3551 164.579 24.9119Z" fill="#1991EB"/>
<path d="M171.165 24.9119L169.759 25.0653C169.719 24.9233 169.65 24.7898 169.55 24.6648C169.454 24.5398 169.323 24.4389 169.158 24.3622C168.993 24.2855 168.792 24.2472 168.553 24.2472C168.232 24.2472 167.962 24.3168 167.743 24.456C167.527 24.5952 167.421 24.7756 167.424 24.9972C167.421 25.1875 167.49 25.3423 167.633 25.4616C167.777 25.581 168.016 25.679 168.348 25.7557L169.465 25.9943C170.084 26.1278 170.544 26.3395 170.846 26.6293C171.15 26.919 171.303 27.2983 171.306 27.767C171.303 28.179 171.182 28.5426 170.944 28.858C170.708 29.1705 170.38 29.4148 169.959 29.5909C169.539 29.767 169.056 29.8551 168.51 29.8551C167.709 29.8551 167.064 29.6875 166.576 29.3523C166.087 29.0142 165.796 28.544 165.702 27.9418L167.206 27.7969C167.275 28.0923 167.419 28.3153 167.641 28.4659C167.863 28.6165 168.151 28.6918 168.506 28.6918C168.873 28.6918 169.167 28.6165 169.388 28.4659C169.613 28.3153 169.725 28.1293 169.725 27.9077C169.725 27.7202 169.652 27.5653 169.508 27.4432C169.365 27.321 169.144 27.2273 168.843 27.1619L167.726 26.9276C167.098 26.7969 166.634 26.5767 166.333 26.267C166.032 25.9545 165.883 25.5597 165.885 25.0824C165.883 24.679 165.992 24.3295 166.213 24.0341C166.438 23.7358 166.749 23.5057 167.147 23.3438C167.547 23.179 168.009 23.0966 168.532 23.0966C169.299 23.0966 169.902 23.2599 170.343 23.5866C170.786 23.9134 171.06 24.3551 171.165 24.9119Z" fill="#1991EB"/>
<path d="M305.477 22.3253V21H312.44V22.3253H309.743V29.7273H308.175V22.3253H305.477Z" fill="#1991EB"/>
<path d="M315.62 29.8551C314.981 29.8551 314.427 29.7145 313.958 29.4332C313.49 29.152 313.126 28.7585 312.868 28.2528C312.612 27.7472 312.484 27.1563 312.484 26.4801C312.484 25.804 312.612 25.2116 312.868 24.7031C313.126 24.1946 313.49 23.7997 313.958 23.5185C314.427 23.2372 314.981 23.0966 315.62 23.0966C316.26 23.0966 316.814 23.2372 317.282 23.5185C317.751 23.7997 318.113 24.1946 318.369 24.7031C318.628 25.2116 318.757 25.804 318.757 26.4801C318.757 27.1563 318.628 27.7472 318.369 28.2528C318.113 28.7585 317.751 29.152 317.282 29.4332C316.814 29.7145 316.26 29.8551 315.62 29.8551ZM315.629 28.6193C315.976 28.6193 316.265 28.5241 316.498 28.3338C316.731 28.1406 316.904 27.8821 317.018 27.5582C317.135 27.2344 317.193 26.8736 317.193 26.4759C317.193 26.0753 317.135 25.7131 317.018 25.3892C316.904 25.0625 316.731 24.8026 316.498 24.6094C316.265 24.4162 315.976 24.3196 315.629 24.3196C315.274 24.3196 314.978 24.4162 314.743 24.6094C314.51 24.8026 314.335 25.0625 314.218 25.3892C314.105 25.7131 314.048 26.0753 314.048 26.4759C314.048 26.8736 314.105 27.2344 314.218 27.5582C314.335 27.8821 314.51 28.1406 314.743 28.3338C314.978 28.5241 315.274 28.6193 315.629 28.6193Z" fill="#1991EB"/>
<path d="M323.335 23.1818V24.375H319.572V23.1818H323.335ZM320.501 21.6136H322.043V27.7585C322.043 27.9659 322.075 28.125 322.137 28.2358C322.202 28.3438 322.288 28.4176 322.393 28.4574C322.498 28.4972 322.614 28.517 322.742 28.517C322.839 28.517 322.927 28.5099 323.006 28.4957C323.089 28.4815 323.151 28.4688 323.194 28.4574L323.454 29.6634C323.371 29.6918 323.254 29.723 323.1 29.7571C322.95 29.7912 322.765 29.8111 322.546 29.8168C322.16 29.8281 321.812 29.7699 321.502 29.642C321.192 29.5114 320.947 29.3097 320.765 29.0369C320.586 28.7642 320.498 28.4233 320.501 28.0142V21.6136Z" fill="#1991EB"/>
<path d="M326.508 29.8594C326.093 29.8594 325.72 29.7855 325.387 29.6378C325.058 29.4872 324.797 29.2656 324.603 28.973C324.413 28.6804 324.318 28.3196 324.318 27.8906C324.318 27.5213 324.386 27.2159 324.522 26.9744C324.659 26.733 324.845 26.5398 325.081 26.3949C325.316 26.25 325.582 26.1406 325.878 26.0668C326.176 25.9901 326.484 25.9347 326.802 25.9006C327.186 25.8608 327.497 25.8253 327.735 25.794C327.974 25.7599 328.147 25.7088 328.255 25.6406C328.366 25.5696 328.422 25.4602 328.422 25.3125V25.2869C328.422 24.9659 328.326 24.7173 328.136 24.5412C327.946 24.3651 327.672 24.277 327.314 24.277C326.936 24.277 326.636 24.3594 326.414 24.5241C326.196 24.6889 326.048 24.8835 325.971 25.108L324.531 24.9034C324.645 24.5057 324.832 24.1733 325.093 23.9062C325.355 23.6364 325.674 23.4347 326.052 23.3011C326.43 23.1648 326.848 23.0966 327.305 23.0966C327.62 23.0966 327.934 23.1335 328.247 23.2074C328.559 23.2812 328.845 23.4034 329.103 23.5739C329.362 23.7415 329.569 23.9702 329.726 24.2599C329.885 24.5497 329.964 24.9119 329.964 25.3466V29.7273H328.481V28.8281H328.43C328.336 29.0099 328.204 29.1804 328.034 29.3395C327.866 29.4957 327.654 29.6222 327.399 29.7188C327.146 29.8125 326.849 29.8594 326.508 29.8594ZM326.909 28.7259C327.218 28.7259 327.487 28.6648 327.714 28.5426C327.941 28.4176 328.116 28.2528 328.238 28.0483C328.363 27.8438 328.426 27.6207 328.426 27.3793V26.608C328.378 26.6477 328.295 26.6847 328.179 26.7188C328.065 26.7528 327.937 26.7827 327.795 26.8082C327.653 26.8338 327.512 26.8565 327.373 26.8764C327.234 26.8963 327.113 26.9134 327.011 26.9276C326.781 26.9588 326.575 27.0099 326.393 27.081C326.211 27.152 326.068 27.2514 325.963 27.3793C325.858 27.5043 325.805 27.6662 325.805 27.8651C325.805 28.1491 325.909 28.3636 326.116 28.5085C326.324 28.6534 326.588 28.7259 326.909 28.7259Z" fill="#1991EB"/>
<path d="M333.058 21V29.7273H331.515V21H333.058Z" fill="#1991EB"/>
<path d="M337.689 29.7273V21H340.962C341.632 21 342.195 21.1165 342.649 21.3494C343.107 21.5824 343.452 21.9091 343.685 22.3295C343.92 22.7472 344.038 23.2344 344.038 23.7912C344.038 24.3509 343.919 24.8366 343.68 25.2486C343.445 25.6577 343.097 25.9744 342.636 26.1989C342.176 26.4205 341.611 26.5312 340.94 26.5312H338.609V25.2188H340.727C341.119 25.2188 341.44 25.1648 341.69 25.0568C341.94 24.946 342.125 24.7855 342.244 24.5753C342.367 24.3622 342.428 24.1009 342.428 23.7912C342.428 23.4815 342.367 23.2173 342.244 22.9986C342.122 22.777 341.936 22.6094 341.686 22.4957C341.436 22.3793 341.114 22.321 340.719 22.321H339.27V29.7273H337.689ZM342.197 25.7727L344.358 29.7273H342.594L340.472 25.7727H342.197Z" fill="#1991EB"/>
<path d="M348.229 29.8551C347.573 29.8551 347.006 29.7188 346.529 29.446C346.055 29.1705 345.69 28.7812 345.434 28.2784C345.178 27.7727 345.05 27.1776 345.05 26.4929C345.05 25.8196 345.178 25.2287 345.434 24.7202C345.692 24.2088 346.053 23.8111 346.516 23.527C346.979 23.2401 347.523 23.0966 348.148 23.0966C348.552 23.0966 348.933 23.1619 349.291 23.2926C349.651 23.4205 349.969 23.6193 350.245 23.8892C350.523 24.1591 350.742 24.5028 350.901 24.9205C351.06 25.3352 351.14 25.8295 351.14 26.4034V26.8764H345.775V25.8366H349.661C349.658 25.5412 349.594 25.2784 349.469 25.0483C349.344 24.8153 349.17 24.6321 348.945 24.4986C348.724 24.3651 348.465 24.2983 348.17 24.2983C347.854 24.2983 347.577 24.375 347.339 24.5284C347.1 24.679 346.914 24.8778 346.781 25.125C346.65 25.3693 346.583 25.6378 346.58 25.9304V26.8381C346.58 27.2187 346.65 27.5455 346.789 27.8182C346.928 28.0881 347.123 28.2955 347.373 28.4403C347.623 28.5824 347.916 28.6534 348.251 28.6534C348.475 28.6534 348.678 28.6222 348.86 28.5597C349.042 28.4943 349.2 28.3991 349.333 28.2741C349.467 28.1491 349.567 27.9943 349.636 27.8097L351.076 27.9716C350.985 28.3523 350.812 28.6847 350.556 28.9688C350.303 29.25 349.979 29.4688 349.585 29.625C349.19 29.7784 348.738 29.8551 348.229 29.8551Z" fill="#1991EB"/>
<path d="M355.3 29.8551C354.647 29.8551 354.086 29.7116 353.617 29.4247C353.151 29.1378 352.792 28.7415 352.539 28.2358C352.289 27.7273 352.164 27.142 352.164 26.4801C352.164 25.8153 352.292 25.2287 352.547 24.7202C352.803 24.2088 353.164 23.8111 353.63 23.527C354.098 23.2401 354.652 23.0966 355.292 23.0966C355.823 23.0966 356.293 23.1946 356.702 23.3906C357.114 23.5838 357.442 23.858 357.686 24.2131C357.931 24.5653 358.07 24.9773 358.104 25.4489H356.63C356.57 25.1335 356.428 24.8707 356.204 24.6605C355.982 24.4474 355.685 24.3409 355.313 24.3409C354.998 24.3409 354.721 24.4261 354.482 24.5966C354.243 24.7642 354.057 25.0057 353.924 25.321C353.793 25.6364 353.728 26.0142 353.728 26.4545C353.728 26.9006 353.793 27.2841 353.924 27.6051C354.054 27.9233 354.238 28.169 354.473 28.3423C354.712 28.5128 354.992 28.598 355.313 28.598C355.54 28.598 355.743 28.5554 355.922 28.4702C356.104 28.3821 356.256 28.2557 356.378 28.0909C356.5 27.9261 356.584 27.7259 356.63 27.4901H358.104C358.067 27.9531 357.931 28.3636 357.695 28.7216C357.459 29.0767 357.138 29.3551 356.732 29.5568C356.326 29.7557 355.848 29.8551 355.3 29.8551Z" fill="#1991EB"/>
<path d="M362.226 29.8551C361.587 29.8551 361.033 29.7145 360.564 29.4332C360.095 29.152 359.732 28.7585 359.473 28.2528C359.217 27.7472 359.09 27.1563 359.09 26.4801C359.09 25.804 359.217 25.2116 359.473 24.7031C359.732 24.1946 360.095 23.7997 360.564 23.5185C361.033 23.2372 361.587 23.0966 362.226 23.0966C362.865 23.0966 363.419 23.2372 363.888 23.5185C364.357 23.7997 364.719 24.1946 364.974 24.7031C365.233 25.2116 365.362 25.804 365.362 26.4801C365.362 27.1563 365.233 27.7472 364.974 28.2528C364.719 28.7585 364.357 29.152 363.888 29.4332C363.419 29.7145 362.865 29.8551 362.226 29.8551ZM362.234 28.6193C362.581 28.6193 362.871 28.5241 363.104 28.3338C363.337 28.1406 363.51 27.8821 363.624 27.5582C363.74 27.2344 363.798 26.8736 363.798 26.4759C363.798 26.0753 363.74 25.7131 363.624 25.3892C363.51 25.0625 363.337 24.8026 363.104 24.6094C362.871 24.4162 362.581 24.3196 362.234 24.3196C361.879 24.3196 361.584 24.4162 361.348 24.6094C361.115 24.8026 360.94 25.0625 360.824 25.3892C360.71 25.7131 360.653 26.0753 360.653 26.4759C360.653 26.8736 360.71 27.2344 360.824 27.5582C360.94 27.8821 361.115 28.1406 361.348 28.3338C361.584 28.5241 361.879 28.6193 362.234 28.6193Z" fill="#1991EB"/>
<path d="M366.672 29.7273V23.1818H368.167V24.2727H368.235C368.355 23.8949 368.559 23.6037 368.849 23.3991C369.142 23.1918 369.476 23.0881 369.851 23.0881C369.936 23.0881 370.031 23.0923 370.136 23.1009C370.244 23.1065 370.333 23.1165 370.404 23.1307V24.5497C370.339 24.527 370.235 24.5071 370.093 24.4901C369.954 24.4702 369.819 24.4602 369.689 24.4602C369.407 24.4602 369.154 24.5213 368.93 24.6435C368.708 24.7628 368.534 24.929 368.406 25.142C368.278 25.3551 368.214 25.6009 368.214 25.8793V29.7273H366.672Z" fill="#1991EB"/>
<path d="M373.589 29.8423C373.075 29.8423 372.614 29.7102 372.208 29.446C371.802 29.1818 371.481 28.7983 371.245 28.2955C371.009 27.7926 370.891 27.1818 370.891 26.4631C370.891 25.7358 371.011 25.1222 371.249 24.6222C371.491 24.1193 371.816 23.7401 372.225 23.4844C372.634 23.2259 373.09 23.0966 373.593 23.0966C373.977 23.0966 374.292 23.1619 374.539 23.2926C374.786 23.4205 374.982 23.5753 375.127 23.7571C375.272 23.9361 375.384 24.1051 375.464 24.2642H375.528V21H377.075V29.7273H375.558V28.696H375.464C375.384 28.8551 375.269 29.0241 375.119 29.2031C374.968 29.3793 374.769 29.5298 374.522 29.6548C374.275 29.7798 373.964 29.8423 373.589 29.8423ZM374.019 28.5767C374.346 28.5767 374.624 28.4886 374.854 28.3125C375.085 28.1335 375.259 27.8849 375.379 27.5668C375.498 27.2486 375.558 26.8778 375.558 26.4545C375.558 26.0313 375.498 25.6634 375.379 25.3509C375.262 25.0384 375.089 24.7955 374.859 24.6222C374.631 24.4489 374.352 24.3622 374.019 24.3622C373.675 24.3622 373.389 24.4517 373.158 24.6307C372.928 24.8097 372.755 25.0568 372.639 25.3722C372.522 25.6875 372.464 26.0483 372.464 26.4545C372.464 26.8636 372.522 27.2287 372.639 27.5497C372.758 27.8679 372.933 28.1193 373.163 28.304C373.396 28.4858 373.681 28.5767 374.019 28.5767Z" fill="#1991EB"/>
<path d="M383.892 24.9119L382.485 25.0653C382.446 24.9233 382.376 24.7898 382.277 24.6648C382.18 24.5398 382.049 24.4389 381.885 24.3622C381.72 24.2855 381.518 24.2472 381.279 24.2472C380.958 24.2472 380.689 24.3168 380.47 24.456C380.254 24.5952 380.147 24.7756 380.15 24.9972C380.147 25.1875 380.217 25.3423 380.359 25.4616C380.504 25.581 380.743 25.679 381.075 25.7557L382.191 25.9943C382.811 26.1278 383.271 26.3395 383.572 26.6293C383.876 26.919 384.03 27.2983 384.032 27.767C384.03 28.179 383.909 28.5426 383.67 28.858C383.434 29.1705 383.106 29.4148 382.686 29.5909C382.265 29.767 381.782 29.8551 381.237 29.8551C380.436 29.8551 379.791 29.6875 379.302 29.3523C378.814 29.0142 378.522 28.544 378.429 27.9418L379.933 27.7969C380.001 28.0923 380.146 28.3153 380.368 28.4659C380.589 28.6165 380.878 28.6918 381.233 28.6918C381.599 28.6918 381.893 28.6165 382.115 28.4659C382.339 28.3153 382.451 28.1293 382.451 27.9077C382.451 27.7202 382.379 27.5653 382.234 27.4432C382.092 27.321 381.87 27.2273 381.569 27.1619L380.453 26.9276C379.825 26.7969 379.36 26.5767 379.059 26.267C378.758 25.9545 378.609 25.5597 378.612 25.0824C378.609 24.679 378.718 24.3295 378.94 24.0341C379.164 23.7358 379.476 23.5057 379.873 23.3438C380.274 23.179 380.735 23.0966 381.258 23.0966C382.025 23.0966 382.629 23.2599 383.069 23.5866C383.512 23.9134 383.787 24.3551 383.892 24.9119Z" fill="#1991EB"/>
<path d="M430.362 21H431.943V26.7017C431.943 27.3267 431.795 27.8764 431.5 28.3509C431.207 28.8253 430.795 29.196 430.264 29.4631C429.733 29.7273 429.112 29.8594 428.402 29.8594C427.689 29.8594 427.067 29.7273 426.536 29.4631C426.004 29.196 425.592 28.8253 425.3 28.3509C425.007 27.8764 424.861 27.3267 424.861 26.7017V21H426.442V26.5696C426.442 26.9332 426.521 27.2571 426.68 27.5412C426.842 27.8253 427.07 28.0483 427.362 28.2102C427.655 28.3693 428.001 28.4489 428.402 28.4489C428.803 28.4489 429.149 28.3693 429.442 28.2102C429.737 28.0483 429.965 27.8253 430.124 27.5412C430.283 27.2571 430.362 26.9332 430.362 26.5696V21Z" fill="#1991EB"/>
<path d="M433.593 32.1818V23.1818H435.11V24.2642H435.2C435.28 24.1051 435.392 23.9361 435.537 23.7571C435.682 23.5753 435.878 23.4205 436.125 23.2926C436.372 23.1619 436.687 23.0966 437.071 23.0966C437.576 23.0966 438.032 23.2259 438.439 23.4844C438.848 23.7401 439.172 24.1193 439.41 24.6222C439.652 25.1222 439.772 25.7358 439.772 26.4631C439.772 27.1818 439.655 27.7926 439.419 28.2955C439.183 28.7983 438.862 29.1818 438.456 29.446C438.049 29.7102 437.589 29.8423 437.075 29.8423C436.7 29.8423 436.389 29.7798 436.142 29.6548C435.895 29.5298 435.696 29.3793 435.545 29.2031C435.397 29.0241 435.282 28.8551 435.2 28.696H435.136V32.1818H433.593ZM435.106 26.4545C435.106 26.8778 435.166 27.2486 435.285 27.5668C435.407 27.8849 435.582 28.1335 435.809 28.3125C436.039 28.4886 436.318 28.5767 436.645 28.5767C436.985 28.5767 437.271 28.4858 437.501 28.304C437.731 28.1193 437.905 27.8679 438.021 27.5497C438.14 27.2287 438.2 26.8636 438.2 26.4545C438.2 26.0483 438.142 25.6875 438.025 25.3722C437.909 25.0568 437.735 24.8097 437.505 24.6307C437.275 24.4517 436.988 24.3622 436.645 24.3622C436.315 24.3622 436.035 24.4489 435.805 24.6222C435.575 24.7955 435.4 25.0384 435.281 25.3509C435.164 25.6634 435.106 26.0313 435.106 26.4545Z" fill="#1991EB"/>
<path d="M442.636 21V29.7273H441.093V21H442.636Z" fill="#1991EB"/>
<path d="M447.077 29.8551C446.438 29.8551 445.884 29.7145 445.416 29.4332C444.947 29.152 444.583 28.7585 444.325 28.2528C444.069 27.7472 443.941 27.1563 443.941 26.4801C443.941 25.804 444.069 25.2116 444.325 24.7031C444.583 24.1946 444.947 23.7997 445.416 23.5185C445.884 23.2372 446.438 23.0966 447.077 23.0966C447.717 23.0966 448.271 23.2372 448.739 23.5185C449.208 23.7997 449.57 24.1946 449.826 24.7031C450.085 25.2116 450.214 25.804 450.214 26.4801C450.214 27.1563 450.085 27.7472 449.826 28.2528C449.57 28.7585 449.208 29.152 448.739 29.4332C448.271 29.7145 447.717 29.8551 447.077 29.8551ZM447.086 28.6193C447.433 28.6193 447.722 28.5241 447.955 28.3338C448.188 28.1406 448.362 27.8821 448.475 27.5582C448.592 27.2344 448.65 26.8736 448.65 26.4759C448.65 26.0753 448.592 25.7131 448.475 25.3892C448.362 25.0625 448.188 24.8026 447.955 24.6094C447.722 24.4162 447.433 24.3196 447.086 24.3196C446.731 24.3196 446.435 24.4162 446.2 24.6094C445.967 24.8026 445.792 25.0625 445.675 25.3892C445.562 25.7131 445.505 26.0753 445.505 26.4759C445.505 26.8736 445.562 27.2344 445.675 27.5582C445.792 27.8821 445.967 28.1406 446.2 28.3338C446.435 28.5241 446.731 28.6193 447.086 28.6193Z" fill="#1991EB"/>
<path d="M453.407 29.8594C452.992 29.8594 452.618 29.7855 452.286 29.6378C451.956 29.4872 451.695 29.2656 451.502 28.973C451.311 28.6804 451.216 28.3196 451.216 27.8906C451.216 27.5213 451.284 27.2159 451.421 26.9744C451.557 26.733 451.743 26.5398 451.979 26.3949C452.215 26.25 452.481 26.1406 452.776 26.0668C453.074 25.9901 453.383 25.9347 453.701 25.9006C454.084 25.8608 454.395 25.8253 454.634 25.794C454.873 25.7599 455.046 25.7088 455.154 25.6406C455.265 25.5696 455.32 25.4602 455.32 25.3125V25.2869C455.32 24.9659 455.225 24.7173 455.034 24.5412C454.844 24.3651 454.57 24.277 454.212 24.277C453.834 24.277 453.534 24.3594 453.313 24.5241C453.094 24.6889 452.946 24.8835 452.87 25.108L451.429 24.9034C451.543 24.5057 451.731 24.1733 451.992 23.9062C452.253 23.6364 452.573 23.4347 452.951 23.3011C453.329 23.1648 453.746 23.0966 454.204 23.0966C454.519 23.0966 454.833 23.1335 455.145 23.2074C455.458 23.2812 455.743 23.4034 456.002 23.5739C456.26 23.7415 456.468 23.9702 456.624 24.2599C456.783 24.5497 456.863 24.9119 456.863 25.3466V29.7273H455.38V28.8281H455.329C455.235 29.0099 455.103 29.1804 454.932 29.3395C454.765 29.4957 454.553 29.6222 454.297 29.7188C454.044 29.8125 453.748 29.8594 453.407 29.8594ZM453.807 28.7259C454.117 28.7259 454.385 28.6648 454.613 28.5426C454.84 28.4176 455.015 28.2528 455.137 28.0483C455.262 27.8438 455.324 27.6207 455.324 27.3793V26.608C455.276 26.6477 455.194 26.6847 455.077 26.7188C454.963 26.7528 454.836 26.7827 454.694 26.8082C454.552 26.8338 454.411 26.8565 454.272 26.8764C454.133 26.8963 454.012 26.9134 453.909 26.9276C453.679 26.9588 453.473 27.0099 453.292 27.081C453.11 27.152 452.966 27.2514 452.861 27.3793C452.756 27.5043 452.704 27.6662 452.704 27.8651C452.704 28.1491 452.807 28.3636 453.015 28.5085C453.222 28.6534 453.486 28.7259 453.807 28.7259Z" fill="#1991EB"/>
<path d="M460.843 29.8423C460.329 29.8423 459.868 29.7102 459.462 29.446C459.056 29.1818 458.735 28.7983 458.499 28.2955C458.263 27.7926 458.145 27.1818 458.145 26.4631C458.145 25.7358 458.265 25.1222 458.503 24.6222C458.745 24.1193 459.07 23.7401 459.479 23.4844C459.888 23.2259 460.344 23.0966 460.847 23.0966C461.231 23.0966 461.546 23.1619 461.793 23.2926C462.04 23.4205 462.236 23.5753 462.381 23.7571C462.526 23.9361 462.638 24.1051 462.718 24.2642H462.782V21H464.329V29.7273H462.811V28.696H462.718C462.638 28.8551 462.523 29.0241 462.373 29.2031C462.222 29.3793 462.023 29.5298 461.776 29.6548C461.529 29.7798 461.218 29.8423 460.843 29.8423ZM461.273 28.5767C461.6 28.5767 461.878 28.4886 462.108 28.3125C462.338 28.1335 462.513 27.8849 462.633 27.5668C462.752 27.2486 462.811 26.8778 462.811 26.4545C462.811 26.0313 462.752 25.6634 462.633 25.3509C462.516 25.0384 462.343 24.7955 462.113 24.6222C461.885 24.4489 461.606 24.3622 461.273 24.3622C460.929 24.3622 460.642 24.4517 460.412 24.6307C460.182 24.8097 460.009 25.0568 459.892 25.3722C459.776 25.6875 459.718 26.0483 459.718 26.4545C459.718 26.8636 459.776 27.2287 459.892 27.5497C460.012 27.8679 460.186 28.1193 460.417 28.304C460.65 28.4858 460.935 28.5767 461.273 28.5767Z" fill="#1991EB"/>
<path d="M468.87 29.8551C468.214 29.8551 467.647 29.7188 467.17 29.446C466.695 29.1705 466.33 28.7812 466.075 28.2784C465.819 27.7727 465.691 27.1776 465.691 26.4929C465.691 25.8196 465.819 25.2287 466.075 24.7202C466.333 24.2088 466.694 23.8111 467.157 23.527C467.62 23.2401 468.164 23.0966 468.789 23.0966C469.193 23.0966 469.573 23.1619 469.931 23.2926C470.292 23.4205 470.61 23.6193 470.886 23.8892C471.164 24.1591 471.383 24.5028 471.542 24.9205C471.701 25.3352 471.781 25.8295 471.781 26.4034V26.8764H466.416V25.8366H470.302C470.299 25.5412 470.235 25.2784 470.11 25.0483C469.985 24.8153 469.81 24.6321 469.586 24.4986C469.364 24.3651 469.106 24.2983 468.81 24.2983C468.495 24.2983 468.218 24.375 467.979 24.5284C467.741 24.679 467.555 24.8778 467.421 25.125C467.291 25.3693 467.224 25.6378 467.221 25.9304V26.8381C467.221 27.2187 467.291 27.5455 467.43 27.8182C467.569 28.0881 467.764 28.2955 468.014 28.4403C468.264 28.5824 468.556 28.6534 468.891 28.6534C469.116 28.6534 469.319 28.6222 469.501 28.5597C469.683 28.4943 469.84 28.3991 469.974 28.2741C470.107 28.1491 470.208 27.9943 470.276 27.8097L471.717 27.9716C471.626 28.3523 471.452 28.6847 471.197 28.9688C470.944 29.25 470.62 29.4688 470.225 29.625C469.83 29.7784 469.379 29.8551 468.87 29.8551Z" fill="#1991EB"/>
<path d="M475.515 29.8423C475 29.8423 474.54 29.7102 474.134 29.446C473.728 29.1818 473.407 28.7983 473.171 28.2955C472.935 27.7926 472.817 27.1818 472.817 26.4631C472.817 25.7358 472.936 25.1222 473.175 24.6222C473.417 24.1193 473.742 23.7401 474.151 23.4844C474.56 23.2259 475.016 23.0966 475.519 23.0966C475.902 23.0966 476.218 23.1619 476.465 23.2926C476.712 23.4205 476.908 23.5753 477.053 23.7571C477.198 23.9361 477.31 24.1051 477.39 24.2642H477.454V21H479V29.7273H477.483V28.696H477.39C477.31 28.8551 477.195 29.0241 477.044 29.2031C476.894 29.3793 476.695 29.5298 476.448 29.6548C476.201 29.7798 475.89 29.8423 475.515 29.8423ZM475.945 28.5767C476.272 28.5767 476.55 28.4886 476.78 28.3125C477.01 28.1335 477.185 27.8849 477.304 27.5668C477.424 27.2486 477.483 26.8778 477.483 26.4545C477.483 26.0313 477.424 25.6634 477.304 25.3509C477.188 25.0384 477.015 24.7955 476.784 24.6222C476.557 24.4489 476.277 24.3622 475.945 24.3622C475.601 24.3622 475.314 24.4517 475.084 24.6307C474.854 24.8097 474.681 25.0568 474.564 25.3722C474.448 25.6875 474.39 26.0483 474.39 26.4545C474.39 26.8636 474.448 27.2287 474.564 27.5497C474.684 27.8679 474.858 28.1193 475.088 28.304C475.321 28.4858 475.607 28.5767 475.945 28.5767Z" fill="#1991EB"/>
<path d="M483.689 29.7273V21H487.03C487.661 21 488.185 21.0994 488.602 21.2983C489.023 21.4943 489.337 21.7628 489.544 22.1037C489.754 22.4446 489.859 22.831 489.859 23.2628C489.859 23.6179 489.791 23.9219 489.655 24.1747C489.519 24.4247 489.335 24.6278 489.105 24.7841C488.875 24.9403 488.618 25.0526 488.334 25.1207V25.206C488.644 25.223 488.94 25.3182 489.224 25.4915C489.511 25.6619 489.746 25.9034 489.928 26.2159C490.109 26.5284 490.2 26.9063 490.2 27.3494C490.2 27.8011 490.091 28.2074 489.872 28.5682C489.653 28.9261 489.324 29.2088 488.884 29.4162C488.443 29.6236 487.889 29.7273 487.222 29.7273H483.689ZM485.27 28.4062H486.97C487.544 28.4062 487.957 28.2969 488.21 28.0781C488.466 27.8565 488.594 27.5724 488.594 27.2259C488.594 26.9673 488.53 26.7344 488.402 26.527C488.274 26.3168 488.092 26.152 487.857 26.0327C487.621 25.9105 487.34 25.8494 487.013 25.8494H485.27V28.4062ZM485.27 24.7116H486.834C487.107 24.7116 487.352 24.6619 487.571 24.5625C487.79 24.4602 487.962 24.3168 488.087 24.1321C488.215 23.9446 488.278 23.723 488.278 23.4673C488.278 23.1293 488.159 22.8509 487.921 22.6321C487.685 22.4134 487.334 22.304 486.868 22.304H485.27V24.7116Z" fill="#1991EB"/>
<path d="M492.466 32.1818C492.256 32.1818 492.061 32.1648 491.882 32.1307C491.706 32.0994 491.566 32.0625 491.461 32.0199L491.819 30.8182C492.043 30.8835 492.243 30.9148 492.419 30.9119C492.596 30.9091 492.75 30.8537 492.884 30.7457C493.02 30.6406 493.135 30.4645 493.229 30.2173L493.361 29.8636L490.988 23.1818H492.624L494.132 28.125H494.201L495.713 23.1818H497.354L494.733 30.5199C494.611 30.8665 494.449 31.1634 494.248 31.4105C494.046 31.6605 493.799 31.8509 493.506 31.9815C493.216 32.1151 492.87 32.1818 492.466 32.1818Z" fill="#1991EB"/>
<rect x="29" y="54.7273" width="58" height="8" rx="4" fill="#E8EEF4"/>
<rect x="120" y="54.7273" width="159" height="8" rx="4" fill="#02C797"/>
<path d="M305.903 62.7273V61.9602L308.784 58.8068C309.122 58.4375 309.4 58.1165 309.619 57.8437C309.838 57.5682 310 57.3097 310.105 57.0682C310.213 56.8239 310.267 56.5682 310.267 56.3011C310.267 55.9943 310.193 55.7287 310.045 55.5043C309.9 55.2798 309.702 55.1065 309.449 54.9844C309.196 54.8622 308.912 54.8011 308.597 54.8011C308.261 54.8011 307.969 54.8707 307.719 55.0099C307.472 55.1463 307.28 55.3381 307.143 55.5852C307.01 55.8324 306.943 56.1222 306.943 56.4545H305.937C305.937 55.9432 306.055 55.4943 306.291 55.1079C306.527 54.7216 306.848 54.4204 307.254 54.2045C307.663 53.9886 308.122 53.8807 308.631 53.8807C309.142 53.8807 309.595 53.9886 309.99 54.2045C310.385 54.4204 310.695 54.7116 310.919 55.0781C311.143 55.4446 311.256 55.8523 311.256 56.3011C311.256 56.6222 311.197 56.9361 311.081 57.2429C310.967 57.5469 310.768 57.8864 310.484 58.2614C310.203 58.6335 309.812 59.0881 309.312 59.625L307.352 61.7216V61.7898H311.409V62.7273H305.903Z" fill="#949FB1"/>
<path d="M315.896 62.8466C315.396 62.8466 314.946 62.7472 314.545 62.5483C314.145 62.3494 313.824 62.0767 313.582 61.7301C313.341 61.3835 313.209 60.9886 313.186 60.5454H314.209C314.248 60.9403 314.427 61.267 314.746 61.5256C315.067 61.7812 315.45 61.9091 315.896 61.9091C316.254 61.9091 316.572 61.8253 316.851 61.6577C317.132 61.4901 317.352 61.2599 317.511 60.9673C317.673 60.6719 317.754 60.3381 317.754 59.9659C317.754 59.5852 317.67 59.2457 317.503 58.9474C317.338 58.6463 317.111 58.4091 316.821 58.2358C316.531 58.0625 316.2 57.9744 315.828 57.9716C315.561 57.9687 315.287 58.0099 315.006 58.0952C314.724 58.1776 314.493 58.2841 314.311 58.4148L313.322 58.2954L313.851 54H318.385V54.9375H314.737L314.43 57.5114H314.481C314.66 57.3693 314.885 57.2514 315.155 57.1577C315.425 57.0639 315.706 57.017 315.998 57.017C316.533 57.017 317.008 57.1449 317.426 57.4006C317.847 57.6534 318.176 58 318.415 58.4403C318.656 58.8807 318.777 59.3835 318.777 59.9489C318.777 60.5057 318.652 61.0028 318.402 61.4403C318.155 61.875 317.814 62.2187 317.379 62.4716C316.945 62.7216 316.45 62.8466 315.896 62.8466Z" fill="#949FB1"/>
<circle cx="432" cy="59.7273" r="8" fill="#E8EEF4"/>
<rect x="29" y="81.7273" width="44" height="8" rx="4" fill="#E8EEF4"/>
<rect x="120" y="81.7273" width="159" height="8" rx="4" fill="#02C797"/>
<path d="M305.903 89.7273V88.9602L308.784 85.8068C309.122 85.4375 309.4 85.1165 309.619 84.8437C309.838 84.5682 310 84.3097 310.105 84.0682C310.213 83.8239 310.267 83.5682 310.267 83.3011C310.267 82.9943 310.193 82.7287 310.045 82.5043C309.9 82.2798 309.702 82.1065 309.449 81.9844C309.196 81.8622 308.912 81.8011 308.597 81.8011C308.261 81.8011 307.969 81.8707 307.719 82.0099C307.472 82.1463 307.28 82.3381 307.143 82.5852C307.01 82.8324 306.943 83.1222 306.943 83.4545H305.937C305.937 82.9432 306.055 82.4943 306.291 82.1079C306.527 81.7216 306.848 81.4204 307.254 81.2045C307.663 80.9886 308.122 80.8807 308.631 80.8807C309.142 80.8807 309.595 80.9886 309.99 81.2045C310.385 81.4204 310.695 81.7116 310.919 82.0781C311.143 82.4446 311.256 82.8523 311.256 83.3011C311.256 83.6222 311.197 83.9361 311.081 84.2429C310.967 84.5469 310.768 84.8864 310.484 85.2614C310.203 85.6335 309.812 86.0881 309.312 86.625L307.352 88.7216V88.7898H311.409V89.7273H305.903Z" fill="#949FB1"/>
<path d="M312.777 87.9375V87.0682L316.612 81H317.243V82.3466H316.817L313.919 86.9318V87H319.084V87.9375H312.777ZM316.885 89.7273V87.6733V87.2685V81H317.891V89.7273H316.885Z" fill="#949FB1"/>
<path d="M320.953 89.7273L324.857 82.0057V81.9375H320.357V81H325.948V81.9886L322.061 89.7273H320.953Z" fill="#949FB1"/>
<path d="M330.146 89.8466C329.646 89.8466 329.196 89.7472 328.795 89.5483C328.395 89.3494 328.074 89.0767 327.832 88.7301C327.591 88.3835 327.459 87.9886 327.436 87.5454H328.459C328.498 87.9403 328.677 88.267 328.996 88.5256C329.317 88.7812 329.7 88.9091 330.146 88.9091C330.504 88.9091 330.822 88.8253 331.101 88.6577C331.382 88.4901 331.602 88.2599 331.761 87.9673C331.923 87.6719 332.004 87.3381 332.004 86.9659C332.004 86.5852 331.92 86.2457 331.753 85.9474C331.588 85.6463 331.361 85.4091 331.071 85.2358C330.781 85.0625 330.45 84.9744 330.078 84.9716C329.811 84.9687 329.537 85.0099 329.256 85.0952C328.974 85.1776 328.743 85.2841 328.561 85.4148L327.572 85.2954L328.101 81H332.635V81.9375H328.987L328.68 84.5114H328.731C328.91 84.3693 329.135 84.2514 329.405 84.1577C329.675 84.0639 329.956 84.017 330.248 84.017C330.783 84.017 331.258 84.1449 331.676 84.4006C332.097 84.6534 332.426 85 332.665 85.4403C332.906 85.8807 333.027 86.3835 333.027 86.9489C333.027 87.5057 332.902 88.0028 332.652 88.4403C332.405 88.875 332.064 89.2187 331.629 89.4716C331.195 89.7216 330.7 89.8466 330.146 89.8466Z" fill="#949FB1"/>
<circle cx="432" cy="86.7273" r="8" fill="#E8EEF4"/>
<rect x="29" y="108.727" width="58" height="8" rx="4" fill="#E8EEF4"/>
<rect x="120" y="108.727" width="159" height="8" rx="4" fill="#02C797"/>
<path d="M308.631 116.847C308.131 116.847 307.68 116.747 307.28 116.548C306.879 116.349 306.558 116.077 306.317 115.73C306.075 115.384 305.943 114.989 305.92 114.545H306.943C306.983 114.94 307.162 115.267 307.48 115.526C307.801 115.781 308.185 115.909 308.631 115.909C308.989 115.909 309.307 115.825 309.585 115.658C309.866 115.49 310.087 115.26 310.246 114.967C310.408 114.672 310.489 114.338 310.489 113.966C310.489 113.585 310.405 113.246 310.237 112.947C310.072 112.646 309.845 112.409 309.555 112.236C309.266 112.062 308.935 111.974 308.562 111.972C308.295 111.969 308.021 112.01 307.74 112.095C307.459 112.178 307.227 112.284 307.045 112.415L306.057 112.295L306.585 108H311.119V108.938H307.472L307.165 111.511H307.216C307.395 111.369 307.619 111.251 307.889 111.158C308.159 111.064 308.44 111.017 308.733 111.017C309.267 111.017 309.743 111.145 310.16 111.401C310.581 111.653 310.91 112 311.149 112.44C311.391 112.881 311.511 113.384 311.511 113.949C311.511 114.506 311.386 115.003 311.136 115.44C310.889 115.875 310.548 116.219 310.114 116.472C309.679 116.722 309.185 116.847 308.631 116.847Z" fill="#949FB1"/>
<circle cx="432" cy="113.727" r="8" fill="#E8EEF4"/>
<rect x="29" y="135.727" width="48" height="8" rx="4" fill="#E8EEF4"/>
<rect x="120" y="135.727" width="159" height="8" rx="4" fill="#02C797"/>
<path d="M308.972 135V143.727H307.915V136.108H307.864L305.733 137.523V136.449L307.915 135H308.972Z" fill="#949FB1"/>
<path d="M311.277 141.937V141.068L315.112 135H315.743V136.347H315.317L312.419 140.932V141H317.584V141.937H311.277ZM315.385 143.727V141.673V141.268V135H316.391V143.727H315.385Z" fill="#949FB1"/>
<path d="M322.13 143.847C321.567 143.847 321.066 143.75 320.625 143.557C320.188 143.364 319.84 143.095 319.581 142.751C319.326 142.405 319.186 142.003 319.164 141.545H320.238C320.26 141.827 320.357 142.07 320.527 142.274C320.698 142.476 320.921 142.632 321.196 142.743C321.472 142.854 321.777 142.909 322.113 142.909C322.488 142.909 322.82 142.844 323.11 142.713C323.399 142.582 323.627 142.401 323.792 142.168C323.956 141.935 324.039 141.665 324.039 141.358C324.039 141.037 323.959 140.754 323.8 140.51C323.641 140.263 323.408 140.07 323.101 139.93C322.794 139.791 322.419 139.722 321.976 139.722H321.277V138.784H321.976C322.323 138.784 322.627 138.722 322.888 138.597C323.152 138.472 323.358 138.295 323.506 138.068C323.657 137.841 323.732 137.574 323.732 137.267C323.732 136.972 323.667 136.714 323.536 136.496C323.405 136.277 323.22 136.107 322.982 135.984C322.746 135.862 322.468 135.801 322.147 135.801C321.845 135.801 321.561 135.857 321.294 135.967C321.03 136.075 320.814 136.233 320.647 136.44C320.479 136.645 320.388 136.892 320.374 137.182H319.351C319.368 136.724 319.506 136.324 319.765 135.98C320.023 135.634 320.361 135.364 320.779 135.17C321.199 134.977 321.661 134.881 322.164 134.881C322.703 134.881 323.167 134.99 323.553 135.209C323.939 135.425 324.236 135.71 324.443 136.065C324.651 136.42 324.755 136.804 324.755 137.216C324.755 137.707 324.625 138.126 324.367 138.473C324.111 138.82 323.763 139.06 323.323 139.193V139.261C323.874 139.352 324.304 139.587 324.614 139.964C324.924 140.339 325.078 140.804 325.078 141.358C325.078 141.832 324.949 142.259 324.691 142.636C324.435 143.011 324.086 143.307 323.642 143.523C323.199 143.739 322.695 143.847 322.13 143.847Z" fill="#949FB1"/>
<circle cx="432" cy="140.727" r="8" fill="#E8EEF4"/>
<rect x="29" y="162.727" width="52" height="8" rx="4" fill="#E8EEF4"/>
<rect x="120" y="162.727" width="159" height="8" rx="4" fill="#02C797"/>
<path d="M308.972 162V170.727H307.915V163.108H307.864L305.733 164.523V163.449L307.915 162H308.972Z" fill="#949FB1"/>
<path d="M311.754 170.727L315.658 163.006V162.938H311.158V162H316.749V162.989L312.862 170.727H311.754Z" fill="#949FB1"/>
<path d="M318.844 170.727L322.747 163.006V162.938H318.247V162H323.838V162.989L319.952 170.727H318.844Z" fill="#949FB1"/>
<circle cx="432" cy="167.727" r="8" fill="#E8EEF4"/>
</g>
<defs>
<filter id="filter0_d_63_3065" x="0" y="0" width="526.354" height="204.727" filterUnits="userSpaceOnUse" color-interpolation-filters="sRGB">
<feFlood flood-opacity="0" result="BackgroundImageFix"/>
<feColorMatrix in="SourceAlpha" type="matrix" values="0 0 0 0 0 0 0 0 0 0 0 0 0 0 0 0 0 0 127 0" result="hardAlpha"/>
<feOffset dy="4"/>
<feGaussianBlur stdDeviation="4.5"/>
<feColorMatrix type="matrix" values="0 0 0 0 0 0 0 0 0 0 0 0 0 0 0 0 0 0 0.09 0"/>
<feBlend mode="normal" in2="BackgroundImageFix" result="effect1_dropShadow_63_3065"/>
<feBlend mode="normal" in="SourceGraphic" in2="effect1_dropShadow_63_3065" result="shape"/>
</filter>
</defs>
</svg>
