<svg width="372" height="231" viewBox="0 0 372 231" fill="none" xmlns="http://www.w3.org/2000/svg">
<g filter="url(#filter0_d_307_14511)">
<rect x="9" y="5" width="354" height="213" rx="5" fill="white"/>
</g>
<rect x="238" y="88" width="16" height="16" rx="2" fill="#E8EEF4"/>
<rect x="255" y="88" width="16" height="16" rx="2" fill="#E8EEF4"/>
<rect x="272" y="88" width="16" height="16" rx="2" fill="#E8EEF4"/>
<rect x="289" y="88" width="16" height="16" rx="2" fill="#E8EEF4"/>
<rect x="306" y="88" width="16" height="16" rx="2" fill="#E8EEF4"/>
<rect x="323" y="88" width="16" height="16" rx="2" fill="#E8EEF4"/>
<rect x="158" y="92" width="51" height="8" rx="4" fill="#E8EEF4"/>
<rect x="149" y="20.1567" width="46.0139" height="17.1594" rx="2.00795" fill="#F7F9FB"/>
<rect x="205.014" y="20.1567" width="46.0139" height="17.1594" rx="2.00795" fill="#F7F9FB"/>
<rect x="261.028" y="18" width="66.9446" height="21.4728" rx="2.53625" fill="#02C797"/>
<path fill-rule="evenodd" clip-rule="evenodd" d="M274.649 22.7965C274.927 22.7965 275.152 23.0219 275.152 23.3V28.1268L276.81 26.4687C277.007 26.2721 277.326 26.2721 277.522 26.4687C277.719 26.6654 277.719 26.9842 277.522 27.1808L275.005 29.6985C274.808 29.8951 274.489 29.8951 274.293 29.6985L271.775 27.1808C271.578 26.9842 271.578 26.6654 271.775 26.4687C271.972 26.2721 272.29 26.2721 272.487 26.4687L274.145 28.1268V23.3C274.145 23.0219 274.371 22.7965 274.649 22.7965ZM270.117 28.8389C270.395 28.8389 270.62 29.0643 270.62 29.3424V31.3566C270.62 31.4901 270.673 31.6182 270.768 31.7126C270.862 31.807 270.99 31.8601 271.124 31.8601H278.173C278.307 31.8601 278.435 31.807 278.529 31.7126C278.624 31.6182 278.677 31.4901 278.677 31.3566V29.3424C278.677 29.0643 278.902 28.8389 279.18 28.8389C279.458 28.8389 279.684 29.0643 279.684 29.3424V31.3566C279.684 31.7572 279.525 32.1414 279.241 32.4247C278.958 32.708 278.574 32.8672 278.173 32.8672H271.124C270.723 32.8672 270.339 32.708 270.056 32.4247C269.772 32.1414 269.613 31.7572 269.613 31.3566V29.3424C269.613 29.0643 269.839 28.8389 270.117 28.8389Z" fill="white"/>
<path d="M285.787 32.7323V25.3833H290.566V26.4993H287.118V28.4944H290.319V29.6104H287.118V31.6163H290.595V32.7323H285.787Z" fill="white"/>
<path d="M292.929 27.2205L294.042 29.2551L295.172 27.2205H296.546L294.885 29.9764L296.575 32.7323H295.208L294.042 30.7479L292.886 32.7323H291.508L293.188 29.9764L291.551 27.2205H292.929Z" fill="white"/>
<path d="M297.551 34.7992V27.2205H298.829V28.132H298.904C298.971 27.998 299.065 27.8557 299.187 27.705C299.309 27.5519 299.474 27.4215 299.683 27.3138C299.891 27.2038 300.156 27.1488 300.479 27.1488C300.905 27.1488 301.289 27.2576 301.631 27.4753C301.976 27.6906 302.248 28.01 302.449 28.4334C302.653 28.8544 302.754 29.3712 302.754 29.9836C302.754 30.5888 302.655 31.1032 302.456 31.5266C302.258 31.95 301.988 32.273 301.645 32.4954C301.303 32.7179 300.916 32.8292 300.483 32.8292C300.167 32.8292 299.905 32.7765 299.697 32.6713C299.489 32.566 299.321 32.4392 299.195 32.2909C299.07 32.1402 298.973 31.9979 298.904 31.8639H298.85V34.7992H297.551ZM298.825 29.9764C298.825 30.3329 298.875 30.645 298.976 30.913C299.079 31.1809 299.226 31.3902 299.417 31.5409C299.611 31.6893 299.845 31.7634 300.12 31.7634C300.407 31.7634 300.648 31.6869 300.842 31.5338C301.035 31.3783 301.181 31.1666 301.279 30.8986C301.38 30.6283 301.43 30.3209 301.43 29.9764C301.43 29.6343 301.381 29.3305 301.283 29.065C301.185 28.7994 301.039 28.5913 300.845 28.4406C300.651 28.2899 300.41 28.2145 300.12 28.2145C299.843 28.2145 299.607 28.2875 299.413 28.4334C299.22 28.5793 299.073 28.7839 298.972 29.047C298.874 29.3102 298.825 29.62 298.825 29.9764Z" fill="white"/>
<path d="M306.271 32.8399C305.733 32.8399 305.266 32.7215 304.871 32.4847C304.477 32.2478 304.17 31.9165 303.953 31.4907C303.737 31.0649 303.63 30.5673 303.63 29.9979C303.63 29.4286 303.737 28.9298 303.953 28.5016C304.17 28.0734 304.477 27.7409 304.871 27.504C305.266 27.2672 305.733 27.1488 306.271 27.1488C306.809 27.1488 307.276 27.2672 307.67 27.504C308.065 27.7409 308.37 28.0734 308.585 28.5016C308.803 28.9298 308.912 29.4286 308.912 29.9979C308.912 30.5673 308.803 31.0649 308.585 31.4907C308.37 31.9165 308.065 32.2478 307.67 32.4847C307.276 32.7215 306.809 32.8399 306.271 32.8399ZM306.278 31.7993C306.57 31.7993 306.814 31.7192 307.01 31.5589C307.206 31.3962 307.352 31.1785 307.448 30.9058C307.546 30.6331 307.595 30.3293 307.595 29.9944C307.595 29.657 307.546 29.352 307.448 29.0793C307.352 28.8042 307.206 28.5853 307.01 28.4226C306.814 28.26 306.57 28.1786 306.278 28.1786C305.979 28.1786 305.73 28.26 305.532 28.4226C305.335 28.5853 305.188 28.8042 305.09 29.0793C304.995 29.352 304.947 29.657 304.947 29.9944C304.947 30.3293 304.995 30.6331 305.09 30.9058C305.188 31.1785 305.335 31.3962 305.532 31.5589C305.73 31.7192 305.979 31.7993 306.278 31.7993Z" fill="white"/>
<path d="M310.014 32.7323V27.2205H311.274V28.1392H311.331C311.432 27.821 311.604 27.5758 311.848 27.4036C312.094 27.2289 312.376 27.1416 312.691 27.1416C312.763 27.1416 312.843 27.1452 312.932 27.1524C313.023 27.1572 313.098 27.1655 313.158 27.1775V28.3724C313.103 28.3533 313.015 28.3365 312.896 28.3222C312.779 28.3054 312.665 28.2971 312.555 28.2971C312.318 28.2971 312.105 28.3485 311.916 28.4514C311.73 28.5518 311.582 28.6918 311.475 28.8712C311.367 29.0506 311.313 29.2575 311.313 29.492V32.7323H310.014Z" fill="white"/>
<path d="M317.069 27.2205V28.2253H313.901V27.2205H317.069ZM314.683 25.9H315.982V31.0745C315.982 31.2491 316.008 31.3831 316.061 31.4763C316.116 31.5673 316.188 31.6295 316.276 31.6629C316.365 31.6964 316.463 31.7132 316.57 31.7132C316.652 31.7132 316.726 31.7072 316.793 31.6952C316.862 31.6833 316.915 31.6725 316.951 31.6629L317.17 32.6785C317.1 32.7024 317.001 32.7287 316.872 32.7574C316.745 32.7861 316.589 32.8028 316.405 32.8076C316.08 32.8172 315.787 32.7682 315.526 32.6605C315.265 32.5505 315.058 32.3806 314.905 32.151C314.755 31.9213 314.68 31.6342 314.683 31.2898V25.9Z" fill="white"/>
<rect x="337.972" y="20.2365" width="17" height="17" rx="2.00795" fill="#F7F9FB"/>
<rect x="20" y="17" width="119" height="23" rx="11.5" fill="#F7F9FB"/>
<rect x="45" y="25" width="70" height="8" rx="4" fill="#E8EEF4"/>
<path d="M28 25C28 23.8954 28.8954 23 30 23H38C39.1046 23 40 23.8954 40 25V33C40 34.1046 39.1046 35 38 35H30C28.8954 35 28 34.1046 28 33V25Z" fill="#1991EB"/>
<path d="M37.0625 28.5625H30.9375C30.6959 28.5625 30.5 28.7584 30.5 29C30.5 29.2416 30.6959 29.4375 30.9375 29.4375H37.0625C37.3041 29.4375 37.5 29.2416 37.5 29C37.5 28.7584 37.3041 28.5625 37.0625 28.5625Z" fill="white"/>
<path d="M127.488 27.3959C127.945 27.3959 128.055 27.6639 127.73 27.999L125.294 30.5121C125.131 30.6794 124.866 30.6769 124.705 30.5121L122.269 27.999C121.946 27.6659 122.055 27.3959 122.511 27.3959H127.488Z" fill="#949FB1"/>
<rect x="10" y="50" width="354" height="1" fill="#E8EEF4"/>
<rect x="9" y="116" width="354" height="1" fill="#E8EEF4"/>
<rect x="9" y="158" width="354" height="1" fill="#E8EEF4"/>
<rect x="149" y="213" width="162" height="1" transform="rotate(-90 149 213)" fill="#F7F9FB"/>
<path d="M36.249 65.9814V74.7087H34.8428L30.7306 68.7641H30.6581V74.7087H29.0771V65.9814H30.4919L34.5999 71.9303H34.6766V65.9814H36.249Z" fill="#1991EB"/>
<path d="M39.787 74.8408C39.3722 74.8408 38.9987 74.767 38.6663 74.6192C38.3367 74.4687 38.0754 74.2471 37.8822 73.9545C37.6919 73.6618 37.5967 73.301 37.5967 72.8721C37.5967 72.5028 37.6649 72.1974 37.8012 71.9559C37.9376 71.7144 38.1237 71.5212 38.3595 71.3763C38.5953 71.2314 38.8609 71.1221 39.1563 71.0482C39.4546 70.9715 39.7629 70.9161 40.0811 70.882C40.4646 70.8422 40.7757 70.8067 41.0143 70.7755C41.2529 70.7414 41.4262 70.6903 41.5342 70.6221C41.645 70.551 41.7004 70.4417 41.7004 70.2939V70.2684C41.7004 69.9474 41.6052 69.6988 41.4149 69.5226C41.2245 69.3465 40.9504 69.2584 40.5924 69.2584C40.2146 69.2584 39.9149 69.3408 39.6933 69.5056C39.4745 69.6704 39.3268 69.865 39.2501 70.0894L37.8097 69.8849C37.9234 69.4871 38.1109 69.1547 38.3722 68.8877C38.6336 68.6178 38.9532 68.4161 39.3311 68.2826C39.7089 68.1462 40.1265 68.078 40.5839 68.078C40.8992 68.078 41.2132 68.115 41.5257 68.1888C41.8382 68.2627 42.1237 68.3849 42.3822 68.5553C42.6407 68.7229 42.8481 68.9516 43.0044 69.2414C43.1634 69.5312 43.243 69.8934 43.243 70.328V74.7087H41.76V73.8096H41.7089C41.6151 73.9914 41.483 74.1618 41.3126 74.3209C41.145 74.4772 40.9333 74.6036 40.6776 74.7002C40.4248 74.7939 40.1279 74.8408 39.787 74.8408ZM40.1876 73.7073C40.4972 73.7073 40.7657 73.6462 40.993 73.5241C41.2203 73.3991 41.395 73.2343 41.5171 73.0297C41.6421 72.8252 41.7046 72.6022 41.7046 72.3607V71.5894C41.6563 71.6292 41.574 71.6661 41.4575 71.7002C41.3438 71.7343 41.216 71.7641 41.074 71.7897C40.9319 71.8153 40.7913 71.838 40.6521 71.8579C40.5129 71.8778 40.3921 71.8948 40.2899 71.909C40.0597 71.9403 39.8538 71.9914 39.672 72.0624C39.4901 72.1334 39.3467 72.2329 39.2416 72.3607C39.1365 72.4857 39.0839 72.6476 39.0839 72.8465C39.0839 73.1306 39.1876 73.3451 39.395 73.49C39.6024 73.6349 39.8666 73.7073 40.1876 73.7073Z" fill="#1991EB"/>
<path d="M44.7941 74.7087V68.1633H46.2686V69.2755H46.3453C46.4816 68.9005 46.7075 68.6079 47.0228 68.3976C47.3382 68.1846 47.7146 68.078 48.1521 68.078C48.5953 68.078 48.9688 68.186 49.2728 68.4019C49.5796 68.615 49.7955 68.9062 49.9205 69.2755H49.9887C50.1336 68.9118 50.3779 68.6221 50.7217 68.4062C51.0683 68.1874 51.4788 68.078 51.9532 68.078C52.5555 68.078 53.047 68.2684 53.4276 68.6491C53.8083 69.0297 53.9987 69.5851 53.9987 70.3153V74.7087H52.4518V70.5539C52.4518 70.1476 52.3438 69.8508 52.1279 69.6633C51.912 69.4729 51.6478 69.3778 51.3353 69.3778C50.9632 69.3778 50.672 69.4942 50.4617 69.7272C50.2544 69.9573 50.1507 70.257 50.1507 70.6263V74.7087H48.6379V70.49C48.6379 70.1519 48.5356 69.882 48.3311 69.6803C48.1294 69.4786 47.8651 69.3778 47.5384 69.3778C47.3169 69.3778 47.1151 69.4346 46.9333 69.5482C46.7515 69.659 46.6066 69.8167 46.4987 70.0212C46.3907 70.2229 46.3367 70.4587 46.3367 70.7286V74.7087H44.7941Z" fill="#1991EB"/>
<path d="M58.4614 74.8366C57.8051 74.8366 57.2384 74.7002 56.7611 74.4275C56.2867 74.1519 55.9216 73.7627 55.6659 73.2599C55.4102 72.7542 55.2824 72.159 55.2824 71.4743C55.2824 70.801 55.4102 70.2101 55.6659 69.7016C55.9244 69.1903 56.2852 68.7925 56.7483 68.5084C57.2114 68.2215 57.7554 68.078 58.3804 68.078C58.7838 68.078 59.1645 68.1434 59.5225 68.2741C59.8833 68.4019 60.2014 68.6008 60.477 68.8707C60.7554 69.1405 60.9742 69.4843 61.1333 69.9019C61.2924 70.3167 61.3719 70.811 61.3719 71.3849V71.8579H56.0068V70.8181H59.8932C59.8904 70.5226 59.8264 70.2599 59.7014 70.0297C59.5764 69.7968 59.4017 69.6135 59.1773 69.48C58.9557 69.3465 58.6972 69.2797 58.4017 69.2797C58.0864 69.2797 57.8094 69.3564 57.5708 69.5099C57.3321 69.6604 57.146 69.8593 57.0125 70.1064C56.8818 70.3508 56.8151 70.6192 56.8122 70.9118V71.8195C56.8122 72.2002 56.8818 72.5269 57.021 72.7996C57.1602 73.0695 57.3548 73.2769 57.6048 73.4218C57.8548 73.5638 58.1475 73.6349 58.4827 73.6349C58.7071 73.6349 58.9102 73.6036 59.0921 73.5411C59.2739 73.4758 59.4316 73.3806 59.5651 73.2556C59.6986 73.1306 59.7994 72.9758 59.8676 72.7911L61.308 72.953C61.2171 73.3337 61.0438 73.6661 60.7881 73.9502C60.5352 74.2314 60.2114 74.4502 59.8165 74.6064C59.4216 74.7599 58.9699 74.8366 58.4614 74.8366Z" fill="#1991EB"/>
<path d="M158.693 67.3067V65.9814H165.656V67.3067H162.959V74.7087H161.391V67.3067H158.693Z" fill="#1991EB"/>
<path d="M166.931 74.7087V68.1633H168.473V74.7087H166.931ZM167.706 67.2343C167.462 67.2343 167.252 67.1533 167.075 66.9914C166.899 66.8266 166.811 66.6292 166.811 66.3991C166.811 66.1661 166.899 65.9687 167.075 65.8067C167.252 65.642 167.462 65.5596 167.706 65.5596C167.953 65.5596 168.164 65.642 168.337 65.8067C168.513 65.9687 168.601 66.1661 168.601 66.3991C168.601 66.6292 168.513 66.8266 168.337 66.9914C168.164 67.1533 167.953 67.2343 167.706 67.2343Z" fill="#1991EB"/>
<path d="M173.328 68.1633V69.3564H169.565V68.1633H173.328ZM170.494 66.5951H172.037V72.74C172.037 72.9474 172.068 73.1064 172.131 73.2172C172.196 73.3252 172.281 73.3991 172.386 73.4388C172.491 73.4786 172.608 73.4985 172.736 73.4985C172.832 73.4985 172.92 73.4914 173 73.4772C173.082 73.463 173.145 73.4502 173.187 73.4388L173.447 74.6448C173.365 74.6732 173.247 74.7045 173.094 74.7385C172.943 74.7726 172.758 74.7925 172.54 74.7982C172.153 74.8096 171.805 74.7513 171.496 74.6235C171.186 74.4928 170.94 74.2911 170.758 74.0184C170.579 73.7457 170.491 73.4047 170.494 72.9957V66.5951Z" fill="#1991EB"/>
<path d="M176.301 65.9814V74.7087H174.759V65.9814H176.301Z" fill="#1991EB"/>
<path d="M180.785 74.8366C180.129 74.8366 179.562 74.7002 179.085 74.4275C178.611 74.1519 178.246 73.7627 177.99 73.2599C177.734 72.7542 177.606 72.159 177.606 71.4743C177.606 70.801 177.734 70.2101 177.99 69.7016C178.248 69.1903 178.609 68.7925 179.072 68.5084C179.535 68.2215 180.079 68.078 180.704 68.078C181.108 68.078 181.488 68.1434 181.846 68.2741C182.207 68.4019 182.525 68.6008 182.801 68.8707C183.079 69.1405 183.298 69.4843 183.457 69.9019C183.616 70.3167 183.696 70.811 183.696 71.3849V71.8579H178.331V70.8181H182.217C182.214 70.5226 182.15 70.2599 182.025 70.0297C181.9 69.7968 181.726 69.6135 181.501 69.48C181.28 69.3465 181.021 69.2797 180.726 69.2797C180.41 69.2797 180.133 69.3564 179.895 69.5099C179.656 69.6604 179.47 69.8593 179.336 70.1064C179.206 70.3508 179.139 70.6192 179.136 70.9118V71.8195C179.136 72.2002 179.206 72.5269 179.345 72.7996C179.484 73.0695 179.679 73.2769 179.929 73.4218C180.179 73.5638 180.471 73.6349 180.807 73.6349C181.031 73.6349 181.234 73.6036 181.416 73.5411C181.598 73.4758 181.756 73.3806 181.889 73.2556C182.023 73.1306 182.123 72.9758 182.192 72.7911L183.632 72.953C183.541 73.3337 183.368 73.6661 183.112 73.9502C182.859 74.2314 182.535 74.4502 182.14 74.6064C181.746 74.7599 181.294 74.8366 180.785 74.8366Z" fill="#1991EB"/>
<path d="M242.328 71.7769H243.76L244.608 72.8763L245.213 73.5922L246.667 75.4587H245.132L244.144 74.2059L243.722 73.6093L242.328 71.7769ZM246.875 70.3451C246.875 71.2854 246.699 72.0908 246.347 72.7613C245.998 73.4289 245.52 73.9403 244.915 74.2954C244.313 74.6505 243.63 74.828 242.865 74.828C242.101 74.828 241.417 74.6505 240.811 74.2954C240.209 73.9374 239.732 73.4246 239.38 72.757C239.03 72.0866 238.855 71.2826 238.855 70.3451C238.855 69.4047 239.03 68.6008 239.38 67.9332C239.732 67.2627 240.209 66.7499 240.811 66.3948C241.417 66.0397 242.101 65.8621 242.865 65.8621C243.63 65.8621 244.313 66.0397 244.915 66.3948C245.52 66.7499 245.998 67.2627 246.347 67.9332C246.699 68.6008 246.875 69.4047 246.875 70.3451ZM245.286 70.3451C245.286 69.6832 245.182 69.1249 244.975 68.6704C244.77 68.213 244.486 67.8678 244.123 67.6349C243.759 67.3991 243.34 67.2812 242.865 67.2812C242.391 67.2812 241.972 67.3991 241.608 67.6349C241.245 67.8678 240.959 68.213 240.752 68.6704C240.547 69.1249 240.445 69.6832 240.445 70.3451C240.445 71.007 240.547 71.5667 240.752 72.0241C240.959 72.4786 241.245 72.8238 241.608 73.0596C241.972 73.2925 242.391 73.409 242.865 73.409C243.34 73.409 243.759 73.2925 244.123 73.0596C244.486 72.8238 244.77 72.4786 244.975 72.0241C245.182 71.5667 245.286 71.007 245.286 70.3451Z" fill="#1991EB"/>
<path d="M252.485 71.9559V68.1633H254.028V74.7087H252.532V73.5454H252.464C252.316 73.9118 252.074 74.2116 251.735 74.4445C251.4 74.6775 250.987 74.7939 250.495 74.7939C250.066 74.7939 249.687 74.6988 249.358 74.5084C249.031 74.3153 248.775 74.0354 248.591 73.6689C248.406 73.2996 248.314 72.8536 248.314 72.3309V68.1633H249.856V72.0922C249.856 72.507 249.97 72.8366 250.197 73.0809C250.424 73.3252 250.723 73.4474 251.092 73.4474C251.319 73.4474 251.539 73.392 251.752 73.2812C251.966 73.1704 252.14 73.0056 252.277 72.7868C252.416 72.5653 252.485 72.2883 252.485 71.9559Z" fill="#1991EB"/>
<path d="M255.614 74.7087V68.1633H257.157V74.7087H255.614ZM256.39 67.2343C256.146 67.2343 255.935 67.1533 255.759 66.9914C255.583 66.8266 255.495 66.6292 255.495 66.3991C255.495 66.1661 255.583 65.9687 255.759 65.8067C255.935 65.642 256.146 65.5596 256.39 65.5596C256.637 65.5596 256.847 65.642 257.021 65.8067C257.197 65.9687 257.285 66.1661 257.285 66.3991C257.285 66.6292 257.197 66.8266 257.021 66.9914C256.847 67.1533 256.637 67.2343 256.39 67.2343Z" fill="#1991EB"/>
<path d="M261.598 74.8366C260.945 74.8366 260.384 74.6931 259.915 74.4062C259.449 74.1192 259.09 73.7229 258.837 73.2172C258.587 72.7087 258.462 72.1235 258.462 71.4616C258.462 70.7968 258.59 70.2101 258.846 69.7016C259.101 69.1903 259.462 68.7925 259.928 68.5084C260.397 68.2215 260.951 68.078 261.59 68.078C262.121 68.078 262.591 68.176 263 68.3721C263.412 68.5653 263.74 68.8394 263.985 69.1945C264.229 69.5468 264.368 69.9587 264.402 70.4303H262.928C262.868 70.115 262.726 69.8522 262.502 69.642C262.28 69.4289 261.983 69.3224 261.611 69.3224C261.296 69.3224 261.019 69.4076 260.78 69.578C260.542 69.7457 260.355 69.9871 260.222 70.3025C260.091 70.6178 260.026 70.9957 260.026 71.436C260.026 71.882 260.091 72.2655 260.222 72.5866C260.353 72.9047 260.536 73.1505 260.772 73.3238C261.01 73.4942 261.29 73.5795 261.611 73.5795C261.838 73.5795 262.042 73.5368 262.221 73.4516C262.402 73.3635 262.554 73.2371 262.676 73.0724C262.799 72.9076 262.882 72.7073 262.928 72.4715H264.402C264.365 72.9346 264.229 73.3451 263.993 73.703C263.757 74.0582 263.436 74.3366 263.03 74.5383C262.624 74.7371 262.147 74.8366 261.598 74.8366Z" fill="#1991EB"/>
<path d="M267.075 72.6547L267.071 70.7925H267.318L269.67 68.1633H271.473L268.58 71.3849H268.26L267.075 72.6547ZM265.669 74.7087V65.9814H267.212V74.7087H265.669ZM269.777 74.7087L267.646 71.73L268.686 70.6434L271.622 74.7087H269.777Z" fill="#1991EB"/>
<path d="M276.667 74.7087H274.979L278.051 65.9814H280.003L283.08 74.7087H281.392L279.061 67.7712H278.993L276.667 74.7087ZM276.722 71.2868H281.324V72.5567H276.722V71.2868Z" fill="#1991EB"/>
<path d="M286.817 74.8366C286.164 74.8366 285.603 74.6931 285.134 74.4062C284.668 74.1192 284.309 73.7229 284.056 73.2172C283.806 72.7087 283.681 72.1235 283.681 71.4616C283.681 70.7968 283.809 70.2101 284.064 69.7016C284.32 69.1903 284.681 68.7925 285.147 68.5084C285.615 68.2215 286.169 68.078 286.809 68.078C287.34 68.078 287.81 68.176 288.219 68.3721C288.631 68.5653 288.959 68.8394 289.203 69.1945C289.448 69.5468 289.587 69.9587 289.621 70.4303H288.147C288.087 70.115 287.945 69.8522 287.721 69.642C287.499 69.4289 287.202 69.3224 286.83 69.3224C286.515 69.3224 286.238 69.4076 285.999 69.578C285.76 69.7457 285.574 69.9871 285.441 70.3025C285.31 70.6178 285.245 70.9957 285.245 71.436C285.245 71.882 285.31 72.2655 285.441 72.5866C285.571 72.9047 285.755 73.1505 285.99 73.3238C286.229 73.4942 286.509 73.5795 286.83 73.5795C287.057 73.5795 287.26 73.5368 287.439 73.4516C287.621 73.3635 287.773 73.2371 287.895 73.0724C288.017 72.9076 288.101 72.7073 288.147 72.4715H289.621C289.584 72.9346 289.448 73.3451 289.212 73.703C288.976 74.0582 288.655 74.3366 288.249 74.5383C287.843 74.7371 287.365 74.8366 286.817 74.8366Z" fill="#1991EB"/>
<path d="M294.156 68.1633V69.3564H290.393V68.1633H294.156ZM291.322 66.5951H292.865V72.74C292.865 72.9474 292.896 73.1064 292.959 73.2172C293.024 73.3252 293.109 73.3991 293.214 73.4388C293.32 73.4786 293.436 73.4985 293.564 73.4985C293.661 73.4985 293.749 73.4914 293.828 73.4772C293.911 73.463 293.973 73.4502 294.016 73.4388L294.276 74.6448C294.193 74.6732 294.075 74.7045 293.922 74.7385C293.771 74.7726 293.587 74.7925 293.368 74.7982C292.982 74.8096 292.634 74.7513 292.324 74.6235C292.014 74.4928 291.768 74.2911 291.587 74.0184C291.408 73.7457 291.32 73.4047 291.322 72.9957V66.5951Z" fill="#1991EB"/>
<path d="M295.446 74.7087V68.1633H296.989V74.7087H295.446ZM296.222 67.2343C295.978 67.2343 295.767 67.1533 295.591 66.9914C295.415 66.8266 295.327 66.6292 295.327 66.3991C295.327 66.1661 295.415 65.9687 295.591 65.8067C295.767 65.642 295.978 65.5596 296.222 65.5596C296.469 65.5596 296.679 65.642 296.853 65.8067C297.029 65.9687 297.117 66.1661 297.117 66.3991C297.117 66.6292 297.029 66.8266 296.853 66.9914C296.679 67.1533 296.469 67.2343 296.222 67.2343Z" fill="#1991EB"/>
<path d="M301.43 74.8366C300.791 74.8366 300.237 74.6959 299.768 74.4147C299.3 74.1334 298.936 73.74 298.678 73.2343C298.422 72.7286 298.294 72.1377 298.294 71.4616C298.294 70.7854 298.422 70.1931 298.678 69.6846C298.936 69.176 299.3 68.7812 299.768 68.4999C300.237 68.2187 300.791 68.078 301.43 68.078C302.07 68.078 302.624 68.2187 303.092 68.4999C303.561 68.7812 303.923 69.176 304.179 69.6846C304.438 70.1931 304.567 70.7854 304.567 71.4616C304.567 72.1377 304.438 72.7286 304.179 73.2343C303.923 73.74 303.561 74.1334 303.092 74.4147C302.624 74.6959 302.07 74.8366 301.43 74.8366ZM301.439 73.6008C301.786 73.6008 302.075 73.5056 302.308 73.3153C302.541 73.1221 302.714 72.8635 302.828 72.5397C302.945 72.2158 303.003 71.855 303.003 71.4573C303.003 71.0567 302.945 70.6945 302.828 70.3707C302.714 70.0439 302.541 69.784 302.308 69.5908C302.075 69.3976 301.786 69.301 301.439 69.301C301.084 69.301 300.788 69.3976 300.553 69.5908C300.32 69.784 300.145 70.0439 300.028 70.3707C299.915 70.6945 299.858 71.0567 299.858 71.4573C299.858 71.855 299.915 72.2158 300.028 72.5397C300.145 72.8635 300.32 73.1221 300.553 73.3153C300.788 73.5056 301.084 73.6008 301.439 73.6008Z" fill="#1991EB"/>
<path d="M307.419 70.8735V74.7087H305.876V68.1633H307.35V69.2755H307.427C307.578 68.909 307.818 68.6178 308.147 68.4019C308.48 68.186 308.89 68.078 309.379 68.078C309.831 68.078 310.224 68.1746 310.559 68.3678C310.897 68.561 311.159 68.8408 311.343 69.2073C311.531 69.5738 311.623 70.0184 311.62 70.5411V74.7087H310.078V70.7797C310.078 70.3422 309.964 69.9999 309.737 69.7528C309.512 69.5056 309.201 69.382 308.804 69.382C308.534 69.382 308.294 69.4417 308.083 69.561C307.876 69.6775 307.713 69.8465 307.593 70.0681C307.477 70.2897 307.419 70.5582 307.419 70.8735Z" fill="#1991EB"/>
<path d="M318.362 69.8934L316.956 70.0468C316.916 69.9047 316.846 69.7712 316.747 69.6462C316.65 69.5212 316.52 69.4204 316.355 69.3437C316.19 69.267 315.988 69.2286 315.75 69.2286C315.429 69.2286 315.159 69.2982 314.94 69.4374C314.724 69.5766 314.618 69.757 314.62 69.9786C314.618 70.1689 314.687 70.3238 314.829 70.4431C314.974 70.5624 315.213 70.6604 315.545 70.7371L316.662 70.9758C317.281 71.1093 317.741 71.3209 318.042 71.6107C318.346 71.9005 318.5 72.2797 318.502 72.7485C318.5 73.1604 318.379 73.5241 318.14 73.8394C317.904 74.1519 317.576 74.3962 317.156 74.5724C316.735 74.7485 316.252 74.8366 315.707 74.8366C314.906 74.8366 314.261 74.6689 313.772 74.3337C313.284 73.9957 312.993 73.5255 312.899 72.9232L314.403 72.7783C314.471 73.0738 314.616 73.2968 314.838 73.4474C315.059 73.5979 315.348 73.6732 315.703 73.6732C316.069 73.6732 316.363 73.5979 316.585 73.4474C316.809 73.2968 316.922 73.1107 316.922 72.8891C316.922 72.7016 316.849 72.5468 316.704 72.4246C316.562 72.3025 316.341 72.2087 316.039 72.1434L314.923 71.909C314.295 71.7783 313.831 71.5582 313.529 71.2485C313.228 70.936 313.079 70.5411 313.082 70.0638C313.079 69.6604 313.189 69.311 313.41 69.0155C313.635 68.7172 313.946 68.4871 314.343 68.3252C314.744 68.1604 315.206 68.078 315.728 68.078C316.495 68.078 317.099 68.2414 317.539 68.5681C317.983 68.8948 318.257 69.3366 318.362 69.8934Z" fill="#1991EB"/>
<path d="M29 91.7087C29 90.6042 29.8954 89.7087 31 89.7087H39C40.1046 89.7087 41 90.6042 41 91.7087V99.7087C41 100.813 40.1046 101.709 39 101.709H31C29.8954 101.709 29 100.813 29 99.7087V91.7087Z" fill="#1991EB"/>
<path d="M38.7571 92.8235C38.705 92.7673 38.643 92.7227 38.5748 92.6923C38.5065 92.6619 38.4332 92.6462 38.3593 92.6462C38.2853 92.6462 38.212 92.6619 38.1438 92.6923C38.0755 92.7227 38.0135 92.7673 37.9614 92.8235L33.7869 97.2937L32.033 95.4121C31.9789 95.3563 31.915 95.3123 31.8451 95.2828C31.7751 95.2534 31.7004 95.2389 31.6252 95.2403C31.55 95.2417 31.4758 95.2589 31.4069 95.2909C31.3379 95.323 31.2755 95.3693 31.2233 95.4271C31.171 95.4849 31.1299 95.5532 31.1024 95.628C31.0748 95.7029 31.0613 95.7827 31.0626 95.8631C31.0639 95.9436 31.08 96.0229 31.11 96.0966C31.1399 96.1704 31.1832 96.2371 31.2373 96.293L33.389 98.594C33.4411 98.6502 33.5031 98.6947 33.5714 98.7252C33.6396 98.7556 33.7129 98.7712 33.7869 98.7712C33.8608 98.7712 33.9341 98.7556 34.0023 98.7252C34.0706 98.6947 34.1326 98.6502 34.1847 98.594L38.7571 93.7043C38.814 93.6482 38.8594 93.5801 38.8904 93.5043C38.9215 93.4285 38.9375 93.3467 38.9375 93.2639C38.9375 93.1812 38.9215 93.0993 38.8904 93.0235C38.8594 92.9477 38.814 92.8796 38.7571 92.8235Z" fill="white"/>
<rect x="50" y="91.7087" width="87" height="8" rx="4" fill="#E8EEF4"/>
<rect x="238" y="130" width="16" height="16" rx="2" fill="#E8EEF4"/>
<rect x="255" y="130" width="16" height="16" rx="2" fill="#E8EEF4"/>
<rect x="272" y="130" width="16" height="16" rx="2" fill="#E8EEF4"/>
<rect x="289" y="130" width="16" height="16" rx="2" fill="#E8EEF4"/>
<rect x="306" y="130" width="16" height="16" rx="2" fill="#E8EEF4"/>
<rect x="323" y="130" width="16" height="16" rx="2" fill="#E8EEF4"/>
<rect x="158" y="134" width="51" height="8" rx="4" fill="#E8EEF4"/>
<path d="M29.2163 133.709C29.2163 132.604 30.1117 131.709 31.2163 131.709H39.2163C40.3209 131.709 41.2163 132.604 41.2163 133.709V141.709C41.2163 142.813 40.3209 143.709 39.2163 143.709H31.2163C30.1117 143.709 29.2163 142.813 29.2163 141.709V133.709Z" fill="#1991EB"/>
<path d="M38.9734 134.823C38.9213 134.767 38.8593 134.723 38.7911 134.692C38.7228 134.662 38.6495 134.646 38.5756 134.646C38.5016 134.646 38.4284 134.662 38.3601 134.692C38.2918 134.723 38.2298 134.767 38.1777 134.823L34.0032 139.294L32.2493 137.412C32.1952 137.356 32.1314 137.312 32.0614 137.283C31.9914 137.253 31.9167 137.239 31.8415 137.24C31.7663 137.242 31.6921 137.259 31.6232 137.291C31.5542 137.323 31.4918 137.369 31.4396 137.427C31.3873 137.485 31.3463 137.553 31.3187 137.628C31.2911 137.703 31.2776 137.783 31.2789 137.863C31.2802 137.944 31.2963 138.023 31.3263 138.097C31.3562 138.17 31.3995 138.237 31.4536 138.293L33.6053 140.594C33.6574 140.65 33.7194 140.695 33.7877 140.725C33.8559 140.756 33.9292 140.771 34.0032 140.771C34.0771 140.771 34.1504 140.756 34.2187 140.725C34.2869 140.695 34.3489 140.65 34.401 140.594L38.9734 135.704C39.0303 135.648 39.0757 135.58 39.1067 135.504C39.1378 135.429 39.1538 135.347 39.1538 135.264C39.1538 135.181 39.1378 135.099 39.1067 135.024C39.0757 134.948 39.0303 134.88 38.9734 134.823Z" fill="white"/>
<rect x="50.2163" y="133.709" width="87" height="8" rx="4" fill="#E8EEF4"/>
<rect x="238" y="174" width="16" height="16" rx="2" fill="#E8EEF4"/>
<rect x="255" y="174" width="16" height="16" rx="2" fill="#E8EEF4"/>
<rect x="272" y="174" width="16" height="16" rx="2" fill="#E8EEF4"/>
<rect x="289" y="174" width="16" height="16" rx="2" fill="#E8EEF4"/>
<rect x="306" y="174" width="16" height="16" rx="2" fill="#E8EEF4"/>
<rect x="323" y="174" width="16" height="16" rx="2" fill="#E8EEF4"/>
<rect x="158" y="178" width="51" height="8" rx="4" fill="#E8EEF4"/>
<path d="M29.2163 177.709C29.2163 176.604 30.1117 175.709 31.2163 175.709H39.2163C40.3209 175.709 41.2163 176.604 41.2163 177.709V185.709C41.2163 186.813 40.3209 187.709 39.2163 187.709H31.2163C30.1117 187.709 29.2163 186.813 29.2163 185.709V177.709Z" fill="white"/>
<path d="M31.2163 176.709H39.2163V174.709H31.2163V176.709ZM40.2163 177.709V185.709H42.2163V177.709H40.2163ZM39.2163 186.709H31.2163V188.709H39.2163V186.709ZM30.2163 185.709V177.709H28.2163V185.709H30.2163ZM31.2163 186.709C30.664 186.709 30.2163 186.261 30.2163 185.709H28.2163C28.2163 187.366 29.5595 188.709 31.2163 188.709V186.709ZM40.2163 185.709C40.2163 186.261 39.7686 186.709 39.2163 186.709V188.709C40.8732 188.709 42.2163 187.366 42.2163 185.709H40.2163ZM39.2163 176.709C39.7686 176.709 40.2163 177.156 40.2163 177.709H42.2163C42.2163 176.052 40.8732 174.709 39.2163 174.709V176.709ZM31.2163 174.709C29.5595 174.709 28.2163 176.052 28.2163 177.709H30.2163C30.2163 177.156 30.664 176.709 31.2163 176.709V174.709Z" fill="#D3DAE3"/>
<rect x="50.2163" y="177.709" width="87" height="8" rx="4" fill="#E8EEF4"/>
<defs>
<filter id="filter0_d_307_14511" x="0" y="0" width="372" height="231" filterUnits="userSpaceOnUse" color-interpolation-filters="sRGB">
<feFlood flood-opacity="0" result="BackgroundImageFix"/>
<feColorMatrix in="SourceAlpha" type="matrix" values="0 0 0 0 0 0 0 0 0 0 0 0 0 0 0 0 0 0 127 0" result="hardAlpha"/>
<feOffset dy="4"/>
<feGaussianBlur stdDeviation="4.5"/>
<feColorMatrix type="matrix" values="0 0 0 0 0 0 0 0 0 0 0 0 0 0 0 0 0 0 0.09 0"/>
<feBlend mode="normal" in2="BackgroundImageFix" result="effect1_dropShadow_307_14511"/>
<feBlend mode="normal" in="SourceGraphic" in2="effect1_dropShadow_307_14511" result="shape"/>
</filter>
</defs>
</svg>
