<svg width="448" height="300" viewBox="0 0 448 300" fill="none" xmlns="http://www.w3.org/2000/svg">
<g filter="url(#filter0_d_307_14592)">
<rect x="9" y="5" width="246" height="246.346" rx="3.94569" fill="white"/>
<path d="M29 30.2199V23.3329H31.5826C32.1117 23.3329 32.5556 23.4248 32.9143 23.6087C33.2752 23.7925 33.5476 24.0503 33.7315 24.3821C33.9175 24.7117 34.0106 25.0961 34.0106 25.5356C34.0106 25.9772 33.9164 26.3606 33.7281 26.6856C33.542 27.0085 33.2674 27.2584 32.9042 27.4355C32.541 27.6104 32.0949 27.6978 31.5658 27.6978H29.7264V26.6621H31.3977C31.7071 26.6621 31.9604 26.6195 32.1577 26.5343C32.355 26.4469 32.5007 26.3202 32.5948 26.1543C32.6912 25.9862 32.7394 25.7799 32.7394 25.5356C32.7394 25.2912 32.6912 25.0827 32.5948 24.9101C32.4984 24.7352 32.3516 24.6029 32.1543 24.5133C31.957 24.4213 31.7026 24.3754 31.391 24.3754H30.2476V30.2199H29ZM32.5578 27.0993L34.2628 30.2199H32.8706L31.1959 27.0993H32.5578Z" fill="#5D6A7E"/>
<path d="M37.3179 30.3208C36.8 30.3208 36.3528 30.2132 35.9761 29.998C35.6017 29.7805 35.3137 29.4734 35.1119 29.0766C34.9101 28.6775 34.8092 28.2079 34.8092 27.6676C34.8092 27.1362 34.9101 26.6699 35.1119 26.2686C35.3159 25.8651 35.6006 25.5512 35.966 25.3271C36.3315 25.1006 36.7608 24.9874 37.254 24.9874C37.5723 24.9874 37.8728 25.039 38.1552 25.1421C38.4399 25.243 38.691 25.3999 38.9085 25.6129C39.1282 25.8259 39.3008 26.0971 39.4264 26.4267C39.5519 26.754 39.6147 27.1441 39.6147 27.5969V27.9702H35.3809V27.1497H38.4478C38.4455 26.9165 38.3951 26.7092 38.2965 26.5276C38.1978 26.3437 38.0599 26.1991 37.8828 26.0938C37.708 25.9884 37.504 25.9357 37.2708 25.9357C37.022 25.9357 36.8034 25.9963 36.6151 26.1173C36.4267 26.2361 36.2799 26.3931 36.1745 26.5881C36.0714 26.7809 36.0187 26.9928 36.0165 27.2237V27.94C36.0165 28.2404 36.0714 28.4982 36.1813 28.7134C36.2911 28.9264 36.4447 29.09 36.642 29.2044C36.8393 29.3165 37.0702 29.3725 37.3347 29.3725C37.5118 29.3725 37.6721 29.3478 37.8156 29.2985C37.9591 29.247 38.0835 29.1719 38.1889 29.0732C38.2942 28.9746 38.3738 28.8524 38.4276 28.7067L39.5642 28.8345C39.4925 29.1349 39.3557 29.3972 39.154 29.6214C38.9545 29.8433 38.6989 30.0159 38.3873 30.1392C38.0756 30.2603 37.7192 30.3208 37.3179 30.3208Z" fill="#5D6A7E"/>
<path d="M42.8976 30.3208C42.382 30.3208 41.9392 30.2076 41.5693 29.9812C41.2016 29.7547 40.918 29.442 40.7185 29.043C40.5212 28.6417 40.4226 28.1798 40.4226 27.6575C40.4226 27.1329 40.5235 26.6699 40.7252 26.2686C40.927 25.8651 41.2117 25.5512 41.5794 25.3271C41.9493 25.1006 42.3865 24.9874 42.8909 24.9874C43.3101 24.9874 43.6811 25.0648 44.004 25.2194C44.329 25.3719 44.588 25.5882 44.7808 25.8685C44.9736 26.1465 45.0834 26.4715 45.1103 26.8437H43.9468C43.8997 26.5948 43.7876 26.3875 43.6105 26.2216C43.4357 26.0534 43.2014 25.9694 42.9077 25.9694C42.6589 25.9694 42.4403 26.0366 42.252 26.1711C42.0636 26.3034 41.9168 26.494 41.8114 26.7428C41.7083 26.9916 41.6567 27.2898 41.6567 27.6373C41.6567 27.9893 41.7083 28.2919 41.8114 28.5453C41.9146 28.7963 42.0592 28.9903 42.2452 29.127C42.4336 29.2615 42.6544 29.3288 42.9077 29.3288C43.0871 29.3288 43.2473 29.2952 43.3886 29.2279C43.5321 29.1584 43.652 29.0586 43.7484 28.9286C43.8448 28.7986 43.9109 28.6405 43.9468 28.4545H45.1103C45.0812 28.8199 44.9736 29.1438 44.7875 29.4263C44.6014 29.7065 44.3481 29.9262 44.0275 30.0854C43.7069 30.2424 43.3303 30.3208 42.8976 30.3208Z" fill="#5D6A7E"/>
<path d="M48.363 30.3208C47.8586 30.3208 47.4214 30.2098 47.0515 29.9879C46.6816 29.766 46.3947 29.4555 46.1906 29.0564C45.9889 28.6574 45.888 28.191 45.888 27.6575C45.888 27.1239 45.9889 26.6565 46.1906 26.2552C46.3947 25.8539 46.6816 25.5423 47.0515 25.3203C47.4214 25.0984 47.8586 24.9874 48.363 24.9874C48.8674 24.9874 49.3046 25.0984 49.6745 25.3203C50.0444 25.5423 50.3303 25.8539 50.532 26.2552C50.736 26.6565 50.838 27.1239 50.838 27.6575C50.838 28.191 50.736 28.6574 50.532 29.0564C50.3303 29.4555 50.0444 29.766 49.6745 29.9879C49.3046 30.2098 48.8674 30.3208 48.363 30.3208ZM48.3697 29.3456C48.6432 29.3456 48.8719 29.2705 49.0557 29.1203C49.2396 28.9679 49.3763 28.7638 49.466 28.5083C49.5579 28.2527 49.6039 27.968 49.6039 27.6541C49.6039 27.338 49.5579 27.0522 49.466 26.7966C49.3763 26.5388 49.2396 26.3337 49.0557 26.1812C48.8719 26.0288 48.6432 25.9525 48.3697 25.9525C48.0895 25.9525 47.8563 26.0288 47.6703 26.1812C47.4864 26.3337 47.3486 26.5388 47.2566 26.7966C47.167 27.0522 47.1221 27.338 47.1221 27.6541C47.1221 27.968 47.167 28.2527 47.2566 28.5083C47.3486 28.7638 47.4864 28.9679 47.6703 29.1203C47.8563 29.2705 48.0895 29.3456 48.3697 29.3456Z" fill="#5D6A7E"/>
<path d="M51.8713 30.2199V25.0547H53.0516V25.9155H53.1054C53.1996 25.6174 53.361 25.3876 53.5896 25.2262C53.8206 25.0625 54.084 24.9807 54.3799 24.9807C54.4472 24.9807 54.5223 24.9841 54.6052 24.9908C54.6904 24.9953 54.761 25.0031 54.8171 25.0143V26.1341C54.7655 26.1162 54.6837 26.1005 54.5716 26.0871C54.4617 26.0714 54.3552 26.0635 54.2521 26.0635C54.0302 26.0635 53.8306 26.1117 53.6535 26.2081C53.4787 26.3023 53.3408 26.4334 53.2399 26.6016C53.139 26.7697 53.0886 26.9636 53.0886 27.1833V30.2199H51.8713Z" fill="#5D6A7E"/>
<path d="M57.3299 30.3107C56.9241 30.3107 56.561 30.2065 56.2404 29.998C55.9198 29.7895 55.6665 29.4868 55.4804 29.09C55.2943 28.6932 55.2013 28.2112 55.2013 27.644C55.2013 27.0701 55.2954 26.5859 55.4837 26.1913C55.6743 25.7945 55.931 25.4952 56.2538 25.2934C56.5767 25.0894 56.9365 24.9874 57.3333 24.9874C57.6359 24.9874 57.8848 25.039 58.0798 25.1421C58.2749 25.243 58.4296 25.3652 58.5439 25.5086C58.6582 25.6499 58.7468 25.7833 58.8096 25.9088H58.86V23.3329H60.0807V30.2199H58.8835V29.4061H58.8096C58.7468 29.5317 58.656 29.6651 58.5372 29.8063C58.4183 29.9453 58.2614 30.0641 58.0664 30.1628C57.8713 30.2614 57.6258 30.3107 57.3299 30.3107ZM57.6696 29.312C57.9274 29.312 58.1471 29.2425 58.3287 29.1035C58.5103 28.9622 58.6481 28.7661 58.7423 28.515C58.8365 28.2639 58.8835 27.9713 58.8835 27.6373C58.8835 27.3033 58.8365 27.0129 58.7423 26.7663C58.6504 26.5197 58.5136 26.3281 58.332 26.1913C58.1527 26.0545 57.9319 25.9862 57.6696 25.9862C57.3983 25.9862 57.1719 26.0568 56.9903 26.198C56.8087 26.3393 56.6719 26.5343 56.58 26.7832C56.4881 27.032 56.4421 27.3167 56.4421 27.6373C56.4421 27.9601 56.4881 28.2482 56.58 28.5015C56.6742 28.7526 56.812 28.951 56.9936 29.0968C57.1775 29.2402 57.4028 29.312 57.6696 29.312Z" fill="#5D6A7E"/>
<path d="M65.4603 26.42L64.3506 26.541C64.3192 26.4289 64.2643 26.3236 64.1858 26.2249C64.1096 26.1263 64.0065 26.0467 63.8765 25.9862C63.7464 25.9256 63.5873 25.8954 63.3989 25.8954C63.1456 25.8954 62.9326 25.9503 62.76 26.0601C62.5896 26.17 62.5056 26.3124 62.5078 26.4872C62.5056 26.6374 62.5605 26.7596 62.6726 26.8538C62.7869 26.9479 62.9752 27.0253 63.2375 27.0858L64.1186 27.2741C64.6073 27.3795 64.9705 27.5465 65.2081 27.7752C65.448 28.0038 65.5691 28.3031 65.5713 28.673C65.5691 28.9981 65.4738 29.2851 65.2855 29.5339C65.0994 29.7805 64.8405 29.9733 64.5087 30.1123C64.1769 30.2513 63.7957 30.3208 63.3653 30.3208C62.7331 30.3208 62.2242 30.1885 61.8386 29.924C61.453 29.6572 61.2232 29.2862 61.1492 28.8109L62.3363 28.6966C62.3901 28.9297 62.5044 29.1057 62.6793 29.2245C62.8542 29.3434 63.0817 29.4028 63.3619 29.4028C63.6511 29.4028 63.8832 29.3434 64.058 29.2245C64.2352 29.1057 64.3237 28.9589 64.3237 28.784C64.3237 28.6361 64.2665 28.5139 64.1522 28.4175C64.0401 28.3211 63.8652 28.2471 63.6276 28.1955L62.7466 28.0106C62.2511 27.9074 61.8846 27.7337 61.6469 27.4893C61.4093 27.2427 61.2916 26.9311 61.2938 26.5545C61.2916 26.2361 61.3779 25.9604 61.5528 25.7272C61.7299 25.4918 61.9753 25.3102 62.2892 25.1825C62.6053 25.0524 62.9696 24.9874 63.3821 24.9874C63.9874 24.9874 64.4638 25.1163 64.8113 25.3741C65.161 25.632 65.3774 25.9806 65.4603 26.42Z" fill="#5D6A7E"/>
<path d="M68.9778 30.2199V23.3329H73.4571V24.3787H70.2254V26.2485H73.225V27.2943H70.2254V29.1741H73.484V30.2199H68.9778Z" fill="#5D6A7E"/>
<path d="M75.8934 27.1934V30.2199H74.6761V25.0547H75.8396V25.9324H75.9001C76.019 25.6432 76.2084 25.4134 76.4685 25.243C76.7308 25.0726 77.0547 24.9874 77.4403 24.9874C77.7968 24.9874 78.1073 25.0636 78.3718 25.2161C78.6386 25.3685 78.8448 25.5894 78.9906 25.8786C79.1385 26.1678 79.2114 26.5186 79.2091 26.9311V30.2199H77.9918V27.1194C77.9918 26.7742 77.9021 26.504 77.7228 26.309C77.5457 26.114 77.3002 26.0164 76.9863 26.0164C76.7734 26.0164 76.5839 26.0635 76.418 26.1577C76.2544 26.2496 76.1255 26.383 76.0313 26.5578C75.9394 26.7327 75.8934 26.9446 75.8934 27.1934Z" fill="#5D6A7E"/>
<path d="M80.4467 30.2199V25.0547H81.627V25.9155H81.6808C81.775 25.6174 81.9364 25.3876 82.165 25.2262C82.396 25.0625 82.6594 24.9807 82.9553 24.9807C83.0226 24.9807 83.0977 24.9841 83.1806 24.9908C83.2658 24.9953 83.3364 25.0031 83.3925 25.0143V26.1341C83.3409 26.1162 83.2591 26.1005 83.147 26.0871C83.0371 26.0714 82.9306 26.0635 82.8275 26.0635C82.6056 26.0635 82.406 26.1117 82.2289 26.2081C82.0541 26.3023 81.9162 26.4334 81.8153 26.6016C81.7144 26.7697 81.664 26.9636 81.664 27.1833V30.2199H80.4467Z" fill="#5D6A7E"/>
<path d="M84.2012 30.2199V25.0547H85.4186V30.2199H84.2012ZM84.8133 24.3216C84.6205 24.3216 84.4546 24.2577 84.3156 24.1299C84.1766 23.9999 84.1071 23.8441 84.1071 23.6625C84.1071 23.4786 84.1766 23.3228 84.3156 23.195C84.4546 23.065 84.6205 23 84.8133 23C85.0083 23 85.1742 23.065 85.3109 23.195C85.4499 23.3228 85.5194 23.4786 85.5194 23.6625C85.5194 23.8441 85.4499 23.9999 85.3109 24.1299C85.1742 24.2577 85.0083 24.3216 84.8133 24.3216Z" fill="#5D6A7E"/>
<path d="M88.9234 30.3208C88.4078 30.3208 87.965 30.2076 87.5951 29.9812C87.2275 29.7547 86.9439 29.442 86.7443 29.043C86.5471 28.6417 86.4484 28.1798 86.4484 27.6575C86.4484 27.1329 86.5493 26.6699 86.7511 26.2686C86.9528 25.8651 87.2376 25.5512 87.6052 25.3271C87.9751 25.1006 88.4123 24.9874 88.9167 24.9874C89.3359 24.9874 89.707 25.0648 90.0298 25.2194C90.3549 25.3719 90.6138 25.5882 90.8066 25.8685C90.9994 26.1465 91.1093 26.4715 91.1362 26.8437H89.9726C89.9256 26.5948 89.8135 26.3875 89.6364 26.2216C89.4615 26.0534 89.2272 25.9694 88.9335 25.9694C88.6847 25.9694 88.4661 26.0366 88.2778 26.1711C88.0895 26.3034 87.9426 26.494 87.8373 26.7428C87.7341 26.9916 87.6826 27.2898 87.6826 27.6373C87.6826 27.9893 87.7341 28.2919 87.8373 28.5453C87.9404 28.7963 88.085 28.9903 88.2711 29.127C88.4594 29.2615 88.6802 29.3288 88.9335 29.3288C89.1129 29.3288 89.2732 29.2952 89.4144 29.2279C89.5579 29.1584 89.6778 29.0586 89.7742 28.9286C89.8706 28.7986 89.9368 28.6405 89.9726 28.4545H91.1362C91.107 28.8199 90.9994 29.1438 90.8133 29.4263C90.6273 29.7065 90.3739 29.9262 90.0533 30.0854C89.7328 30.2424 89.3561 30.3208 88.9234 30.3208Z" fill="#5D6A7E"/>
<path d="M93.3531 27.1934V30.2199H92.1357V23.3329H93.3262V25.9324H93.3867C93.5078 25.6409 93.695 25.4111 93.9483 25.243C94.2039 25.0726 94.5289 24.9874 94.9235 24.9874C95.2822 24.9874 95.595 25.0625 95.8617 25.2127C96.1285 25.3629 96.3348 25.5826 96.4805 25.8718C96.6285 26.161 96.7024 26.5141 96.7024 26.9311V30.2199H95.4851V27.1194C95.4851 26.7719 95.3954 26.5018 95.2161 26.309C95.039 26.114 94.7901 26.0164 94.4695 26.0164C94.2543 26.0164 94.0615 26.0635 93.8911 26.1577C93.723 26.2496 93.5907 26.383 93.4943 26.5578C93.4002 26.7327 93.3531 26.9446 93.3531 27.1934Z" fill="#5D6A7E"/>
<path d="M100.23 30.3208C99.7121 30.3208 99.2649 30.2132 98.8883 29.998C98.5139 29.7805 98.2258 29.4734 98.024 29.0766C97.8223 28.6775 97.7214 28.2079 97.7214 27.6676C97.7214 27.1362 97.8223 26.6699 98.024 26.2686C98.228 25.8651 98.5127 25.5512 98.8782 25.3271C99.2436 25.1006 99.6729 24.9874 100.166 24.9874C100.484 24.9874 100.785 25.039 101.067 25.1421C101.352 25.243 101.603 25.3999 101.821 25.6129C102.04 25.8259 102.213 26.0971 102.338 26.4267C102.464 26.754 102.527 27.1441 102.527 27.5969V27.9702H98.293V27.1497H101.36C101.358 26.9165 101.307 26.7092 101.209 26.5276C101.11 26.3437 100.972 26.1991 100.795 26.0938C100.62 25.9884 100.416 25.9357 100.183 25.9357C99.9341 25.9357 99.7155 25.9963 99.5272 26.1173C99.3389 26.2361 99.192 26.3931 99.0867 26.5881C98.9835 26.7809 98.9309 26.9928 98.9286 27.2237V27.94C98.9286 28.2404 98.9835 28.4982 99.0934 28.7134C99.2032 28.9264 99.3568 29.09 99.5541 29.2044C99.7514 29.3165 99.9823 29.3725 100.247 29.3725C100.424 29.3725 100.584 29.3478 100.728 29.2985C100.871 29.247 100.996 29.1719 101.101 29.0732C101.206 28.9746 101.286 28.8524 101.34 28.7067L102.476 28.8345C102.405 29.1349 102.268 29.3972 102.066 29.6214C101.867 29.8433 101.611 30.0159 101.299 30.1392C100.988 30.2603 100.631 30.3208 100.23 30.3208Z" fill="#5D6A7E"/>
<path d="M105.473 30.3107C105.068 30.3107 104.705 30.2065 104.384 29.998C104.063 29.7895 103.81 29.4868 103.624 29.09C103.438 28.6932 103.345 28.2112 103.345 27.644C103.345 27.0701 103.439 26.5859 103.627 26.1913C103.818 25.7945 104.075 25.4952 104.397 25.2934C104.72 25.0894 105.08 24.9874 105.477 24.9874C105.779 24.9874 106.028 25.039 106.223 25.1421C106.418 25.243 106.573 25.3652 106.687 25.5086C106.802 25.6499 106.89 25.7833 106.953 25.9088H107.004V23.3329H108.224V30.2199H107.027V29.4061H106.953C106.89 29.5317 106.8 29.6651 106.681 29.8063C106.562 29.9453 106.405 30.0641 106.21 30.1628C106.015 30.2614 105.769 30.3107 105.473 30.3107ZM105.813 29.312C106.071 29.312 106.291 29.2425 106.472 29.1035C106.654 28.9622 106.792 28.7661 106.886 28.515C106.98 28.2639 107.027 27.9713 107.027 27.6373C107.027 27.3033 106.98 27.0129 106.886 26.7663C106.794 26.5197 106.657 26.3281 106.476 26.1913C106.296 26.0545 106.075 25.9862 105.813 25.9862C105.542 25.9862 105.315 26.0568 105.134 26.198C104.952 26.3393 104.815 26.5343 104.724 26.7832C104.632 27.032 104.586 27.3167 104.586 27.6373C104.586 27.9601 104.632 28.2482 104.724 28.5015C104.818 28.7526 104.956 28.951 105.137 29.0968C105.321 29.2402 105.546 29.312 105.813 29.312Z" fill="#5D6A7E"/>
<path fill-rule="evenodd" clip-rule="evenodd" d="M132 189.468C173.186 189.468 206.574 156.08 206.574 114.894C206.574 73.7085 173.186 40.3208 132 40.3208C90.8144 40.3208 57.4268 73.7085 57.4268 114.894C57.4268 156.08 90.8144 189.468 132 189.468ZM132 177.336C166.486 177.336 194.442 149.38 194.442 114.894C194.442 80.4086 166.486 52.4524 132 52.4524C97.5145 52.4524 69.5583 80.4086 69.5583 114.894C69.5583 149.38 97.5145 177.336 132 177.336Z" fill="#D3DAE3"/>
<mask id="mask0_307_14592" style="mask-type:alpha" maskUnits="userSpaceOnUse" x="57" y="40" width="150" height="150">
<path fill-rule="evenodd" clip-rule="evenodd" d="M132 189.468C173.186 189.468 206.574 156.08 206.574 114.894C206.574 73.7085 173.186 40.3208 132 40.3208C90.8144 40.3208 57.4268 73.7085 57.4268 114.894C57.4268 156.08 90.8144 189.468 132 189.468ZM132 177.336C166.486 177.336 194.442 149.38 194.442 114.894C194.442 80.4086 166.486 52.4524 132 52.4524C97.5145 52.4524 69.5583 80.4086 69.5583 114.894C69.5583 149.38 97.5145 177.336 132 177.336Z" fill="#D3DAE3"/>
</mask>
<g mask="url(#mask0_307_14592)">
<path d="M130.573 120.247V26.4053L192.658 40.3209L229.41 108.472L196.226 185.9L130.573 120.247Z" fill="#02C797" stroke="white" stroke-width="0.713622"/>
</g>
<path d="M119.644 101.893V109.928H118.428V103.109H118.381L116.458 104.365V103.203L118.463 101.893H119.644Z" fill="#949FB1"/>
<path d="M122.896 108.829L122.837 109.257C122.798 109.571 122.731 109.898 122.637 110.238C122.545 110.58 122.45 110.898 122.35 111.191C122.253 111.484 122.174 111.717 122.111 111.89H121.279C121.313 111.727 121.36 111.508 121.42 111.23C121.481 110.956 121.539 110.648 121.597 110.308C121.655 109.968 121.698 109.622 121.726 109.269L121.766 108.829H122.896Z" fill="#949FB1"/>
<path d="M127.042 110.061C126.423 110.059 125.893 109.895 125.454 109.571C125.014 109.247 124.678 108.774 124.445 108.155C124.213 107.535 124.096 106.788 124.096 105.914C124.096 105.043 124.213 104.299 124.445 103.682C124.681 103.065 125.018 102.594 125.457 102.27C125.9 101.945 126.428 101.783 127.042 101.783C127.657 101.783 128.184 101.947 128.624 102.274C129.063 102.598 129.399 103.069 129.632 103.686C129.867 104.301 129.985 105.043 129.985 105.914C129.985 106.791 129.869 107.539 129.636 108.159C129.403 108.776 129.067 109.248 128.627 109.575C128.188 109.899 127.66 110.061 127.042 110.061ZM127.042 109.014C127.587 109.014 128.012 108.748 128.318 108.217C128.626 107.686 128.781 106.919 128.781 105.914C128.781 105.247 128.71 104.684 128.569 104.223C128.43 103.761 128.23 103.41 127.968 103.172C127.709 102.931 127.401 102.811 127.042 102.811C126.501 102.811 126.076 103.078 125.767 103.611C125.459 104.145 125.303 104.913 125.301 105.914C125.301 106.584 125.37 107.15 125.508 107.613C125.65 108.074 125.85 108.423 126.109 108.661C126.368 108.896 126.679 109.014 127.042 109.014Z" fill="#949FB1"/>
<path d="M134.174 110.061C133.554 110.059 133.024 109.895 132.585 109.571C132.146 109.247 131.81 108.774 131.577 108.155C131.344 107.535 131.228 106.788 131.228 105.914C131.228 105.043 131.344 104.299 131.577 103.682C131.812 103.065 132.15 102.594 132.589 102.27C133.031 101.945 133.559 101.783 134.174 101.783C134.789 101.783 135.316 101.947 135.755 102.274C136.194 102.598 136.531 103.069 136.763 103.686C136.999 104.301 137.116 105.043 137.116 105.914C137.116 106.791 137 107.539 136.767 108.159C136.535 108.776 136.198 109.248 135.759 109.575C135.32 109.899 134.791 110.061 134.174 110.061ZM134.174 109.014C134.718 109.014 135.143 108.748 135.449 108.217C135.758 107.686 135.912 106.919 135.912 105.914C135.912 105.247 135.841 104.684 135.7 104.223C135.562 103.761 135.361 103.41 135.1 103.172C134.841 102.931 134.532 102.811 134.174 102.811C133.633 102.811 133.208 103.078 132.899 103.611C132.59 104.145 132.435 104.913 132.432 105.914C132.432 106.584 132.501 107.15 132.64 107.613C132.781 108.074 132.981 108.423 133.24 108.661C133.499 108.896 133.81 109.014 134.174 109.014Z" fill="#949FB1"/>
<path d="M141.306 110.061C140.686 110.059 140.156 109.895 139.717 109.571C139.277 109.247 138.941 108.774 138.708 108.155C138.476 107.535 138.359 106.788 138.359 105.914C138.359 105.043 138.476 104.299 138.708 103.682C138.944 103.065 139.281 102.594 139.721 102.27C140.163 101.945 140.691 101.783 141.306 101.783C141.92 101.783 142.447 101.947 142.887 102.274C143.326 102.598 143.662 103.069 143.895 103.686C144.13 104.301 144.248 105.043 144.248 105.914C144.248 106.791 144.132 107.539 143.899 108.159C143.666 108.776 143.33 109.248 142.891 109.575C142.451 109.899 141.923 110.061 141.306 110.061ZM141.306 109.014C141.85 109.014 142.275 108.748 142.581 108.217C142.889 107.686 143.044 106.919 143.044 105.914C143.044 105.247 142.973 104.684 142.832 104.223C142.693 103.761 142.493 103.41 142.231 103.172C141.972 102.931 141.664 102.811 141.306 102.811C140.764 102.811 140.339 103.078 140.03 103.611C139.722 104.145 139.566 104.913 139.564 105.914C139.564 106.584 139.633 107.15 139.772 107.613C139.913 108.074 140.113 108.423 140.372 108.661C140.631 108.896 140.942 109.014 141.306 109.014Z" fill="#949FB1"/>
<rect x="105.239" y="118.105" width="52.0944" height="5.70897" rx="2.85449" fill="#E8EEF4"/>
<rect x="111.662" y="128.81" width="39.9628" height="5.70897" rx="2.85449" fill="#E8EEF4"/>
<rect x="41.9297" y="213.25" width="10.2588" height="6.3131" rx="3.15655" fill="#02C797"/>
<rect x="55.3447" y="213.25" width="30.7764" height="6.3131" rx="3.15655" fill="#E8EEF4"/>
<rect x="109.904" y="213.25" width="10.2588" height="6.3131" rx="3.15655" fill="#FFBF8E"/>
<rect x="123.319" y="213.25" width="30.7764" height="6.3131" rx="3.15655" fill="#E8EEF4"/>
<rect x="177.878" y="213.25" width="10.2588" height="6.3131" rx="3.15655" fill="#949FB1"/>
<rect x="191.294" y="213.25" width="30.7764" height="6.3131" rx="3.15655" fill="#E8EEF4"/>
</g>
<g filter="url(#filter1_d_307_14592)">
<rect x="193" y="67" width="246" height="219.918" rx="4.16399" fill="white"/>
<path d="M213 92.6194V85.3513H217.727V86.455H214.317V88.4282H217.482V89.5319H214.317V91.5157H217.755V92.6194H213Z" fill="#5D6A7E"/>
<path d="M220.298 89.4254V92.6194H219.014V87.1683H220.241V88.0946H220.305C220.431 87.7894 220.631 87.5469 220.905 87.3671C221.182 87.1873 221.524 87.0974 221.931 87.0974C222.307 87.0974 222.635 87.1778 222.914 87.3387C223.195 87.4996 223.413 87.7326 223.567 88.0378C223.723 88.343 223.8 88.7133 223.797 89.1486V92.6194H222.513V89.3473C222.513 88.983 222.418 88.6979 222.229 88.4921C222.042 88.2862 221.783 88.1833 221.452 88.1833C221.227 88.1833 221.027 88.233 220.852 88.3324C220.679 88.4294 220.543 88.5701 220.444 88.7547C220.347 88.9392 220.298 89.1628 220.298 89.4254Z" fill="#5D6A7E"/>
<path d="M225.103 92.6194V87.1683H226.349V88.0769H226.406C226.505 87.7622 226.676 87.5197 226.917 87.3493C227.161 87.1766 227.439 87.0903 227.751 87.0903C227.822 87.0903 227.901 87.0938 227.989 87.1009C228.078 87.1057 228.153 87.1139 228.212 87.1258V88.3075C228.158 88.2886 228.071 88.272 227.953 88.2578C227.837 88.2413 227.725 88.233 227.616 88.233C227.382 88.233 227.171 88.2839 226.984 88.3856C226.8 88.485 226.654 88.6234 226.548 88.8008C226.441 88.9783 226.388 89.1829 226.388 89.4148V92.6194H225.103Z" fill="#5D6A7E"/>
<path d="M229.066 92.6194V87.1683H230.35V92.6194H229.066ZM229.712 86.3947C229.508 86.3947 229.333 86.3273 229.186 86.1924C229.04 86.0552 228.966 85.8908 228.966 85.6991C228.966 85.5051 229.04 85.3407 229.186 85.2058C229.333 85.0686 229.508 85 229.712 85C229.917 85 230.092 85.0686 230.237 85.2058C230.383 85.3407 230.457 85.5051 230.457 85.6991C230.457 85.8908 230.383 86.0552 230.237 86.1924C230.092 86.3273 229.917 86.3947 229.712 86.3947Z" fill="#5D6A7E"/>
<path d="M234.049 92.7259C233.505 92.7259 233.038 92.6064 232.647 92.3674C232.259 92.1285 231.96 91.7984 231.749 91.3773C231.541 90.9538 231.437 90.4664 231.437 89.9152C231.437 89.3615 231.544 88.873 231.757 88.4495C231.97 88.0236 232.27 87.6924 232.658 87.4558C233.048 87.2169 233.51 87.0974 234.042 87.0974C234.484 87.0974 234.876 87.179 235.217 87.3422C235.56 87.5031 235.833 87.7314 236.036 88.0272C236.24 88.3205 236.356 88.6636 236.384 89.0563H235.156C235.107 88.7937 234.988 88.5749 234.801 88.3998C234.617 88.2224 234.37 88.1336 234.06 88.1336C233.797 88.1336 233.566 88.2046 233.368 88.3466C233.169 88.4862 233.014 88.6873 232.903 88.9499C232.794 89.2125 232.74 89.5272 232.74 89.8939C232.74 90.2653 232.794 90.5847 232.903 90.8521C233.012 91.117 233.164 91.3217 233.361 91.466C233.559 91.608 233.792 91.6789 234.06 91.6789C234.249 91.6789 234.418 91.6435 234.567 91.5725C234.719 91.4991 234.845 91.3938 234.947 91.2566C235.049 91.1194 235.119 90.9526 235.156 90.7562H236.384C236.354 91.1419 236.24 91.4838 236.044 91.7819C235.847 92.0776 235.58 92.3095 235.242 92.4774C234.903 92.643 234.506 92.7259 234.049 92.7259Z" fill="#5D6A7E"/>
<path d="M238.724 89.4254V92.6194H237.439V85.3513H238.695V88.0946H238.759C238.887 87.787 239.085 87.5445 239.352 87.3671C239.622 87.1873 239.965 87.0974 240.381 87.0974C240.76 87.0974 241.09 87.1766 241.371 87.3351C241.653 87.4937 241.871 87.7255 242.024 88.0307C242.18 88.3359 242.259 88.7086 242.259 89.1486V92.6194H240.974V89.3473C240.974 88.9806 240.879 88.6955 240.69 88.4921C240.503 88.2862 240.24 88.1833 239.902 88.1833C239.675 88.1833 239.471 88.233 239.292 88.3324C239.114 88.4294 238.975 88.5701 238.873 88.7547C238.774 88.9392 238.724 89.1628 238.724 89.4254Z" fill="#5D6A7E"/>
<path d="M243.568 92.6194V87.1683H244.796V88.0946H244.86C244.973 87.7823 245.161 87.5386 245.424 87.3635C245.687 87.1861 246 87.0974 246.365 87.0974C246.734 87.0974 247.045 87.1873 247.298 87.3671C247.553 87.5445 247.733 87.787 247.837 88.0946H247.894C248.015 87.7918 248.218 87.5504 248.504 87.3706C248.793 87.1885 249.135 87.0974 249.53 87.0974C250.032 87.0974 250.441 87.2559 250.758 87.5729C251.075 87.8899 251.234 88.3525 251.234 88.9605V92.6194H249.945V89.1593C249.945 88.8209 249.855 88.5737 249.676 88.4175C249.496 88.259 249.276 88.1798 249.016 88.1798C248.706 88.1798 248.463 88.2768 248.288 88.4708C248.115 88.6624 248.029 88.912 248.029 89.2196V92.6194H246.769V89.106C246.769 88.8245 246.684 88.5997 246.514 88.4317C246.346 88.2638 246.126 88.1798 245.854 88.1798C245.669 88.1798 245.501 88.2271 245.35 88.3217C245.198 88.414 245.077 88.5453 244.988 88.7156C244.898 88.8836 244.853 89.08 244.853 89.3048V92.6194H243.568Z" fill="#5D6A7E"/>
<path d="M254.95 92.7259C254.404 92.7259 253.932 92.6123 253.534 92.3852C253.139 92.1557 252.835 91.8315 252.622 91.4128C252.409 90.9916 252.303 90.496 252.303 89.9258C252.303 89.3651 252.409 88.873 252.622 88.4495C252.837 88.0236 253.138 87.6924 253.523 87.4558C253.909 87.2169 254.362 87.0974 254.883 87.0974C255.219 87.0974 255.536 87.1518 255.834 87.2606C256.134 87.3671 256.399 87.5327 256.629 87.7575C256.861 87.9822 257.043 88.2685 257.175 88.6163C257.308 88.9617 257.374 89.3734 257.374 89.8513V90.2452H252.906V89.3793H256.143C256.14 89.1332 256.087 88.9144 255.983 88.7227C255.879 88.5287 255.733 88.3761 255.546 88.2649C255.362 88.1537 255.146 88.0981 254.9 88.0981C254.638 88.0981 254.407 88.162 254.208 88.2898C254.01 88.4152 253.855 88.5808 253.743 88.7866C253.635 88.9901 253.579 89.2137 253.577 89.4574V90.2133C253.577 90.5303 253.635 90.8024 253.751 91.0295C253.867 91.2543 254.029 91.427 254.237 91.5476C254.445 91.6659 254.689 91.7251 254.968 91.7251C255.155 91.7251 255.324 91.6991 255.475 91.647C255.627 91.5926 255.758 91.5133 255.869 91.4092C255.98 91.3051 256.064 91.1762 256.121 91.0224L257.321 91.1573C257.245 91.4743 257.101 91.7511 256.888 91.9877C256.677 92.2219 256.407 92.4041 256.079 92.5342C255.75 92.662 255.374 92.7259 254.95 92.7259Z" fill="#5D6A7E"/>
<path d="M259.745 89.4254V92.6194H258.461V87.1683H259.689V88.0946H259.753C259.878 87.7894 260.078 87.5469 260.352 87.3671C260.629 87.1873 260.971 87.0974 261.378 87.0974C261.754 87.0974 262.082 87.1778 262.361 87.3387C262.643 87.4996 262.86 87.7326 263.014 88.0378C263.17 88.343 263.247 88.7133 263.245 89.1486V92.6194H261.96V89.3473C261.96 88.983 261.865 88.6979 261.676 88.4921C261.489 88.2862 261.23 88.1833 260.899 88.1833C260.674 88.1833 260.474 88.233 260.299 88.3324C260.126 88.4294 259.99 88.5701 259.891 88.7547C259.794 88.9392 259.745 89.1628 259.745 89.4254Z" fill="#5D6A7E"/>
<path d="M267.273 87.1683V88.162H264.139V87.1683H267.273ZM264.913 85.8624H266.197V90.9798C266.197 91.1525 266.223 91.285 266.275 91.3773C266.33 91.4672 266.401 91.5287 266.488 91.5618C266.576 91.595 266.673 91.6115 266.779 91.6115C266.86 91.6115 266.933 91.6056 266.999 91.5938C267.068 91.5819 267.12 91.5713 267.155 91.5618L267.372 92.5662C267.303 92.5898 267.205 92.6158 267.077 92.6442C266.952 92.6726 266.798 92.6892 266.616 92.6939C266.294 92.7034 266.004 92.6549 265.747 92.5484C265.489 92.4396 265.284 92.2716 265.133 92.0445C264.984 91.8173 264.91 91.5334 264.913 91.1927V85.8624Z" fill="#5D6A7E"/>
<path d="M270.883 92.6194V85.3513H273.608C274.167 85.3513 274.635 85.4483 275.014 85.6423C275.394 85.8363 275.682 86.1084 275.876 86.4586C276.072 86.8064 276.17 87.2121 276.17 87.6758C276.17 88.1419 276.071 88.5465 275.872 88.8895C275.676 89.2302 275.386 89.494 275.003 89.6809C274.62 89.8655 274.149 89.9577 273.59 89.9577H271.649V88.8647H273.413C273.739 88.8647 274.007 88.8197 274.215 88.7298C274.423 88.6376 274.577 88.5039 274.676 88.3288C274.778 88.1514 274.829 87.9337 274.829 87.6758C274.829 87.418 274.778 87.1979 274.676 87.0157C274.575 86.8312 274.42 86.6916 274.211 86.597C274.003 86.5 273.735 86.4515 273.406 86.4515H272.199V92.6194H270.883ZM274.637 89.3261L276.437 92.6194H274.967L273.2 89.3261H274.637Z" fill="#5D6A7E"/>
<path d="M279.661 92.7259C279.114 92.7259 278.642 92.6123 278.245 92.3852C277.85 92.1557 277.546 91.8315 277.333 91.4128C277.12 90.9916 277.013 90.496 277.013 89.9258C277.013 89.3651 277.12 88.873 277.333 88.4495C277.548 88.0236 277.848 87.6924 278.234 87.4558C278.62 87.2169 279.073 87.0974 279.593 87.0974C279.929 87.0974 280.246 87.1518 280.544 87.2606C280.845 87.3671 281.11 87.5327 281.339 87.7575C281.571 87.9822 281.753 88.2685 281.886 88.6163C282.018 88.9617 282.085 89.3734 282.085 89.8513V90.2452H277.617V89.3793H280.853C280.851 89.1332 280.798 88.9144 280.693 88.7227C280.589 88.5287 280.444 88.3761 280.257 88.2649C280.072 88.1537 279.857 88.0981 279.611 88.0981C279.348 88.0981 279.118 88.162 278.919 88.2898C278.72 88.4152 278.565 88.5808 278.454 88.7866C278.345 88.9901 278.29 89.2137 278.287 89.4574V90.2133C278.287 90.5303 278.345 90.8024 278.461 91.0295C278.577 91.2543 278.739 91.427 278.947 91.5476C279.156 91.6659 279.399 91.7251 279.679 91.7251C279.865 91.7251 280.035 91.6991 280.186 91.647C280.337 91.5926 280.469 91.5133 280.58 91.4092C280.691 91.3051 280.775 91.1762 280.832 91.0224L282.031 91.1573C281.956 91.4743 281.811 91.7511 281.598 91.9877C281.388 92.2219 281.118 92.4041 280.789 92.5342C280.46 92.662 280.084 92.7259 279.661 92.7259Z" fill="#5D6A7E"/>
<path d="M287.48 88.6092L286.309 88.7369C286.276 88.6186 286.218 88.5074 286.135 88.4033C286.054 88.2992 285.945 88.2153 285.808 88.1514C285.671 88.0875 285.503 88.0556 285.304 88.0556C285.037 88.0556 284.812 88.1135 284.63 88.2295C284.45 88.3454 284.362 88.4956 284.364 88.6802C284.362 88.8387 284.419 88.9676 284.538 89.067C284.658 89.1664 284.857 89.248 285.134 89.3119L286.064 89.5106C286.58 89.6218 286.963 89.798 287.214 90.0394C287.467 90.2807 287.595 90.5965 287.597 90.9869C287.595 91.33 287.494 91.6328 287.295 91.8954C287.099 92.1557 286.826 92.3591 286.475 92.5058C286.125 92.6525 285.723 92.7259 285.269 92.7259C284.602 92.7259 284.065 92.5863 283.658 92.3071C283.251 92.0255 283.008 91.634 282.93 91.1324L284.183 91.0118C284.24 91.2578 284.36 91.4435 284.545 91.5689C284.729 91.6943 284.97 91.757 285.265 91.757C285.57 91.757 285.815 91.6943 286 91.5689C286.187 91.4435 286.28 91.2886 286.28 91.104C286.28 90.9479 286.22 90.8189 286.099 90.7172C285.981 90.6155 285.796 90.5374 285.546 90.483L284.616 90.2878C284.093 90.179 283.706 89.9956 283.455 89.7377C283.205 89.4775 283.08 89.1486 283.083 88.7511C283.08 88.4152 283.171 88.1242 283.356 87.8781C283.543 87.6297 283.802 87.4381 284.133 87.3032C284.467 87.166 284.851 87.0974 285.287 87.0974C285.925 87.0974 286.428 87.2334 286.795 87.5055C287.164 87.7776 287.392 88.1455 287.48 88.6092Z" fill="#5D6A7E"/>
<path d="M292.131 90.3268V87.1683H293.415V92.6194H292.17V91.6505H292.113C291.99 91.9558 291.787 92.2054 291.506 92.3994C291.227 92.5934 290.883 92.6904 290.473 92.6904C290.116 92.6904 289.8 92.6111 289.526 92.4526C289.254 92.2917 289.041 92.0587 288.887 91.7535C288.733 91.4459 288.656 91.0745 288.656 90.6391V87.1683H289.941V90.4404C289.941 90.7858 290.036 91.0603 290.225 91.2637C290.414 91.4672 290.662 91.5689 290.97 91.5689C291.159 91.5689 291.343 91.5228 291.52 91.4305C291.698 91.3383 291.843 91.201 291.957 91.0189C292.073 90.8343 292.131 90.6036 292.131 90.3268Z" fill="#5D6A7E"/>
<path d="M296.021 85.3513V92.6194H294.736V85.3513H296.021Z" fill="#5D6A7E"/>
<path d="M300.064 87.1683V88.162H296.93V87.1683H300.064ZM297.704 85.8624H298.989V90.9798C298.989 91.1525 299.015 91.285 299.067 91.3773C299.121 91.4672 299.192 91.5287 299.28 91.5618C299.367 91.595 299.464 91.6115 299.571 91.6115C299.651 91.6115 299.724 91.6056 299.791 91.5938C299.859 91.5819 299.911 91.5713 299.947 91.5618L300.163 92.5662C300.095 92.5898 299.997 92.6158 299.869 92.6442C299.743 92.6726 299.59 92.6892 299.407 92.6939C299.086 92.7034 298.796 92.6549 298.538 92.5484C298.28 92.4396 298.075 92.2716 297.924 92.0445C297.775 91.8173 297.702 91.5334 297.704 91.1927V85.8624Z" fill="#5D6A7E"/>
<path d="M252.647 113.102V121.137H251.431V114.319H251.384L249.461 115.574V114.413L251.466 113.102H252.647Z" fill="#949FB1"/>
<path d="M257.618 121.271C256.998 121.268 256.468 121.105 256.029 120.78C255.59 120.456 255.253 119.984 255.021 119.364C254.788 118.744 254.672 117.997 254.672 117.124C254.672 116.253 254.788 115.509 255.021 114.891C255.256 114.274 255.593 113.803 256.033 113.479C256.475 113.155 257.003 112.993 257.618 112.993C258.233 112.993 258.76 113.156 259.199 113.483C259.638 113.807 259.974 114.278 260.207 114.895C260.443 115.51 260.56 116.253 260.56 117.124C260.56 118 260.444 118.748 260.211 119.368C259.978 119.985 259.642 120.457 259.203 120.784C258.763 121.109 258.235 121.271 257.618 121.271ZM257.618 120.223C258.162 120.223 258.587 119.958 258.893 119.427C259.202 118.896 259.356 118.128 259.356 117.124C259.356 116.457 259.285 115.893 259.144 115.433C259.005 114.97 258.805 114.619 258.544 114.381C258.285 114.141 257.976 114.021 257.618 114.021C257.076 114.021 256.651 114.287 256.343 114.821C256.034 115.354 255.879 116.122 255.876 117.124C255.876 117.793 255.945 118.36 256.084 118.823C256.225 119.283 256.425 119.632 256.684 119.87C256.943 120.105 257.254 120.223 257.618 120.223Z" fill="#949FB1"/>
<path d="M261.952 121.137V120.259L264.671 117.442C264.961 117.136 265.201 116.867 265.389 116.637C265.58 116.405 265.722 116.184 265.817 115.974C265.911 115.765 265.958 115.543 265.958 115.307C265.958 115.041 265.895 114.81 265.769 114.617C265.644 114.421 265.473 114.27 265.256 114.166C265.038 114.058 264.794 114.005 264.522 114.005C264.234 114.005 263.983 114.064 263.769 114.181C263.554 114.299 263.389 114.465 263.274 114.68C263.159 114.894 263.102 115.145 263.102 115.433H261.944C261.944 114.944 262.057 114.516 262.282 114.15C262.507 113.784 262.815 113.5 263.208 113.299C263.6 113.095 264.046 112.993 264.545 112.993C265.05 112.993 265.495 113.093 265.879 113.295C266.266 113.493 266.569 113.765 266.786 114.111C267.003 114.453 267.111 114.84 267.111 115.272C267.111 115.57 267.055 115.862 266.943 116.147C266.833 116.432 266.64 116.75 266.366 117.1C266.091 117.448 265.709 117.871 265.22 118.367L263.623 120.039V120.098H267.241V121.137H261.952Z" fill="#949FB1"/>
<path d="M271.803 112.726L269.214 122.346H268.167L270.756 112.726H271.803Z" fill="#949FB1"/>
<path d="M275.833 113.102V121.137H274.616V114.319H274.569L272.647 115.574V114.413L274.652 113.102H275.833Z" fill="#949FB1"/>
<path d="M280.803 121.271C280.184 121.268 279.654 121.105 279.215 120.78C278.775 120.456 278.439 119.984 278.206 119.364C277.973 118.744 277.857 117.997 277.857 117.124C277.857 116.253 277.973 115.509 278.206 114.891C278.442 114.274 278.779 113.803 279.218 113.479C279.66 113.155 280.189 112.993 280.803 112.993C281.418 112.993 281.945 113.156 282.385 113.483C282.824 113.807 283.16 114.278 283.393 114.895C283.628 115.51 283.746 116.253 283.746 117.124C283.746 118 283.629 118.748 283.397 119.368C283.164 119.985 282.828 120.457 282.388 120.784C281.949 121.109 281.421 121.271 280.803 121.271ZM280.803 120.223C281.347 120.223 281.772 119.958 282.078 119.427C282.387 118.896 282.541 118.128 282.541 117.124C282.541 116.457 282.471 115.893 282.33 115.433C282.191 114.97 281.991 114.619 281.729 114.381C281.47 114.141 281.162 114.021 280.803 114.021C280.262 114.021 279.837 114.287 279.528 114.821C279.22 115.354 279.064 116.122 279.062 117.124C279.062 117.793 279.131 118.36 279.269 118.823C279.411 119.283 279.611 119.632 279.87 119.87C280.129 120.105 280.44 120.223 280.803 120.223Z" fill="#949FB1"/>
<path d="M285.138 121.137V120.259L287.856 117.442C288.147 117.136 288.386 116.867 288.574 116.637C288.765 116.405 288.908 116.184 289.002 115.974C289.096 115.765 289.143 115.543 289.143 115.307C289.143 115.041 289.081 114.81 288.955 114.617C288.829 114.421 288.658 114.27 288.441 114.166C288.224 114.058 287.979 114.005 287.707 114.005C287.42 114.005 287.169 114.064 286.954 114.181C286.74 114.299 286.575 114.465 286.46 114.68C286.345 114.894 286.287 115.145 286.287 115.433H285.13C285.13 114.944 285.242 114.516 285.467 114.15C285.692 113.784 286.001 113.5 286.393 113.299C286.785 113.095 287.231 112.993 287.731 112.993C288.236 112.993 288.68 113.093 289.065 113.295C289.452 113.493 289.754 113.765 289.971 114.111C290.188 114.453 290.297 114.84 290.297 115.272C290.297 115.57 290.241 115.862 290.128 116.147C290.018 116.432 289.826 116.75 289.551 117.1C289.277 117.448 288.895 117.871 288.406 118.367L286.809 120.039V120.098H290.426V121.137H285.138Z" fill="#949FB1"/>
<rect x="227.888" y="132.674" width="84.1125" height="123.254" fill="#FFBF8E"/>
<rect x="253.705" y="264.256" width="32.4791" height="6.66238" rx="3.33119" fill="#E8EEF4"/>
<path d="M346.821 224.404V223.525L349.54 220.708C349.83 220.402 350.069 220.134 350.258 219.904C350.449 219.671 350.591 219.45 350.685 219.241C350.779 219.032 350.826 218.81 350.826 218.574C350.826 218.307 350.764 218.077 350.638 217.884C350.513 217.688 350.341 217.537 350.124 217.433C349.907 217.325 349.663 217.272 349.391 217.272C349.103 217.272 348.852 217.331 348.637 217.448C348.423 217.566 348.258 217.732 348.143 217.946C348.028 218.161 347.97 218.412 347.97 218.7H346.813C346.813 218.211 346.925 217.783 347.15 217.417C347.375 217.051 347.684 216.767 348.076 216.565C348.469 216.361 348.915 216.259 349.414 216.259C349.919 216.259 350.364 216.36 350.748 216.562C351.135 216.76 351.437 217.032 351.654 217.378C351.871 217.72 351.98 218.107 351.98 218.539C351.98 218.837 351.924 219.129 351.811 219.414C351.701 219.699 351.509 220.017 351.235 220.367C350.96 220.715 350.578 221.137 350.089 221.634L348.492 223.306V223.364H352.109V224.404H346.821Z" fill="#949FB1"/>
<path d="M356.394 224.538C355.774 224.535 355.244 224.371 354.805 224.047C354.365 223.723 354.029 223.251 353.796 222.631C353.564 222.011 353.447 221.264 353.447 220.391C353.447 219.52 353.564 218.776 353.796 218.158C354.032 217.541 354.369 217.07 354.809 216.746C355.251 216.422 355.779 216.259 356.394 216.259C357.008 216.259 357.535 216.423 357.975 216.75C358.414 217.074 358.75 217.545 358.983 218.162C359.218 218.777 359.336 219.52 359.336 220.391C359.336 221.267 359.22 222.015 358.987 222.635C358.754 223.252 358.418 223.724 357.979 224.051C357.539 224.375 357.011 224.538 356.394 224.538ZM356.394 223.49C356.938 223.49 357.363 223.225 357.669 222.694C357.977 222.163 358.132 221.395 358.132 220.391C358.132 219.724 358.061 219.16 357.92 218.7C357.781 218.237 357.581 217.886 357.319 217.648C357.061 217.408 356.752 217.287 356.394 217.287C355.852 217.287 355.427 217.554 355.119 218.088C354.81 218.621 354.654 219.389 354.652 220.391C354.652 221.06 354.721 221.626 354.86 222.089C355.001 222.55 355.201 222.899 355.46 223.137C355.719 223.372 356.03 223.49 356.394 223.49Z" fill="#949FB1"/>
<path d="M363.804 215.993L361.214 225.613H360.167L362.756 215.993H363.804Z" fill="#949FB1"/>
<path d="M364.785 224.404V223.525L367.503 220.708C367.794 220.402 368.033 220.134 368.221 219.904C368.412 219.671 368.555 219.45 368.649 219.241C368.743 219.032 368.79 218.81 368.79 218.574C368.79 218.307 368.727 218.077 368.602 217.884C368.476 217.688 368.305 217.537 368.088 217.433C367.871 217.325 367.626 217.272 367.354 217.272C367.067 217.272 366.815 217.331 366.601 217.448C366.387 217.566 366.222 217.732 366.107 217.946C365.992 218.161 365.934 218.412 365.934 218.7H364.777C364.777 218.211 364.889 217.783 365.114 217.417C365.339 217.051 365.648 216.767 366.04 216.565C366.432 216.361 366.878 216.259 367.378 216.259C367.883 216.259 368.327 216.36 368.712 216.562C369.099 216.76 369.401 217.032 369.618 217.378C369.835 217.72 369.944 218.107 369.944 218.539C369.944 218.837 369.887 219.129 369.775 219.414C369.665 219.699 369.473 220.017 369.198 220.367C368.924 220.715 368.542 221.137 368.053 221.634L366.456 223.306V223.364H370.073V224.404H364.785Z" fill="#949FB1"/>
<path d="M374.357 224.538C373.737 224.535 373.208 224.371 372.768 224.047C372.329 223.723 371.993 223.251 371.76 222.631C371.527 222.011 371.411 221.264 371.411 220.391C371.411 219.52 371.527 218.776 371.76 218.158C371.995 217.541 372.333 217.07 372.772 216.746C373.214 216.422 373.743 216.259 374.357 216.259C374.972 216.259 375.499 216.423 375.938 216.75C376.378 217.074 376.714 217.545 376.947 218.162C377.182 218.777 377.3 219.52 377.3 220.391C377.3 221.267 377.183 222.015 376.951 222.635C376.718 223.252 376.382 223.724 375.942 224.051C375.503 224.375 374.975 224.538 374.357 224.538ZM374.357 223.49C374.901 223.49 375.326 223.225 375.632 222.694C375.941 222.163 376.095 221.395 376.095 220.391C376.095 219.724 376.025 219.16 375.883 218.7C375.745 218.237 375.545 217.886 375.283 217.648C375.024 217.408 374.716 217.287 374.357 217.287C373.816 217.287 373.391 217.554 373.082 218.088C372.774 218.621 372.618 219.389 372.615 220.391C372.615 221.06 372.685 221.626 372.823 222.089C372.965 222.55 373.165 222.899 373.424 223.137C373.682 223.372 373.994 223.49 374.357 223.49Z" fill="#949FB1"/>
<rect x="320" y="235.94" width="84.1125" height="19.9871" fill="#02C797"/>
<rect x="345.817" y="264.256" width="32.4791" height="6.66238" rx="3.33119" fill="#E8EEF4"/>
</g>
<defs>
<filter id="filter0_d_307_14592" x="0" y="0" width="264" height="264.346" filterUnits="userSpaceOnUse" color-interpolation-filters="sRGB">
<feFlood flood-opacity="0" result="BackgroundImageFix"/>
<feColorMatrix in="SourceAlpha" type="matrix" values="0 0 0 0 0 0 0 0 0 0 0 0 0 0 0 0 0 0 127 0" result="hardAlpha"/>
<feOffset dy="4"/>
<feGaussianBlur stdDeviation="4.5"/>
<feColorMatrix type="matrix" values="0 0 0 0 0 0 0 0 0 0 0 0 0 0 0 0 0 0 0.09 0"/>
<feBlend mode="normal" in2="BackgroundImageFix" result="effect1_dropShadow_307_14592"/>
<feBlend mode="normal" in="SourceGraphic" in2="effect1_dropShadow_307_14592" result="shape"/>
</filter>
<filter id="filter1_d_307_14592" x="184" y="62" width="264" height="237.918" filterUnits="userSpaceOnUse" color-interpolation-filters="sRGB">
<feFlood flood-opacity="0" result="BackgroundImageFix"/>
<feColorMatrix in="SourceAlpha" type="matrix" values="0 0 0 0 0 0 0 0 0 0 0 0 0 0 0 0 0 0 127 0" result="hardAlpha"/>
<feOffset dy="4"/>
<feGaussianBlur stdDeviation="4.5"/>
<feColorMatrix type="matrix" values="0 0 0 0 0 0 0 0 0 0 0 0 0 0 0 0 0 0 0.09 0"/>
<feBlend mode="normal" in2="BackgroundImageFix" result="effect1_dropShadow_307_14592"/>
<feBlend mode="normal" in="SourceGraphic" in2="effect1_dropShadow_307_14592" result="shape"/>
</filter>
</defs>
</svg>
