<svg width="558" height="206" viewBox="0 0 558 206" fill="none" xmlns="http://www.w3.org/2000/svg">
<g filter="url(#filter0_d_18_2046)">
<path d="M9 10C9 7.23859 11.2386 5 14 5H543.354C546.115 5 548.354 7.23858 548.354 10V187.149C548.354 189.911 546.115 192.149 543.354 192.149H14C11.2386 192.149 9 189.911 9 187.149V10Z" fill="white"/>
<path d="M37.0327 21.4219V30.1491H35.6265L31.5142 24.2045H31.4418V30.1491H29.8608V21.4219H31.2756L35.3836 27.3707H35.4603V21.4219H37.0327Z" fill="#1991EB"/>
<path d="M40.5707 30.2812C40.1559 30.2812 39.7824 30.2074 39.45 30.0597C39.1204 29.9091 38.8591 29.6875 38.6659 29.3949C38.4755 29.1023 38.3804 28.7415 38.3804 28.3125C38.3804 27.9432 38.4486 27.6378 38.5849 27.3963C38.7213 27.1548 38.9074 26.9616 39.1432 26.8168C39.379 26.6719 39.6446 26.5625 39.94 26.4886C40.2383 26.4119 40.5466 26.3565 40.8647 26.3224C41.2483 26.2827 41.5593 26.2472 41.798 26.2159C42.0366 26.1818 42.2099 26.1307 42.3179 26.0625C42.4287 25.9915 42.4841 25.8821 42.4841 25.7344V25.7088C42.4841 25.3878 42.3889 25.1392 42.1986 24.9631C42.0082 24.7869 41.7341 24.6989 41.3761 24.6989C40.9983 24.6989 40.6986 24.7813 40.477 24.946C40.2582 25.1108 40.1105 25.3054 40.0338 25.5298L38.5934 25.3253C38.7071 24.9276 38.8946 24.5952 39.1559 24.3281C39.4173 24.0582 39.7369 23.8565 40.1147 23.723C40.4926 23.5866 40.9102 23.5185 41.3676 23.5185C41.6829 23.5185 41.9968 23.5554 42.3093 23.6293C42.6218 23.7031 42.9074 23.8253 43.1659 23.9957C43.4244 24.1634 43.6318 24.392 43.788 24.6818C43.9471 24.9716 44.0267 25.3338 44.0267 25.7685V30.1491H42.5437V29.25H42.4926C42.3988 29.4318 42.2667 29.6023 42.0963 29.7614C41.9287 29.9176 41.717 30.044 41.4613 30.1406C41.2085 30.2344 40.9116 30.2812 40.5707 30.2812ZM40.9713 29.1477C41.2809 29.1477 41.5494 29.0866 41.7767 28.9645C42.004 28.8395 42.1787 28.6747 42.3008 28.4702C42.4258 28.2656 42.4883 28.0426 42.4883 27.8011V27.0298C42.44 27.0696 42.3576 27.1065 42.2412 27.1406C42.1275 27.1747 41.9997 27.2045 41.8576 27.2301C41.7156 27.2557 41.575 27.2784 41.4358 27.2983C41.2966 27.3182 41.1758 27.3352 41.0736 27.3494C40.8434 27.3807 40.6375 27.4318 40.4557 27.5028C40.2738 27.5739 40.1304 27.6733 40.0253 27.8011C39.9201 27.9261 39.8676 28.0881 39.8676 28.2869C39.8676 28.571 39.9713 28.7855 40.1787 28.9304C40.3861 29.0753 40.6503 29.1477 40.9713 29.1477Z" fill="#1991EB"/>
<path d="M45.5778 30.1491V23.6037H47.0522V24.7159H47.129C47.2653 24.3409 47.4912 24.0483 47.8065 23.8381C48.1218 23.625 48.4983 23.5185 48.9358 23.5185C49.379 23.5185 49.7525 23.6264 50.0565 23.8423C50.3633 24.0554 50.5792 24.3466 50.7042 24.7159H50.7724C50.9173 24.3523 51.1616 24.0625 51.5054 23.8466C51.852 23.6278 52.2625 23.5185 52.7369 23.5185C53.3392 23.5185 53.8307 23.7088 54.2113 24.0895C54.592 24.4702 54.7824 25.0256 54.7824 25.7557V30.1491H53.2355V25.9943C53.2355 25.5881 53.1275 25.2912 52.9116 25.1037C52.6957 24.9134 52.4315 24.8182 52.119 24.8182C51.7468 24.8182 51.4557 24.9347 51.2454 25.1676C51.038 25.3977 50.9343 25.6974 50.9343 26.0668V30.1491H49.4216V25.9304C49.4216 25.5923 49.3193 25.3224 49.1147 25.1207C48.913 24.919 48.6488 24.8182 48.3221 24.8182C48.1005 24.8182 47.8988 24.875 47.717 24.9886C47.5352 25.0994 47.3903 25.2571 47.2824 25.4616C47.1744 25.6634 47.1204 25.8991 47.1204 26.169V30.1491H45.5778Z" fill="#1991EB"/>
<path d="M59.2451 30.277C58.5888 30.277 58.0221 30.1406 57.5448 29.8679C57.0704 29.5923 56.7053 29.2031 56.4496 28.7003C56.1939 28.1946 56.0661 27.5994 56.0661 26.9148C56.0661 26.2415 56.1939 25.6506 56.4496 25.142C56.7081 24.6307 57.0689 24.233 57.532 23.9489C57.9951 23.6619 58.5391 23.5185 59.1641 23.5185C59.5675 23.5185 59.9482 23.5838 60.3062 23.7145C60.6669 23.8423 60.9851 24.0412 61.2607 24.3111C61.5391 24.581 61.7579 24.9247 61.917 25.3423C62.076 25.7571 62.1556 26.2514 62.1556 26.8253V27.2983H56.7905V26.2585H60.6769C60.6741 25.9631 60.6101 25.7003 60.4851 25.4702C60.3601 25.2372 60.1854 25.054 59.961 24.9205C59.7394 24.7869 59.4809 24.7202 59.1854 24.7202C58.8701 24.7202 58.5931 24.7969 58.3544 24.9503C58.1158 25.1009 57.9297 25.2997 57.7962 25.5469C57.6655 25.7912 57.5988 26.0597 57.5959 26.3523V27.2599C57.5959 27.6406 57.6655 27.9673 57.8047 28.2401C57.9439 28.5099 58.1385 28.7173 58.3885 28.8622C58.6385 29.0043 58.9312 29.0753 59.2664 29.0753C59.4908 29.0753 59.6939 29.044 59.8758 28.9815C60.0576 28.9162 60.2152 28.821 60.3488 28.696C60.4823 28.571 60.5831 28.4162 60.6513 28.2315L62.0917 28.3935C62.0008 28.7741 61.8275 29.1065 61.5718 29.3906C61.3189 29.6719 60.9951 29.8906 60.6002 30.0469C60.2053 30.2003 59.7536 30.277 59.2451 30.277Z" fill="#1991EB"/>
<path d="M120.861 30.1491V21.4219H124.134C124.804 21.4219 125.367 21.5469 125.821 21.7969C126.278 22.0469 126.624 22.3906 126.857 22.8281C127.092 23.2628 127.21 23.7571 127.21 24.3111C127.21 24.8707 127.092 25.3679 126.857 25.8026C126.621 26.2372 126.273 26.5795 125.813 26.8295C125.352 27.0767 124.786 27.2003 124.112 27.2003H121.943V25.9006H123.899C124.291 25.9006 124.612 25.8324 124.862 25.696C125.112 25.5597 125.297 25.3722 125.416 25.1335C125.538 24.8949 125.599 24.6207 125.599 24.3111C125.599 24.0014 125.538 23.7287 125.416 23.4929C125.297 23.2571 125.111 23.0739 124.858 22.9432C124.608 22.8097 124.286 22.7429 123.891 22.7429H122.442V30.1491H120.861Z" fill="#1991EB"/>
<path d="M128.515 30.1491V23.6037H130.011V24.6946H130.079C130.199 24.3168 130.403 24.0256 130.693 23.821C130.985 23.6136 131.319 23.5099 131.694 23.5099C131.78 23.5099 131.875 23.5142 131.98 23.5227C132.088 23.5284 132.177 23.5384 132.248 23.5526V24.9716C132.183 24.9489 132.079 24.929 131.937 24.9119C131.798 24.892 131.663 24.8821 131.532 24.8821C131.251 24.8821 130.998 24.9432 130.774 25.0653C130.552 25.1847 130.378 25.3509 130.25 25.5639C130.122 25.777 130.058 26.0227 130.058 26.3011V30.1491H128.515Z" fill="#1991EB"/>
<path d="M135.859 30.277C135.22 30.277 134.666 30.1364 134.197 29.8551C133.728 29.5739 133.364 29.1804 133.106 28.6747C132.85 28.169 132.722 27.5781 132.722 26.902C132.722 26.2259 132.85 25.6335 133.106 25.125C133.364 24.6165 133.728 24.2216 134.197 23.9403C134.666 23.6591 135.22 23.5185 135.859 23.5185C136.498 23.5185 137.052 23.6591 137.521 23.9403C137.989 24.2216 138.352 24.6165 138.607 25.125C138.866 25.6335 138.995 26.2259 138.995 26.902C138.995 27.5781 138.866 28.169 138.607 28.6747C138.352 29.1804 137.989 29.5739 137.521 29.8551C137.052 30.1364 136.498 30.277 135.859 30.277ZM135.867 29.0412C136.214 29.0412 136.504 28.946 136.737 28.7557C136.97 28.5625 137.143 28.304 137.256 27.9801C137.373 27.6563 137.431 27.2955 137.431 26.8977C137.431 26.4972 137.373 26.1349 137.256 25.8111C137.143 25.4844 136.97 25.2244 136.737 25.0312C136.504 24.8381 136.214 24.7415 135.867 24.7415C135.512 24.7415 135.217 24.8381 134.981 25.0312C134.748 25.2244 134.573 25.4844 134.457 25.8111C134.343 26.1349 134.286 26.4972 134.286 26.8977C134.286 27.2955 134.343 27.6563 134.457 27.9801C134.573 28.304 134.748 28.5625 134.981 28.7557C135.217 28.946 135.512 29.0412 135.867 29.0412Z" fill="#1991EB"/>
<path d="M143.151 32.7401C142.597 32.7401 142.121 32.6648 141.723 32.5142C141.326 32.3665 141.006 32.1676 140.765 31.9176C140.523 31.6676 140.356 31.3906 140.262 31.0866L141.651 30.75C141.713 30.8778 141.804 31.0043 141.924 31.1293C142.043 31.2571 142.204 31.3622 142.405 31.4446C142.61 31.5298 142.867 31.5724 143.177 31.5724C143.614 31.5724 143.976 31.4659 144.263 31.2528C144.55 31.0426 144.694 30.696 144.694 30.2131V28.973H144.617C144.537 29.1321 144.421 29.2955 144.267 29.4631C144.117 29.6307 143.917 29.7713 143.667 29.8849C143.419 29.9986 143.108 30.0554 142.733 30.0554C142.231 30.0554 141.775 29.9375 141.365 29.7017C140.959 29.4631 140.635 29.108 140.394 28.6364C140.155 28.1619 140.036 27.5682 140.036 26.8551C140.036 26.1364 140.155 25.5298 140.394 25.0355C140.635 24.5384 140.961 24.1619 141.37 23.9062C141.779 23.6477 142.235 23.5185 142.738 23.5185C143.121 23.5185 143.436 23.5838 143.684 23.7145C143.934 23.8423 144.132 23.9972 144.28 24.179C144.428 24.358 144.54 24.527 144.617 24.6861H144.702V23.6037H146.223V30.2557C146.223 30.8153 146.09 31.2784 145.823 31.6449C145.556 32.0114 145.191 32.2855 144.728 32.4673C144.265 32.6491 143.739 32.7401 143.151 32.7401ZM143.164 28.8452C143.49 28.8452 143.769 28.7656 143.999 28.6065C144.229 28.4474 144.404 28.2188 144.523 27.9205C144.642 27.6222 144.702 27.2642 144.702 26.8466C144.702 26.4347 144.642 26.0739 144.523 25.7642C144.407 25.4545 144.233 25.2145 144.003 25.044C143.776 24.8707 143.496 24.7841 143.164 24.7841C142.82 24.7841 142.533 24.8736 142.303 25.0526C142.073 25.2315 141.9 25.4773 141.783 25.7898C141.667 26.0994 141.608 26.4517 141.608 26.8466C141.608 27.2472 141.667 27.598 141.783 27.8991C141.902 28.1974 142.077 28.4304 142.307 28.598C142.54 28.7628 142.826 28.8452 143.164 28.8452Z" fill="#1991EB"/>
<path d="M147.804 30.1491V23.6037H149.3V24.6946H149.368C149.488 24.3168 149.692 24.0256 149.982 23.821C150.275 23.6136 150.608 23.5099 150.983 23.5099C151.069 23.5099 151.164 23.5142 151.269 23.5227C151.377 23.5284 151.466 23.5384 151.537 23.5526V24.9716C151.472 24.9489 151.368 24.929 151.226 24.9119C151.087 24.892 150.952 24.8821 150.821 24.8821C150.54 24.8821 150.287 24.9432 150.063 25.0653C149.841 25.1847 149.667 25.3509 149.539 25.5639C149.411 25.777 149.347 26.0227 149.347 26.3011V30.1491H147.804Z" fill="#1991EB"/>
<path d="M155.19 30.277C154.534 30.277 153.967 30.1406 153.49 29.8679C153.016 29.5923 152.651 29.2031 152.395 28.7003C152.139 28.1946 152.011 27.5994 152.011 26.9148C152.011 26.2415 152.139 25.6506 152.395 25.142C152.653 24.6307 153.014 24.233 153.477 23.9489C153.94 23.6619 154.484 23.5185 155.109 23.5185C155.513 23.5185 155.894 23.5838 156.251 23.7145C156.612 23.8423 156.93 24.0412 157.206 24.3111C157.484 24.581 157.703 24.9247 157.862 25.3423C158.021 25.7571 158.101 26.2514 158.101 26.8253V27.2983H152.736V26.2585H156.622C156.619 25.9631 156.555 25.7003 156.43 25.4702C156.305 25.2372 156.131 25.054 155.906 24.9205C155.685 24.7869 155.426 24.7202 155.131 24.7202C154.815 24.7202 154.538 24.7969 154.3 24.9503C154.061 25.1009 153.875 25.2997 153.742 25.5469C153.611 25.7912 153.544 26.0597 153.541 26.3523V27.2599C153.541 27.6406 153.611 27.9673 153.75 28.2401C153.889 28.5099 154.084 28.7173 154.334 28.8622C154.584 29.0043 154.876 29.0753 155.212 29.0753C155.436 29.0753 155.639 29.044 155.821 28.9815C156.003 28.9162 156.161 28.821 156.294 28.696C156.428 28.571 156.528 28.4162 156.597 28.2315L158.037 28.3935C157.946 28.7741 157.773 29.1065 157.517 29.3906C157.264 29.6719 156.94 29.8906 156.546 30.0469C156.151 30.2003 155.699 30.277 155.19 30.277Z" fill="#1991EB"/>
<path d="M164.579 25.3338L163.173 25.4872C163.133 25.3452 163.064 25.2116 162.964 25.0866C162.868 24.9616 162.737 24.8608 162.572 24.7841C162.407 24.7074 162.206 24.669 161.967 24.669C161.646 24.669 161.376 24.7386 161.157 24.8778C160.941 25.017 160.835 25.1974 160.838 25.419C160.835 25.6094 160.905 25.7642 161.047 25.8835C161.191 26.0028 161.43 26.1009 161.762 26.1776L162.879 26.4162C163.498 26.5497 163.958 26.7614 164.26 27.0511C164.564 27.3409 164.717 27.7202 164.72 28.1889C164.717 28.6009 164.596 28.9645 164.358 29.2798C164.122 29.5923 163.794 29.8366 163.373 30.0128C162.953 30.1889 162.47 30.277 161.924 30.277C161.123 30.277 160.478 30.1094 159.99 29.7741C159.501 29.4361 159.21 28.9659 159.116 28.3636L160.62 28.2188C160.689 28.5142 160.833 28.7372 161.055 28.8878C161.277 29.0384 161.565 29.1136 161.92 29.1136C162.287 29.1136 162.581 29.0384 162.802 28.8878C163.027 28.7372 163.139 28.5511 163.139 28.3295C163.139 28.142 163.066 27.9872 162.922 27.8651C162.78 27.7429 162.558 27.6491 162.257 27.5838L161.14 27.3494C160.512 27.2188 160.048 26.9986 159.747 26.6889C159.446 26.3764 159.297 25.9815 159.299 25.5043C159.297 25.1009 159.406 24.7514 159.628 24.456C159.852 24.1577 160.163 23.9276 160.561 23.7656C160.961 23.6009 161.423 23.5185 161.946 23.5185C162.713 23.5185 163.316 23.6818 163.757 24.0085C164.2 24.3352 164.474 24.777 164.579 25.3338Z" fill="#1991EB"/>
<path d="M171.165 25.3338L169.759 25.4872C169.719 25.3452 169.65 25.2116 169.55 25.0866C169.454 24.9616 169.323 24.8608 169.158 24.7841C168.993 24.7074 168.792 24.669 168.553 24.669C168.232 24.669 167.962 24.7386 167.743 24.8778C167.527 25.017 167.421 25.1974 167.424 25.419C167.421 25.6094 167.49 25.7642 167.633 25.8835C167.777 26.0028 168.016 26.1009 168.348 26.1776L169.465 26.4162C170.084 26.5497 170.544 26.7614 170.846 27.0511C171.15 27.3409 171.303 27.7202 171.306 28.1889C171.303 28.6009 171.182 28.9645 170.944 29.2798C170.708 29.5923 170.38 29.8366 169.959 30.0128C169.539 30.1889 169.056 30.277 168.51 30.277C167.709 30.277 167.064 30.1094 166.576 29.7741C166.087 29.4361 165.796 28.9659 165.702 28.3636L167.206 28.2188C167.275 28.5142 167.419 28.7372 167.641 28.8878C167.863 29.0384 168.151 29.1136 168.506 29.1136C168.873 29.1136 169.167 29.0384 169.388 28.8878C169.613 28.7372 169.725 28.5511 169.725 28.3295C169.725 28.142 169.652 27.9872 169.508 27.8651C169.365 27.7429 169.144 27.6491 168.843 27.5838L167.726 27.3494C167.098 27.2188 166.634 26.9986 166.333 26.6889C166.032 26.3764 165.883 25.9815 165.885 25.5043C165.883 25.1009 165.992 24.7514 166.213 24.456C166.438 24.1577 166.749 23.9276 167.147 23.7656C167.547 23.6009 168.009 23.5185 168.532 23.5185C169.299 23.5185 169.902 23.6818 170.343 24.0085C170.786 24.3352 171.06 24.777 171.165 25.3338Z" fill="#1991EB"/>
<path d="M255.477 22.7472V21.4219H262.44V22.7472H259.743V30.1491H258.174V22.7472H255.477Z" fill="#1991EB"/>
<path d="M265.62 30.277C264.981 30.277 264.427 30.1364 263.958 29.8551C263.489 29.5739 263.126 29.1804 262.867 28.6747C262.612 28.169 262.484 27.5781 262.484 26.902C262.484 26.2259 262.612 25.6335 262.867 25.125C263.126 24.6165 263.489 24.2216 263.958 23.9403C264.427 23.6591 264.981 23.5185 265.62 23.5185C266.259 23.5185 266.813 23.6591 267.282 23.9403C267.751 24.2216 268.113 24.6165 268.369 25.125C268.627 25.6335 268.757 26.2259 268.757 26.902C268.757 27.5781 268.627 28.169 268.369 28.6747C268.113 29.1804 267.751 29.5739 267.282 29.8551C266.813 30.1364 266.259 30.277 265.62 30.277ZM265.629 29.0412C265.975 29.0412 266.265 28.946 266.498 28.7557C266.731 28.5625 266.904 28.304 267.018 27.9801C267.134 27.6563 267.193 27.2955 267.193 26.8977C267.193 26.4972 267.134 26.1349 267.018 25.8111C266.904 25.4844 266.731 25.2244 266.498 25.0312C266.265 24.8381 265.975 24.7415 265.629 24.7415C265.274 24.7415 264.978 24.8381 264.742 25.0312C264.509 25.2244 264.335 25.4844 264.218 25.8111C264.105 26.1349 264.048 26.4972 264.048 26.8977C264.048 27.2955 264.105 27.6563 264.218 27.9801C264.335 28.304 264.509 28.5625 264.742 28.7557C264.978 28.946 265.274 29.0412 265.629 29.0412Z" fill="#1991EB"/>
<path d="M273.334 23.6037V24.7969H269.572V23.6037H273.334ZM270.5 22.0355H272.043V28.1804C272.043 28.3878 272.074 28.5469 272.137 28.6577C272.202 28.7656 272.287 28.8395 272.393 28.8793C272.498 28.919 272.614 28.9389 272.742 28.9389C272.839 28.9389 272.927 28.9318 273.006 28.9176C273.089 28.9034 273.151 28.8906 273.194 28.8793L273.454 30.0852C273.371 30.1136 273.253 30.1449 273.1 30.179C272.949 30.2131 272.765 30.233 272.546 30.2386C272.16 30.25 271.812 30.1918 271.502 30.0639C271.192 29.9332 270.947 29.7315 270.765 29.4588C270.586 29.1861 270.498 28.8452 270.5 28.4361V22.0355Z" fill="#1991EB"/>
<path d="M276.508 30.2812C276.093 30.2812 275.72 30.2074 275.387 30.0597C275.058 29.9091 274.796 29.6875 274.603 29.3949C274.413 29.1023 274.318 28.7415 274.318 28.3125C274.318 27.9432 274.386 27.6378 274.522 27.3963C274.659 27.1548 274.845 26.9616 275.08 26.8168C275.316 26.6719 275.582 26.5625 275.877 26.4886C276.176 26.4119 276.484 26.3565 276.802 26.3224C277.186 26.2827 277.497 26.2472 277.735 26.2159C277.974 26.1818 278.147 26.1307 278.255 26.0625C278.366 25.9915 278.421 25.8821 278.421 25.7344V25.7088C278.421 25.3878 278.326 25.1392 278.136 24.9631C277.945 24.7869 277.671 24.6989 277.313 24.6989C276.936 24.6989 276.636 24.7813 276.414 24.946C276.195 25.1108 276.048 25.3054 275.971 25.5298L274.531 25.3253C274.644 24.9276 274.832 24.5952 275.093 24.3281C275.355 24.0582 275.674 23.8565 276.052 23.723C276.43 23.5866 276.847 23.5185 277.305 23.5185C277.62 23.5185 277.934 23.5554 278.247 23.6293C278.559 23.7031 278.845 23.8253 279.103 23.9957C279.362 24.1634 279.569 24.392 279.725 24.6818C279.884 24.9716 279.964 25.3338 279.964 25.7685V30.1491H278.481V29.25H278.43C278.336 29.4318 278.204 29.6023 278.034 29.7614C277.866 29.9176 277.654 30.044 277.399 30.1406C277.146 30.2344 276.849 30.2812 276.508 30.2812ZM276.909 29.1477C277.218 29.1477 277.487 29.0866 277.714 28.9645C277.941 28.8395 278.116 28.6747 278.238 28.4702C278.363 28.2656 278.426 28.0426 278.426 27.8011V27.0298C278.377 27.0696 278.295 27.1065 278.178 27.1406C278.065 27.1747 277.937 27.2045 277.795 27.2301C277.653 27.2557 277.512 27.2784 277.373 27.2983C277.234 27.3182 277.113 27.3352 277.011 27.3494C276.781 27.3807 276.575 27.4318 276.393 27.5028C276.211 27.5739 276.068 27.6733 275.962 27.8011C275.857 27.9261 275.805 28.0881 275.805 28.2869C275.805 28.571 275.909 28.7855 276.116 28.9304C276.323 29.0753 276.587 29.1477 276.909 29.1477Z" fill="#1991EB"/>
<path d="M283.058 21.4219V30.1491H281.515V21.4219H283.058Z" fill="#1991EB"/>
<path d="M287.689 30.1491V21.4219H290.961C291.632 21.4219 292.194 21.5384 292.649 21.7713C293.106 22.0043 293.451 22.331 293.684 22.7514C293.92 23.169 294.038 23.6562 294.038 24.2131C294.038 24.7727 293.919 25.2585 293.68 25.6705C293.444 26.0795 293.096 26.3963 292.636 26.6207C292.176 26.8423 291.611 26.9531 290.94 26.9531H288.609V25.6406H290.727C291.119 25.6406 291.44 25.5866 291.69 25.4787C291.94 25.3679 292.125 25.2074 292.244 24.9972C292.366 24.7841 292.427 24.5227 292.427 24.2131C292.427 23.9034 292.366 23.6392 292.244 23.4205C292.122 23.1989 291.936 23.0312 291.686 22.9176C291.436 22.8011 291.113 22.7429 290.719 22.7429H289.27V30.1491H287.689ZM292.197 26.1946L294.358 30.1491H292.594L290.471 26.1946H292.197Z" fill="#1991EB"/>
<path d="M298.229 30.277C297.573 30.277 297.006 30.1406 296.529 29.8679C296.054 29.5923 295.689 29.2031 295.434 28.7003C295.178 28.1946 295.05 27.5994 295.05 26.9148C295.05 26.2415 295.178 25.6506 295.434 25.142C295.692 24.6307 296.053 24.233 296.516 23.9489C296.979 23.6619 297.523 23.5185 298.148 23.5185C298.552 23.5185 298.932 23.5838 299.29 23.7145C299.651 23.8423 299.969 24.0412 300.245 24.3111C300.523 24.581 300.742 24.9247 300.901 25.3423C301.06 25.7571 301.14 26.2514 301.14 26.8253V27.2983H295.775V26.2585H299.661C299.658 25.9631 299.594 25.7003 299.469 25.4702C299.344 25.2372 299.17 25.054 298.945 24.9205C298.723 24.7869 298.465 24.7202 298.17 24.7202C297.854 24.7202 297.577 24.7969 297.339 24.9503C297.1 25.1009 296.914 25.2997 296.78 25.5469C296.65 25.7912 296.583 26.0597 296.58 26.3523V27.2599C296.58 27.6406 296.65 27.9673 296.789 28.2401C296.928 28.5099 297.123 28.7173 297.373 28.8622C297.623 29.0043 297.915 29.0753 298.25 29.0753C298.475 29.0753 298.678 29.044 298.86 28.9815C299.042 28.9162 299.199 28.821 299.333 28.696C299.466 28.571 299.567 28.4162 299.635 28.2315L301.076 28.3935C300.985 28.7741 300.812 29.1065 300.556 29.3906C300.303 29.6719 299.979 29.8906 299.584 30.0469C299.189 30.2003 298.738 30.277 298.229 30.277Z" fill="#1991EB"/>
<path d="M305.3 30.277C304.646 30.277 304.085 30.1335 303.617 29.8466C303.151 29.5597 302.791 29.1634 302.538 28.6577C302.288 28.1491 302.163 27.5639 302.163 26.902C302.163 26.2372 302.291 25.6506 302.547 25.142C302.803 24.6307 303.163 24.233 303.629 23.9489C304.098 23.6619 304.652 23.5185 305.291 23.5185C305.823 23.5185 306.293 23.6165 306.702 23.8125C307.114 24.0057 307.442 24.2798 307.686 24.6349C307.931 24.9872 308.07 25.3991 308.104 25.8707H306.629C306.57 25.5554 306.428 25.2926 306.203 25.0824C305.982 24.8693 305.685 24.7628 305.313 24.7628C304.997 24.7628 304.72 24.848 304.482 25.0185C304.243 25.1861 304.057 25.4276 303.923 25.7429C303.793 26.0582 303.727 26.4361 303.727 26.8764C303.727 27.3224 303.793 27.706 303.923 28.027C304.054 28.3452 304.237 28.5909 304.473 28.7642C304.712 28.9347 304.992 29.0199 305.313 29.0199C305.54 29.0199 305.743 28.9773 305.922 28.892C306.104 28.804 306.256 28.6776 306.378 28.5128C306.5 28.348 306.584 28.1477 306.629 27.9119H308.104C308.067 28.375 307.931 28.7855 307.695 29.1435C307.459 29.4986 307.138 29.777 306.732 29.9787C306.325 30.1776 305.848 30.277 305.3 30.277Z" fill="#1991EB"/>
<path d="M312.226 30.277C311.586 30.277 311.032 30.1364 310.564 29.8551C310.095 29.5739 309.731 29.1804 309.473 28.6747C309.217 28.169 309.089 27.5781 309.089 26.902C309.089 26.2259 309.217 25.6335 309.473 25.125C309.731 24.6165 310.095 24.2216 310.564 23.9403C311.032 23.6591 311.586 23.5185 312.226 23.5185C312.865 23.5185 313.419 23.6591 313.888 23.9403C314.356 24.2216 314.719 24.6165 314.974 25.125C315.233 25.6335 315.362 26.2259 315.362 26.902C315.362 27.5781 315.233 28.169 314.974 28.6747C314.719 29.1804 314.356 29.5739 313.888 29.8551C313.419 30.1364 312.865 30.277 312.226 30.277ZM312.234 29.0412C312.581 29.0412 312.871 28.946 313.103 28.7557C313.336 28.5625 313.51 28.304 313.623 27.9801C313.74 27.6563 313.798 27.2955 313.798 26.8977C313.798 26.4972 313.74 26.1349 313.623 25.8111C313.51 25.4844 313.336 25.2244 313.103 25.0312C312.871 24.8381 312.581 24.7415 312.234 24.7415C311.879 24.7415 311.584 24.8381 311.348 25.0312C311.115 25.2244 310.94 25.4844 310.824 25.8111C310.71 26.1349 310.653 26.4972 310.653 26.8977C310.653 27.2955 310.71 27.6563 310.824 27.9801C310.94 28.304 311.115 28.5625 311.348 28.7557C311.584 28.946 311.879 29.0412 312.234 29.0412Z" fill="#1991EB"/>
<path d="M316.671 30.1491V23.6037H318.167V24.6946H318.235C318.355 24.3168 318.559 24.0256 318.849 23.821C319.141 23.6136 319.475 23.5099 319.85 23.5099C319.936 23.5099 320.031 23.5142 320.136 23.5227C320.244 23.5284 320.333 23.5384 320.404 23.5526V24.9716C320.339 24.9489 320.235 24.929 320.093 24.9119C319.954 24.892 319.819 24.8821 319.688 24.8821C319.407 24.8821 319.154 24.9432 318.93 25.0653C318.708 25.1847 318.534 25.3509 318.406 25.5639C318.278 25.777 318.214 26.0227 318.214 26.3011V30.1491H316.671Z" fill="#1991EB"/>
<path d="M323.589 30.2642C323.074 30.2642 322.614 30.1321 322.208 29.8679C321.802 29.6037 321.481 29.2202 321.245 28.7173C321.009 28.2145 320.891 27.6037 320.891 26.8849C320.891 26.1577 321.01 25.544 321.249 25.044C321.491 24.5412 321.816 24.1619 322.225 23.9062C322.634 23.6477 323.09 23.5185 323.593 23.5185C323.976 23.5185 324.292 23.5838 324.539 23.7145C324.786 23.8423 324.982 23.9972 325.127 24.179C325.272 24.358 325.384 24.527 325.464 24.6861H325.527V21.4219H327.074V30.1491H325.557V29.1179H325.464C325.384 29.277 325.269 29.446 325.118 29.625C324.968 29.8011 324.769 29.9517 324.522 30.0767C324.275 30.2017 323.964 30.2642 323.589 30.2642ZM324.019 28.9986C324.346 28.9986 324.624 28.9105 324.854 28.7344C325.084 28.5554 325.259 28.3068 325.378 27.9886C325.498 27.6705 325.557 27.2997 325.557 26.8764C325.557 26.4531 325.498 26.0852 325.378 25.7727C325.262 25.4602 325.089 25.2173 324.858 25.044C324.631 24.8707 324.351 24.7841 324.019 24.7841C323.675 24.7841 323.388 24.8736 323.158 25.0526C322.928 25.2315 322.755 25.4787 322.638 25.794C322.522 26.1094 322.464 26.4702 322.464 26.8764C322.464 27.2855 322.522 27.6506 322.638 27.9716C322.758 28.2898 322.932 28.5412 323.162 28.7259C323.395 28.9077 323.681 28.9986 324.019 28.9986Z" fill="#1991EB"/>
<path d="M333.891 25.3338L332.485 25.4872C332.445 25.3452 332.376 25.2116 332.276 25.0866C332.18 24.9616 332.049 24.8608 331.884 24.7841C331.72 24.7074 331.518 24.669 331.279 24.669C330.958 24.669 330.688 24.7386 330.47 24.8778C330.254 25.017 330.147 25.1974 330.15 25.419C330.147 25.6094 330.217 25.7642 330.359 25.8835C330.504 26.0028 330.742 26.1009 331.075 26.1776L332.191 26.4162C332.811 26.5497 333.271 26.7614 333.572 27.0511C333.876 27.3409 334.029 27.7202 334.032 28.1889C334.029 28.6009 333.909 28.9645 333.67 29.2798C333.434 29.5923 333.106 29.8366 332.686 30.0128C332.265 30.1889 331.782 30.277 331.237 30.277C330.436 30.277 329.791 30.1094 329.302 29.7741C328.813 29.4361 328.522 28.9659 328.428 28.3636L329.933 28.2188C330.001 28.5142 330.146 28.7372 330.367 28.8878C330.589 29.0384 330.877 29.1136 331.232 29.1136C331.599 29.1136 331.893 29.0384 332.114 28.8878C332.339 28.7372 332.451 28.5511 332.451 28.3295C332.451 28.142 332.379 27.9872 332.234 27.8651C332.092 27.7429 331.87 27.6491 331.569 27.5838L330.453 27.3494C329.825 27.2188 329.36 26.9986 329.059 26.6889C328.758 26.3764 328.609 25.9815 328.612 25.5043C328.609 25.1009 328.718 24.7514 328.94 24.456C329.164 24.1577 329.475 23.9276 329.873 23.7656C330.274 23.6009 330.735 23.5185 331.258 23.5185C332.025 23.5185 332.629 23.6818 333.069 24.0085C333.512 24.3352 333.786 24.777 333.891 25.3338Z" fill="#1991EB"/>
<path d="M369.818 30.1491H366.861V21.4219H369.878C370.744 21.4219 371.489 21.5966 372.111 21.946C372.736 22.2926 373.216 22.7912 373.551 23.4418C373.886 24.0923 374.054 24.8707 374.054 25.777C374.054 26.6861 373.885 27.4673 373.547 28.1207C373.212 28.7741 372.727 29.2756 372.094 29.625C371.463 29.9744 370.705 30.1491 369.818 30.1491ZM368.442 28.7812H369.742C370.349 28.7812 370.857 28.6705 371.263 28.4489C371.669 28.2244 371.974 27.8906 372.179 27.4474C372.384 27.0014 372.486 26.4446 372.486 25.777C372.486 25.1094 372.384 24.5554 372.179 24.1151C371.974 23.6719 371.672 23.3409 371.271 23.1222C370.874 22.9006 370.379 22.7898 369.788 22.7898H368.442V28.7812Z" fill="#1991EB"/>
<path d="M379.66 27.3963V23.6037H381.202V30.1491H379.707V28.9858H379.639C379.491 29.3523 379.248 29.652 378.91 29.8849C378.575 30.1179 378.161 30.2344 377.67 30.2344C377.241 30.2344 376.862 30.1392 376.532 29.9489C376.205 29.7557 375.95 29.4759 375.765 29.1094C375.58 28.7401 375.488 28.294 375.488 27.7713V23.6037H377.031V27.5327C377.031 27.9474 377.144 28.277 377.371 28.5213C377.599 28.7656 377.897 28.8878 378.266 28.8878C378.494 28.8878 378.714 28.8324 378.927 28.7216C379.14 28.6108 379.315 28.446 379.451 28.2273C379.59 28.0057 379.66 27.7287 379.66 27.3963Z" fill="#1991EB"/>
<path d="M382.789 32.6037V23.6037H384.306V24.6861H384.395C384.475 24.527 384.587 24.358 384.732 24.179C384.877 23.9972 385.073 23.8423 385.32 23.7145C385.567 23.5838 385.883 23.5185 386.266 23.5185C386.772 23.5185 387.228 23.6477 387.634 23.9062C388.043 24.1619 388.367 24.5412 388.606 25.044C388.847 25.544 388.968 26.1577 388.968 26.8849C388.968 27.6037 388.85 28.2145 388.614 28.7173C388.378 29.2202 388.057 29.6037 387.651 29.8679C387.245 30.1321 386.784 30.2642 386.27 30.2642C385.895 30.2642 385.584 30.2017 385.337 30.0767C385.09 29.9517 384.891 29.8011 384.74 29.625C384.593 29.446 384.478 29.277 384.395 29.1179H384.331V32.6037H382.789ZM384.302 26.8764C384.302 27.2997 384.361 27.6705 384.481 27.9886C384.603 28.3068 384.777 28.5554 385.005 28.7344C385.235 28.9105 385.513 28.9986 385.84 28.9986C386.181 28.9986 386.466 28.9077 386.696 28.7259C386.927 28.5412 387.1 28.2898 387.216 27.9716C387.336 27.6506 387.395 27.2855 387.395 26.8764C387.395 26.4702 387.337 26.1094 387.221 25.794C387.104 25.4787 386.931 25.2315 386.701 25.0526C386.471 24.8736 386.184 24.7841 385.84 24.7841C385.51 24.7841 385.231 24.8707 385 25.044C384.77 25.2173 384.596 25.4602 384.476 25.7727C384.36 26.0852 384.302 26.4531 384.302 26.8764Z" fill="#1991EB"/>
<path d="M391.831 21.4219V30.1491H390.289V21.4219H391.831Z" fill="#1991EB"/>
<path d="M393.418 30.1491V23.6037H394.96V30.1491H393.418ZM394.193 22.6747C393.949 22.6747 393.739 22.5938 393.563 22.4318C393.386 22.267 393.298 22.0696 393.298 21.8395C393.298 21.6065 393.386 21.4091 393.563 21.2472C393.739 21.0824 393.949 21 394.193 21C394.44 21 394.651 21.0824 394.824 21.2472C395 21.4091 395.088 21.6065 395.088 21.8395C395.088 22.0696 395 22.267 394.824 22.4318C394.651 22.5938 394.44 22.6747 394.193 22.6747Z" fill="#1991EB"/>
<path d="M399.402 30.277C398.748 30.277 398.187 30.1335 397.718 29.8466C397.253 29.5597 396.893 29.1634 396.64 28.6577C396.39 28.1491 396.265 27.5639 396.265 26.902C396.265 26.2372 396.393 25.6506 396.649 25.142C396.905 24.6307 397.265 24.233 397.731 23.9489C398.2 23.6619 398.754 23.5185 399.393 23.5185C399.924 23.5185 400.395 23.6165 400.804 23.8125C401.216 24.0057 401.544 24.2798 401.788 24.6349C402.032 24.9872 402.172 25.3991 402.206 25.8707H400.731C400.672 25.5554 400.53 25.2926 400.305 25.0824C400.083 24.8693 399.787 24.7628 399.414 24.7628C399.099 24.7628 398.822 24.848 398.583 25.0185C398.345 25.1861 398.159 25.4276 398.025 25.7429C397.895 26.0582 397.829 26.4361 397.829 26.8764C397.829 27.3224 397.895 27.706 398.025 28.027C398.156 28.3452 398.339 28.5909 398.575 28.7642C398.814 28.9347 399.093 29.0199 399.414 29.0199C399.642 29.0199 399.845 28.9773 400.024 28.892C400.206 28.804 400.358 28.6776 400.48 28.5128C400.602 28.348 400.686 28.1477 400.731 27.9119H402.206C402.169 28.375 402.032 28.7855 401.797 29.1435C401.561 29.4986 401.24 29.777 400.833 29.9787C400.427 30.1776 399.95 30.277 399.402 30.277Z" fill="#1991EB"/>
<path d="M405.356 30.2812C404.941 30.2812 404.568 30.2074 404.235 30.0597C403.906 29.9091 403.644 29.6875 403.451 29.3949C403.261 29.1023 403.166 28.7415 403.166 28.3125C403.166 27.9432 403.234 27.6378 403.37 27.3963C403.506 27.1548 403.693 26.9616 403.928 26.8168C404.164 26.6719 404.43 26.5625 404.725 26.4886C405.023 26.4119 405.332 26.3565 405.65 26.3224C406.033 26.2827 406.345 26.2472 406.583 26.2159C406.822 26.1818 406.995 26.1307 407.103 26.0625C407.214 25.9915 407.269 25.8821 407.269 25.7344V25.7088C407.269 25.3878 407.174 25.1392 406.984 24.9631C406.793 24.7869 406.519 24.6989 406.161 24.6989C405.783 24.6989 405.484 24.7813 405.262 24.946C405.043 25.1108 404.896 25.3054 404.819 25.5298L403.379 25.3253C403.492 24.9276 403.68 24.5952 403.941 24.3281C404.202 24.0582 404.522 23.8565 404.9 23.723C405.278 23.5866 405.695 23.5185 406.153 23.5185C406.468 23.5185 406.782 23.5554 407.095 23.6293C407.407 23.7031 407.693 23.8253 407.951 23.9957C408.21 24.1634 408.417 24.392 408.573 24.6818C408.732 24.9716 408.812 25.3338 408.812 25.7685V30.1491H407.329V29.25H407.278C407.184 29.4318 407.052 29.6023 406.881 29.7614C406.714 29.9176 406.502 30.044 406.246 30.1406C405.994 30.2344 405.697 30.2812 405.356 30.2812ZM405.756 29.1477C406.066 29.1477 406.335 29.0866 406.562 28.9645C406.789 28.8395 406.964 28.6747 407.086 28.4702C407.211 28.2656 407.273 28.0426 407.273 27.8011V27.0298C407.225 27.0696 407.143 27.1065 407.026 27.1406C406.913 27.1747 406.785 27.2045 406.643 27.2301C406.501 27.2557 406.36 27.2784 406.221 27.2983C406.082 27.3182 405.961 27.3352 405.859 27.3494C405.629 27.3807 405.423 27.4318 405.241 27.5028C405.059 27.5739 404.916 27.6733 404.81 27.8011C404.705 27.9261 404.653 28.0881 404.653 28.2869C404.653 28.571 404.756 28.7855 404.964 28.9304C405.171 29.0753 405.435 29.1477 405.756 29.1477Z" fill="#1991EB"/>
<path d="M413.631 23.6037V24.7969H409.869V23.6037H413.631ZM410.798 22.0355H412.34V28.1804C412.34 28.3878 412.371 28.5469 412.434 28.6577C412.499 28.7656 412.585 28.8395 412.69 28.8793C412.795 28.919 412.911 28.9389 413.039 28.9389C413.136 28.9389 413.224 28.9318 413.303 28.9176C413.386 28.9034 413.448 28.8906 413.491 28.8793L413.751 30.0852C413.668 30.1136 413.55 30.1449 413.397 30.179C413.246 30.2131 413.062 30.233 412.843 30.2386C412.457 30.25 412.109 30.1918 411.799 30.0639C411.489 29.9332 411.244 29.7315 411.062 29.4588C410.883 29.1861 410.795 28.8452 410.798 28.4361V22.0355Z" fill="#1991EB"/>
<path d="M417.749 30.277C417.093 30.277 416.526 30.1406 416.049 29.8679C415.574 29.5923 415.209 29.2031 414.954 28.7003C414.698 28.1946 414.57 27.5994 414.57 26.9148C414.57 26.2415 414.698 25.6506 414.954 25.142C415.212 24.6307 415.573 24.233 416.036 23.9489C416.499 23.6619 417.043 23.5185 417.668 23.5185C418.071 23.5185 418.452 23.5838 418.81 23.7145C419.171 23.8423 419.489 24.0412 419.765 24.3111C420.043 24.581 420.262 24.9247 420.421 25.3423C420.58 25.7571 420.659 26.2514 420.659 26.8253V27.2983H415.294V26.2585H419.181C419.178 25.9631 419.114 25.7003 418.989 25.4702C418.864 25.2372 418.689 25.054 418.465 24.9205C418.243 24.7869 417.985 24.7202 417.689 24.7202C417.374 24.7202 417.097 24.7969 416.858 24.9503C416.62 25.1009 416.434 25.2997 416.3 25.5469C416.169 25.7912 416.103 26.0597 416.1 26.3523V27.2599C416.1 27.6406 416.169 27.9673 416.309 28.2401C416.448 28.5099 416.642 28.7173 416.892 28.8622C417.142 29.0043 417.435 29.0753 417.77 29.0753C417.995 29.0753 418.198 29.044 418.38 28.9815C418.561 28.9162 418.719 28.821 418.853 28.696C418.986 28.571 419.087 28.4162 419.155 28.2315L420.596 28.3935C420.505 28.7741 420.331 29.1065 420.076 29.3906C419.823 29.6719 419.499 29.8906 419.104 30.0469C418.709 30.2003 418.258 30.277 417.749 30.277Z" fill="#1991EB"/>
<path d="M427.138 25.3338L425.732 25.4872C425.692 25.3452 425.622 25.2116 425.523 25.0866C425.426 24.9616 425.296 24.8608 425.131 24.7841C424.966 24.7074 424.764 24.669 424.526 24.669C424.205 24.669 423.935 24.7386 423.716 24.8778C423.5 25.017 423.394 25.1974 423.396 25.419C423.394 25.6094 423.463 25.7642 423.605 25.8835C423.75 26.0028 423.989 26.1009 424.321 26.1776L425.438 26.4162C426.057 26.5497 426.517 26.7614 426.818 27.0511C427.122 27.3409 427.276 27.7202 427.278 28.1889C427.276 28.6009 427.155 28.9645 426.916 29.2798C426.68 29.5923 426.352 29.8366 425.932 30.0128C425.511 30.1889 425.028 30.277 424.483 30.277C423.682 30.277 423.037 30.1094 422.548 29.7741C422.06 29.4361 421.769 28.9659 421.675 28.3636L423.179 28.2188C423.247 28.5142 423.392 28.7372 423.614 28.8878C423.835 29.0384 424.124 29.1136 424.479 29.1136C424.845 29.1136 425.139 29.0384 425.361 28.8878C425.585 28.7372 425.697 28.5511 425.697 28.3295C425.697 28.142 425.625 27.9872 425.48 27.8651C425.338 27.7429 425.117 27.6491 424.815 27.5838L423.699 27.3494C423.071 27.2188 422.607 26.9986 422.305 26.6889C422.004 26.3764 421.855 25.9815 421.858 25.5043C421.855 25.1009 421.965 24.7514 422.186 24.456C422.411 24.1577 422.722 23.9276 423.119 23.7656C423.52 23.6009 423.982 23.5185 424.504 23.5185C425.271 23.5185 425.875 23.6818 426.315 24.0085C426.759 24.3352 427.033 24.777 427.138 25.3338Z" fill="#1991EB"/>
<path d="M461.362 21.4219H462.943V27.1236C462.943 27.7486 462.795 28.2983 462.5 28.7727C462.207 29.2472 461.795 29.6179 461.264 29.8849C460.733 30.1491 460.112 30.2812 459.402 30.2812C458.689 30.2812 458.067 30.1491 457.536 29.8849C457.004 29.6179 456.592 29.2472 456.3 28.7727C456.007 28.2983 455.861 27.7486 455.861 27.1236V21.4219H457.442V26.9915C457.442 27.3551 457.521 27.679 457.68 27.9631C457.842 28.2472 458.07 28.4702 458.362 28.6321C458.655 28.7912 459.001 28.8707 459.402 28.8707C459.803 28.8707 460.149 28.7912 460.442 28.6321C460.737 28.4702 460.965 28.2472 461.124 27.9631C461.283 27.679 461.362 27.3551 461.362 26.9915V21.4219Z" fill="#1991EB"/>
<path d="M464.593 32.6037V23.6037H466.11V24.6861H466.2C466.28 24.527 466.392 24.358 466.537 24.179C466.682 23.9972 466.878 23.8423 467.125 23.7145C467.372 23.5838 467.687 23.5185 468.071 23.5185C468.576 23.5185 469.032 23.6477 469.439 23.9062C469.848 24.1619 470.172 24.5412 470.41 25.044C470.652 25.544 470.772 26.1577 470.772 26.8849C470.772 27.6037 470.655 28.2145 470.419 28.7173C470.183 29.2202 469.862 29.6037 469.456 29.8679C469.049 30.1321 468.589 30.2642 468.075 30.2642C467.7 30.2642 467.389 30.2017 467.142 30.0767C466.895 29.9517 466.696 29.8011 466.545 29.625C466.397 29.446 466.282 29.277 466.2 29.1179H466.136V32.6037H464.593ZM466.106 26.8764C466.106 27.2997 466.166 27.6705 466.285 27.9886C466.407 28.3068 466.582 28.5554 466.809 28.7344C467.039 28.9105 467.318 28.9986 467.645 28.9986C467.985 28.9986 468.271 28.9077 468.501 28.7259C468.731 28.5412 468.905 28.2898 469.021 27.9716C469.14 27.6506 469.2 27.2855 469.2 26.8764C469.2 26.4702 469.142 26.1094 469.025 25.794C468.909 25.4787 468.735 25.2315 468.505 25.0526C468.275 24.8736 467.988 24.7841 467.645 24.7841C467.315 24.7841 467.035 24.8707 466.805 25.044C466.575 25.2173 466.4 25.4602 466.281 25.7727C466.164 26.0852 466.106 26.4531 466.106 26.8764Z" fill="#1991EB"/>
<path d="M473.636 21.4219V30.1491H472.093V21.4219H473.636Z" fill="#1991EB"/>
<path d="M478.077 30.277C477.438 30.277 476.884 30.1364 476.416 29.8551C475.947 29.5739 475.583 29.1804 475.325 28.6747C475.069 28.169 474.941 27.5781 474.941 26.902C474.941 26.2259 475.069 25.6335 475.325 25.125C475.583 24.6165 475.947 24.2216 476.416 23.9403C476.884 23.6591 477.438 23.5185 478.077 23.5185C478.717 23.5185 479.271 23.6591 479.739 23.9403C480.208 24.2216 480.57 24.6165 480.826 25.125C481.085 25.6335 481.214 26.2259 481.214 26.902C481.214 27.5781 481.085 28.169 480.826 28.6747C480.57 29.1804 480.208 29.5739 479.739 29.8551C479.271 30.1364 478.717 30.277 478.077 30.277ZM478.086 29.0412C478.433 29.0412 478.722 28.946 478.955 28.7557C479.188 28.5625 479.362 28.304 479.475 27.9801C479.592 27.6563 479.65 27.2955 479.65 26.8977C479.65 26.4972 479.592 26.1349 479.475 25.8111C479.362 25.4844 479.188 25.2244 478.955 25.0312C478.722 24.8381 478.433 24.7415 478.086 24.7415C477.731 24.7415 477.435 24.8381 477.2 25.0312C476.967 25.2244 476.792 25.4844 476.675 25.8111C476.562 26.1349 476.505 26.4972 476.505 26.8977C476.505 27.2955 476.562 27.6563 476.675 27.9801C476.792 28.304 476.967 28.5625 477.2 28.7557C477.435 28.946 477.731 29.0412 478.086 29.0412Z" fill="#1991EB"/>
<path d="M484.407 30.2812C483.992 30.2812 483.618 30.2074 483.286 30.0597C482.956 29.9091 482.695 29.6875 482.502 29.3949C482.311 29.1023 482.216 28.7415 482.216 28.3125C482.216 27.9432 482.284 27.6378 482.421 27.3963C482.557 27.1548 482.743 26.9616 482.979 26.8168C483.215 26.6719 483.481 26.5625 483.776 26.4886C484.074 26.4119 484.383 26.3565 484.701 26.3224C485.084 26.2827 485.395 26.2472 485.634 26.2159C485.873 26.1818 486.046 26.1307 486.154 26.0625C486.265 25.9915 486.32 25.8821 486.32 25.7344V25.7088C486.32 25.3878 486.225 25.1392 486.034 24.9631C485.844 24.7869 485.57 24.6989 485.212 24.6989C484.834 24.6989 484.534 24.7813 484.313 24.946C484.094 25.1108 483.946 25.3054 483.87 25.5298L482.429 25.3253C482.543 24.9276 482.731 24.5952 482.992 24.3281C483.253 24.0582 483.573 23.8565 483.951 23.723C484.329 23.5866 484.746 23.5185 485.204 23.5185C485.519 23.5185 485.833 23.5554 486.145 23.6293C486.458 23.7031 486.743 23.8253 487.002 23.9957C487.26 24.1634 487.468 24.392 487.624 24.6818C487.783 24.9716 487.863 25.3338 487.863 25.7685V30.1491H486.38V29.25H486.329C486.235 29.4318 486.103 29.6023 485.932 29.7614C485.765 29.9176 485.553 30.044 485.297 30.1406C485.044 30.2344 484.748 30.2812 484.407 30.2812ZM484.807 29.1477C485.117 29.1477 485.385 29.0866 485.613 28.9645C485.84 28.8395 486.015 28.6747 486.137 28.4702C486.262 28.2656 486.324 28.0426 486.324 27.8011V27.0298C486.276 27.0696 486.194 27.1065 486.077 27.1406C485.963 27.1747 485.836 27.2045 485.694 27.2301C485.552 27.2557 485.411 27.2784 485.272 27.2983C485.133 27.3182 485.012 27.3352 484.909 27.3494C484.679 27.3807 484.473 27.4318 484.292 27.5028C484.11 27.5739 483.966 27.6733 483.861 27.8011C483.756 27.9261 483.704 28.0881 483.704 28.2869C483.704 28.571 483.807 28.7855 484.015 28.9304C484.222 29.0753 484.486 29.1477 484.807 29.1477Z" fill="#1991EB"/>
<path d="M491.843 30.2642C491.329 30.2642 490.868 30.1321 490.462 29.8679C490.056 29.6037 489.735 29.2202 489.499 28.7173C489.263 28.2145 489.145 27.6037 489.145 26.8849C489.145 26.1577 489.265 25.544 489.503 25.044C489.745 24.5412 490.07 24.1619 490.479 23.9062C490.888 23.6477 491.344 23.5185 491.847 23.5185C492.231 23.5185 492.546 23.5838 492.793 23.7145C493.04 23.8423 493.236 23.9972 493.381 24.179C493.526 24.358 493.638 24.527 493.718 24.6861H493.782V21.4219H495.329V30.1491H493.811V29.1179H493.718C493.638 29.277 493.523 29.446 493.373 29.625C493.222 29.8011 493.023 29.9517 492.776 30.0767C492.529 30.2017 492.218 30.2642 491.843 30.2642ZM492.273 28.9986C492.6 28.9986 492.878 28.9105 493.108 28.7344C493.338 28.5554 493.513 28.3068 493.633 27.9886C493.752 27.6705 493.811 27.2997 493.811 26.8764C493.811 26.4531 493.752 26.0852 493.633 25.7727C493.516 25.4602 493.343 25.2173 493.113 25.044C492.885 24.8707 492.606 24.7841 492.273 24.7841C491.929 24.7841 491.642 24.8736 491.412 25.0526C491.182 25.2315 491.009 25.4787 490.892 25.794C490.776 26.1094 490.718 26.4702 490.718 26.8764C490.718 27.2855 490.776 27.6506 490.892 27.9716C491.012 28.2898 491.186 28.5412 491.417 28.7259C491.65 28.9077 491.935 28.9986 492.273 28.9986Z" fill="#1991EB"/>
<path d="M499.87 30.277C499.214 30.277 498.647 30.1406 498.17 29.8679C497.695 29.5923 497.33 29.2031 497.075 28.7003C496.819 28.1946 496.691 27.5994 496.691 26.9148C496.691 26.2415 496.819 25.6506 497.075 25.142C497.333 24.6307 497.694 24.233 498.157 23.9489C498.62 23.6619 499.164 23.5185 499.789 23.5185C500.193 23.5185 500.573 23.5838 500.931 23.7145C501.292 23.8423 501.61 24.0412 501.886 24.3111C502.164 24.581 502.383 24.9247 502.542 25.3423C502.701 25.7571 502.781 26.2514 502.781 26.8253V27.2983H497.416V26.2585H501.302C501.299 25.9631 501.235 25.7003 501.11 25.4702C500.985 25.2372 500.81 25.054 500.586 24.9205C500.364 24.7869 500.106 24.7202 499.81 24.7202C499.495 24.7202 499.218 24.7969 498.979 24.9503C498.741 25.1009 498.555 25.2997 498.421 25.5469C498.291 25.7912 498.224 26.0597 498.221 26.3523V27.2599C498.221 27.6406 498.291 27.9673 498.43 28.2401C498.569 28.5099 498.764 28.7173 499.014 28.8622C499.264 29.0043 499.556 29.0753 499.891 29.0753C500.116 29.0753 500.319 29.044 500.501 28.9815C500.683 28.9162 500.84 28.821 500.974 28.696C501.107 28.571 501.208 28.4162 501.276 28.2315L502.717 28.3935C502.626 28.7741 502.452 29.1065 502.197 29.3906C501.944 29.6719 501.62 29.8906 501.225 30.0469C500.83 30.2003 500.379 30.277 499.87 30.277Z" fill="#1991EB"/>
<path d="M506.515 30.2642C506 30.2642 505.54 30.1321 505.134 29.8679C504.728 29.6037 504.407 29.2202 504.171 28.7173C503.935 28.2145 503.817 27.6037 503.817 26.8849C503.817 26.1577 503.936 25.544 504.175 25.044C504.417 24.5412 504.742 24.1619 505.151 23.9062C505.56 23.6477 506.016 23.5185 506.519 23.5185C506.902 23.5185 507.218 23.5838 507.465 23.7145C507.712 23.8423 507.908 23.9972 508.053 24.179C508.198 24.358 508.31 24.527 508.39 24.6861H508.454V21.4219H510V30.1491H508.483V29.1179H508.39C508.31 29.277 508.195 29.446 508.044 29.625C507.894 29.8011 507.695 29.9517 507.448 30.0767C507.201 30.2017 506.89 30.2642 506.515 30.2642ZM506.945 28.9986C507.272 28.9986 507.55 28.9105 507.78 28.7344C508.01 28.5554 508.185 28.3068 508.304 27.9886C508.424 27.6705 508.483 27.2997 508.483 26.8764C508.483 26.4531 508.424 26.0852 508.304 25.7727C508.188 25.4602 508.015 25.2173 507.784 25.044C507.557 24.8707 507.277 24.7841 506.945 24.7841C506.601 24.7841 506.314 24.8736 506.084 25.0526C505.854 25.2315 505.681 25.4787 505.564 25.794C505.448 26.1094 505.39 26.4702 505.39 26.8764C505.39 27.2855 505.448 27.6506 505.564 27.9716C505.684 28.2898 505.858 28.5412 506.088 28.7259C506.321 28.9077 506.607 28.9986 506.945 28.9986Z" fill="#1991EB"/>
<path d="M514.689 30.1491V21.4219H518.03C518.661 21.4219 519.185 21.5213 519.602 21.7202C520.023 21.9162 520.337 22.1847 520.544 22.5256C520.754 22.8665 520.859 23.2528 520.859 23.6847C520.859 24.0398 520.791 24.3438 520.655 24.5966C520.519 24.8466 520.335 25.0497 520.105 25.206C519.875 25.3622 519.618 25.4744 519.334 25.5426V25.6278C519.644 25.6449 519.94 25.7401 520.224 25.9134C520.511 26.0838 520.746 26.3253 520.928 26.6378C521.109 26.9503 521.2 27.3281 521.2 27.7713C521.2 28.223 521.091 28.6293 520.872 28.9901C520.653 29.348 520.324 29.6307 519.884 29.8381C519.443 30.0455 518.889 30.1491 518.222 30.1491H514.689ZM516.27 28.8281H517.97C518.544 28.8281 518.957 28.7188 519.21 28.5C519.466 28.2784 519.594 27.9943 519.594 27.6477C519.594 27.3892 519.53 27.1563 519.402 26.9489C519.274 26.7386 519.092 26.5739 518.857 26.4545C518.621 26.3324 518.34 26.2713 518.013 26.2713H516.27V28.8281ZM516.27 25.1335H517.834C518.107 25.1335 518.352 25.0838 518.571 24.9844C518.79 24.8821 518.962 24.7386 519.087 24.554C519.215 24.3665 519.278 24.1449 519.278 23.8892C519.278 23.5511 519.159 23.2727 518.921 23.054C518.685 22.8352 518.334 22.7259 517.868 22.7259H516.27V25.1335Z" fill="#1991EB"/>
<path d="M523.466 32.6037C523.256 32.6037 523.061 32.5866 522.882 32.5526C522.706 32.5213 522.566 32.4844 522.461 32.4418L522.819 31.2401C523.043 31.3054 523.243 31.3366 523.419 31.3338C523.596 31.331 523.75 31.2756 523.884 31.1676C524.02 31.0625 524.135 30.8864 524.229 30.6392L524.361 30.2855L521.988 23.6037H523.624L525.132 28.5469H525.201L526.713 23.6037H528.354L525.733 30.9418C525.611 31.2884 525.449 31.5852 525.248 31.8324C525.046 32.0824 524.799 32.2727 524.506 32.4034C524.216 32.5369 523.87 32.6037 523.466 32.6037Z" fill="#1991EB"/>
<rect x="29" y="55.1491" width="58" height="8" rx="4" fill="#E8EEF4"/>
<rect x="120" y="55.1491" width="95" height="8" rx="4" fill="#02C797"/>
<path d="M258.972 54.4219V63.1491H257.915V55.5298H257.864L255.733 56.9446V55.8707L257.915 54.4219H258.972Z" fill="#949FB1"/>
<path d="M261.481 63.1491V62.3821L264.362 59.2287C264.7 58.8594 264.979 58.5383 265.197 58.2656C265.416 57.9901 265.578 57.7315 265.683 57.4901C265.791 57.2457 265.845 56.9901 265.845 56.723C265.845 56.4162 265.771 56.1506 265.624 55.9261C265.479 55.7017 265.28 55.5284 265.027 55.4062C264.774 55.2841 264.49 55.223 264.175 55.223C263.839 55.223 263.547 55.2926 263.297 55.4318C263.05 55.5682 262.858 55.7599 262.722 56.0071C262.588 56.2543 262.521 56.544 262.521 56.8764H261.516C261.516 56.3651 261.633 55.9162 261.869 55.5298C262.105 55.1435 262.426 54.8423 262.832 54.6264C263.241 54.4105 263.7 54.3026 264.209 54.3026C264.72 54.3026 265.173 54.4105 265.568 54.6264C265.963 54.8423 266.273 55.1335 266.497 55.5C266.722 55.8665 266.834 56.2741 266.834 56.723C266.834 57.044 266.776 57.3579 266.659 57.6648C266.545 57.9687 266.347 58.3082 266.062 58.6832C265.781 59.0554 265.391 59.5099 264.891 60.0469L262.93 62.1435V62.2116H266.987V63.1491H261.481Z" fill="#949FB1"/>
<path d="M271.594 63.2685C270.952 63.2685 270.405 63.0937 269.953 62.7443C269.501 62.392 269.156 61.8821 268.918 61.2145C268.679 60.544 268.56 59.7344 268.56 58.7855C268.56 57.8423 268.679 57.0369 268.918 56.3693C269.159 55.6989 269.506 55.1875 269.957 54.8352C270.412 54.4801 270.957 54.3026 271.594 54.3026C272.23 54.3026 272.774 54.4801 273.226 54.8352C273.68 55.1875 274.027 55.6989 274.266 56.3693C274.507 57.0369 274.628 57.8423 274.628 58.7855C274.628 59.7344 274.508 60.544 274.27 61.2145C274.031 61.8821 273.686 62.392 273.234 62.7443C272.783 63.0937 272.236 63.2685 271.594 63.2685ZM271.594 62.331C272.23 62.331 272.724 62.0241 273.077 61.4105C273.429 60.7969 273.605 59.9219 273.605 58.7855C273.605 58.0298 273.524 57.3864 273.362 56.8551C273.203 56.3239 272.973 55.919 272.672 55.6406C272.374 55.3622 272.014 55.223 271.594 55.223C270.963 55.223 270.47 55.5341 270.115 56.1562C269.76 56.7756 269.582 57.652 269.582 58.7855C269.582 59.5412 269.662 60.1832 269.821 60.7116C269.98 61.2401 270.209 61.642 270.507 61.9176C270.808 62.1932 271.17 62.331 271.594 62.331Z" fill="#949FB1"/>
<circle cx="463" cy="60.1491" r="8" fill="#E8EEF4"/>
<path d="M368.176 63.1491L372.08 55.4276V55.3594H367.58V54.4219H373.17V55.4105L369.284 63.1491H368.176Z" fill="#949FB1"/>
<path d="M377.509 63.2685C376.946 63.2685 376.445 63.1719 376.004 62.9787C375.567 62.7855 375.219 62.517 374.96 62.1733C374.705 61.8267 374.565 61.4247 374.543 60.9673H375.617C375.639 61.2486 375.736 61.4915 375.906 61.696C376.077 61.8977 376.3 62.054 376.575 62.1648C376.851 62.2756 377.156 62.331 377.492 62.331C377.867 62.331 378.199 62.2656 378.489 62.1349C378.778 62.0043 379.006 61.8224 379.17 61.5895C379.335 61.3565 379.418 61.0866 379.418 60.7798C379.418 60.4588 379.338 60.1761 379.179 59.9318C379.02 59.6847 378.787 59.4915 378.48 59.3523C378.173 59.2131 377.798 59.1435 377.355 59.1435H376.656V58.206H377.355C377.702 58.206 378.006 58.1435 378.267 58.0185C378.531 57.8935 378.737 57.7173 378.885 57.4901C379.036 57.2628 379.111 56.9957 379.111 56.6889C379.111 56.3935 379.045 56.1364 378.915 55.9176C378.784 55.6989 378.599 55.5284 378.361 55.4062C378.125 55.2841 377.847 55.223 377.526 55.223C377.224 55.223 376.94 55.2784 376.673 55.3892C376.409 55.4972 376.193 55.6548 376.026 55.8622C375.858 56.0668 375.767 56.3139 375.753 56.6037H374.73C374.747 56.1463 374.885 55.7457 375.144 55.402C375.402 55.0554 375.74 54.7855 376.158 54.5923C376.578 54.3991 377.04 54.3026 377.543 54.3026C378.082 54.3026 378.545 54.4119 378.932 54.6307C379.318 54.8466 379.615 55.1321 379.822 55.4872C380.03 55.8423 380.134 56.2258 380.134 56.6378C380.134 57.1293 380.004 57.5483 379.746 57.8949C379.49 58.2415 379.142 58.4815 378.702 58.6151V58.6832C379.253 58.7741 379.683 59.0085 379.993 59.3864C380.303 59.7614 380.457 60.2258 380.457 60.7798C380.457 61.2543 380.328 61.6804 380.07 62.0582C379.814 62.4332 379.465 62.7287 379.021 62.9446C378.578 63.1605 378.074 63.2685 377.509 63.2685Z" fill="#949FB1"/>
<rect x="29" y="82.1491" width="44" height="8" rx="4" fill="#E8EEF4"/>
<rect x="120" y="82.1491" width="95" height="8" rx="4" fill="#02C797"/>
<path d="M255.699 88.3594V87.4901L259.534 81.4219H260.165V82.7685H259.739L256.841 87.3537V87.4219H262.006V88.3594H255.699ZM259.807 90.1491V88.0952V87.6903V81.4219H260.812V90.1491H259.807Z" fill="#949FB1"/>
<path d="M266.398 90.2685C265.813 90.2685 265.296 90.1648 264.847 89.9574C264.401 89.7472 264.053 89.4588 263.803 89.0923C263.553 88.723 263.429 88.3026 263.432 87.831C263.429 87.4616 263.502 87.1207 263.649 86.8082C263.797 86.4929 263.999 86.2301 264.254 86.0199C264.513 85.8068 264.801 85.6719 265.12 85.6151V85.5639C264.702 85.456 264.37 85.2216 264.122 84.8608C263.875 84.4972 263.753 84.0838 263.756 83.6207C263.753 83.1776 263.865 82.7812 264.093 82.4318C264.32 82.0824 264.632 81.8068 265.03 81.6051C265.431 81.4034 265.887 81.3026 266.398 81.3026C266.904 81.3026 267.355 81.4034 267.753 81.6051C268.151 81.8068 268.463 82.0824 268.691 82.4318C268.921 82.7812 269.037 83.1776 269.04 83.6207C269.037 84.0838 268.911 84.4972 268.661 84.8608C268.414 85.2216 268.085 85.456 267.676 85.5639V85.6151C267.992 85.6719 268.276 85.8068 268.529 86.0199C268.781 86.2301 268.983 86.4929 269.134 86.8082C269.284 87.1207 269.361 87.4616 269.364 87.831C269.361 88.3026 269.233 88.723 268.98 89.0923C268.73 89.4588 268.382 89.7472 267.936 89.9574C267.493 90.1648 266.98 90.2685 266.398 90.2685ZM266.398 89.331C266.793 89.331 267.134 89.267 267.421 89.1392C267.708 89.0114 267.929 88.831 268.085 88.598C268.242 88.3651 268.321 88.0923 268.324 87.7798C268.321 87.4503 268.236 87.1591 268.068 86.9062C267.901 86.6534 267.672 86.4545 267.382 86.3097C267.095 86.1648 266.767 86.0923 266.398 86.0923C266.026 86.0923 265.693 86.1648 265.401 86.3097C265.111 86.4545 264.882 86.6534 264.715 86.9062C264.55 87.1591 264.469 87.4503 264.472 87.7798C264.469 88.0923 264.544 88.3651 264.698 88.598C264.854 88.831 265.077 89.0114 265.367 89.1392C265.656 89.267 266 89.331 266.398 89.331ZM266.398 85.1889C266.71 85.1889 266.987 85.1264 267.229 85.0014C267.473 84.8764 267.665 84.7017 267.804 84.4773C267.943 84.2528 268.014 83.9901 268.017 83.6889C268.014 83.3935 267.945 83.1364 267.808 82.9176C267.672 82.696 267.483 82.5256 267.242 82.4062C267 82.2841 266.719 82.223 266.398 82.223C266.071 82.223 265.786 82.2841 265.541 82.4062C265.297 82.5256 265.108 82.696 264.975 82.9176C264.841 83.1364 264.776 83.3935 264.779 83.6889C264.776 83.9901 264.843 84.2528 264.979 84.4773C265.118 84.7017 265.31 84.8764 265.554 85.0014C265.799 85.1264 266.08 85.1889 266.398 85.1889Z" fill="#949FB1"/>
<path d="M370.972 81.4219V90.1491H369.915V82.5298H369.864L367.733 83.9446V82.8707L369.915 81.4219H370.972Z" fill="#949FB1"/>
<path d="M376.43 90.2685C375.868 90.2685 375.366 90.1719 374.926 89.9787C374.489 89.7855 374.141 89.517 373.882 89.1733C373.626 88.8267 373.487 88.4247 373.464 87.9673H374.538C374.561 88.2486 374.658 88.4915 374.828 88.696C374.999 88.8977 375.222 89.054 375.497 89.1648C375.773 89.2756 376.078 89.331 376.413 89.331C376.788 89.331 377.121 89.2656 377.41 89.1349C377.7 89.0043 377.928 88.8224 378.092 88.5895C378.257 88.3565 378.339 88.0866 378.339 87.7798C378.339 87.4588 378.26 87.1761 378.101 86.9318C377.942 86.6847 377.709 86.4915 377.402 86.3523C377.095 86.2131 376.72 86.1435 376.277 86.1435H375.578V85.206H376.277C376.624 85.206 376.928 85.1435 377.189 85.0185C377.453 84.8935 377.659 84.7173 377.807 84.4901C377.957 84.2628 378.033 83.9957 378.033 83.6889C378.033 83.3935 377.967 83.1364 377.837 82.9176C377.706 82.6989 377.521 82.5284 377.283 82.4062C377.047 82.2841 376.768 82.223 376.447 82.223C376.146 82.223 375.862 82.2784 375.595 82.3892C375.331 82.4972 375.115 82.6548 374.947 82.8622C374.78 83.0668 374.689 83.3139 374.675 83.6037H373.652C373.669 83.1463 373.807 82.7457 374.065 82.402C374.324 82.0554 374.662 81.7855 375.08 81.5923C375.5 81.3991 375.962 81.3026 376.464 81.3026C377.004 81.3026 377.467 81.4119 377.854 81.6307C378.24 81.8466 378.537 82.1321 378.744 82.4872C378.952 82.8423 379.055 83.2258 379.055 83.6378C379.055 84.1293 378.926 84.5483 378.668 84.8949C378.412 85.2415 378.064 85.4815 377.624 85.6151V85.6832C378.175 85.7741 378.605 86.0085 378.915 86.3864C379.224 86.7614 379.379 87.2258 379.379 87.7798C379.379 88.2543 379.25 88.6804 378.991 89.0582C378.736 89.4332 378.386 89.7287 377.943 89.9446C377.5 90.1605 376.996 90.2685 376.43 90.2685Z" fill="#949FB1"/>
<circle cx="463" cy="87.1491" r="8" fill="#E8EEF4"/>
<rect x="29" y="109.149" width="58" height="8" rx="4" fill="#E8EEF4"/>
<rect x="120" y="109.149" width="95" height="8" rx="4" fill="#02C797"/>
<path d="M255.699 115.359V114.49L259.534 108.422H260.165V109.768H259.739L256.841 114.354V114.422H262.006V115.359H255.699ZM259.807 117.149V115.095V114.69V108.422H260.812V117.149H259.807Z" fill="#949FB1"/>
<path d="M266.381 108.303C266.739 108.305 267.097 108.374 267.455 108.507C267.813 108.641 268.139 108.862 268.435 109.172C268.73 109.479 268.968 109.898 269.147 110.429C269.326 110.96 269.415 111.626 269.415 112.428C269.415 113.203 269.341 113.892 269.193 114.494C269.049 115.094 268.838 115.599 268.563 116.011C268.29 116.423 267.958 116.736 267.566 116.949C267.176 117.162 266.736 117.268 266.245 117.268C265.756 117.268 265.32 117.172 264.936 116.979C264.556 116.783 264.243 116.511 263.999 116.165C263.757 115.815 263.602 115.411 263.534 114.95H264.574C264.668 115.351 264.854 115.682 265.132 115.943C265.414 116.202 265.784 116.331 266.245 116.331C266.918 116.331 267.449 116.037 267.838 115.449C268.23 114.861 268.426 114.03 268.426 112.956H268.358C268.199 113.195 268.01 113.401 267.791 113.574C267.573 113.747 267.33 113.881 267.063 113.974C266.796 114.068 266.512 114.115 266.21 114.115C265.71 114.115 265.252 113.991 264.834 113.744C264.419 113.494 264.087 113.152 263.837 112.717C263.59 112.28 263.466 111.78 263.466 111.217C263.466 110.683 263.585 110.195 263.824 109.751C264.066 109.305 264.404 108.95 264.838 108.686C265.276 108.422 265.79 108.294 266.381 108.303ZM266.381 109.24C266.023 109.24 265.701 109.33 265.414 109.509C265.129 109.685 264.904 109.923 264.736 110.224C264.571 110.523 264.489 110.854 264.489 111.217C264.489 111.581 264.568 111.912 264.727 112.21C264.889 112.506 265.11 112.741 265.388 112.918C265.669 113.091 265.989 113.178 266.347 113.178C266.617 113.178 266.868 113.125 267.101 113.02C267.334 112.912 267.537 112.766 267.71 112.581C267.887 112.393 268.024 112.182 268.124 111.946C268.223 111.707 268.273 111.459 268.273 111.2C268.273 110.859 268.191 110.54 268.026 110.241C267.864 109.943 267.639 109.702 267.352 109.517C267.068 109.332 266.745 109.24 266.381 109.24Z" fill="#949FB1"/>
<path d="M271.091 117.149V116.382L273.971 113.229C274.31 112.859 274.588 112.538 274.807 112.266C275.025 111.99 275.187 111.732 275.292 111.49C275.4 111.246 275.454 110.99 275.454 110.723C275.454 110.416 275.381 110.151 275.233 109.926C275.088 109.702 274.889 109.528 274.636 109.406C274.383 109.284 274.099 109.223 273.784 109.223C273.449 109.223 273.156 109.293 272.906 109.432C272.659 109.568 272.467 109.76 272.331 110.007C272.197 110.254 272.131 110.544 272.131 110.876H271.125C271.125 110.365 271.243 109.916 271.479 109.53C271.714 109.143 272.035 108.842 272.442 108.626C272.851 108.411 273.31 108.303 273.818 108.303C274.329 108.303 274.783 108.411 275.177 108.626C275.572 108.842 275.882 109.134 276.106 109.5C276.331 109.866 276.443 110.274 276.443 110.723C276.443 111.044 276.385 111.358 276.268 111.665C276.155 111.969 275.956 112.308 275.672 112.683C275.39 113.055 275 113.51 274.5 114.047L272.54 116.143V116.212H276.596V117.149H271.091Z" fill="#949FB1"/>
<path d="M370.972 108.422V117.149H369.915V109.53H369.864L367.733 110.945V109.871L369.915 108.422H370.972Z" fill="#949FB1"/>
<path d="M373.481 117.149V116.382L376.362 113.229C376.7 112.859 376.979 112.538 377.197 112.266C377.416 111.99 377.578 111.732 377.683 111.49C377.791 111.246 377.845 110.99 377.845 110.723C377.845 110.416 377.771 110.151 377.624 109.926C377.479 109.702 377.28 109.528 377.027 109.406C376.774 109.284 376.49 109.223 376.175 109.223C375.839 109.223 375.547 109.293 375.297 109.432C375.05 109.568 374.858 109.76 374.722 110.007C374.588 110.254 374.521 110.544 374.521 110.876H373.516C373.516 110.365 373.633 109.916 373.869 109.53C374.105 109.143 374.426 108.842 374.832 108.626C375.241 108.411 375.7 108.303 376.209 108.303C376.72 108.303 377.173 108.411 377.568 108.626C377.963 108.842 378.273 109.134 378.497 109.5C378.722 109.866 378.834 110.274 378.834 110.723C378.834 111.044 378.776 111.358 378.659 111.665C378.545 111.969 378.347 112.308 378.062 112.683C377.781 113.055 377.391 113.51 376.891 114.047L374.93 116.143V116.212H378.987V117.149H373.481Z" fill="#949FB1"/>
<path d="M383.815 108.422V117.149H382.758V109.53H382.707L380.577 110.945V109.871L382.758 108.422H383.815Z" fill="#949FB1"/>
<circle cx="463" cy="114.149" r="8" fill="#E8EEF4"/>
<rect x="29" y="136.149" width="48" height="8" rx="4" fill="#E8EEF4"/>
<rect x="120" y="136.149" width="95" height="8" rx="4" fill="#02C797"/>
<path d="M258.682 135.303C259.04 135.305 259.398 135.374 259.756 135.507C260.114 135.641 260.44 135.862 260.736 136.172C261.031 136.479 261.269 136.898 261.447 137.429C261.626 137.96 261.716 138.626 261.716 139.428C261.716 140.203 261.642 140.892 261.494 141.494C261.349 142.094 261.139 142.599 260.864 143.011C260.591 143.423 260.259 143.736 259.867 143.949C259.477 144.162 259.037 144.268 258.545 144.268C258.057 144.268 257.621 144.172 257.237 143.979C256.857 143.783 256.544 143.511 256.3 143.165C256.058 142.815 255.903 142.411 255.835 141.95H256.875C256.969 142.351 257.155 142.682 257.433 142.943C257.715 143.202 258.085 143.331 258.545 143.331C259.219 143.331 259.75 143.037 260.139 142.449C260.531 141.861 260.727 141.03 260.727 139.956H260.659C260.5 140.195 260.311 140.401 260.092 140.574C259.874 140.747 259.631 140.881 259.364 140.974C259.097 141.068 258.813 141.115 258.511 141.115C258.011 141.115 257.553 140.991 257.135 140.744C256.72 140.494 256.388 140.152 256.138 139.717C255.891 139.28 255.767 138.78 255.767 138.217C255.767 137.683 255.886 137.195 256.125 136.751C256.367 136.305 256.705 135.95 257.139 135.686C257.577 135.422 258.091 135.294 258.682 135.303ZM258.682 136.24C258.324 136.24 258.001 136.33 257.715 136.509C257.43 136.685 257.205 136.923 257.037 137.224C256.872 137.523 256.79 137.854 256.79 138.217C256.79 138.581 256.869 138.912 257.028 139.21C257.19 139.506 257.411 139.741 257.689 139.918C257.97 140.091 258.29 140.178 258.648 140.178C258.918 140.178 259.169 140.125 259.402 140.02C259.635 139.912 259.838 139.766 260.011 139.581C260.188 139.393 260.325 139.182 260.425 138.946C260.524 138.707 260.574 138.459 260.574 138.2C260.574 137.859 260.492 137.54 260.327 137.241C260.165 136.943 259.94 136.702 259.653 136.517C259.369 136.332 259.045 136.24 258.682 136.24Z" fill="#949FB1"/>
<path d="M266.238 144.268C265.596 144.268 265.049 144.094 264.598 143.744C264.146 143.392 263.801 142.882 263.562 142.214C263.324 141.544 263.204 140.734 263.204 139.786C263.204 138.842 263.324 138.037 263.562 137.369C263.804 136.699 264.15 136.187 264.602 135.835C265.057 135.48 265.602 135.303 266.238 135.303C266.875 135.303 267.419 135.48 267.87 135.835C268.325 136.187 268.672 136.699 268.91 137.369C269.152 138.037 269.272 138.842 269.272 139.786C269.272 140.734 269.153 141.544 268.914 142.214C268.676 142.882 268.331 143.392 267.879 143.744C267.427 144.094 266.88 144.268 266.238 144.268ZM266.238 143.331C266.875 143.331 267.369 143.024 267.721 142.411C268.074 141.797 268.25 140.922 268.25 139.786C268.25 139.03 268.169 138.386 268.007 137.855C267.848 137.324 267.618 136.919 267.316 136.641C267.018 136.362 266.659 136.223 266.238 136.223C265.608 136.223 265.115 136.534 264.76 137.156C264.405 137.776 264.227 138.652 264.227 139.786C264.227 140.541 264.307 141.183 264.466 141.712C264.625 142.24 264.853 142.642 265.152 142.918C265.453 143.193 265.815 143.331 266.238 143.331Z" fill="#949FB1"/>
<path d="M370.852 144.268C370.29 144.268 369.788 144.172 369.348 143.979C368.91 143.786 368.562 143.517 368.304 143.173C368.048 142.827 367.909 142.425 367.886 141.967H368.96C368.983 142.249 369.079 142.491 369.25 142.696C369.42 142.898 369.643 143.054 369.919 143.165C370.194 143.276 370.5 143.331 370.835 143.331C371.21 143.331 371.542 143.266 371.832 143.135C372.122 143.004 372.349 142.822 372.514 142.589C372.679 142.357 372.761 142.087 372.761 141.78C372.761 141.459 372.682 141.176 372.523 140.932C372.364 140.685 372.131 140.491 371.824 140.352C371.517 140.213 371.142 140.143 370.699 140.143H370V139.206H370.699C371.045 139.206 371.349 139.143 371.611 139.018C371.875 138.893 372.081 138.717 372.229 138.49C372.379 138.263 372.454 137.996 372.454 137.689C372.454 137.393 372.389 137.136 372.258 136.918C372.128 136.699 371.943 136.528 371.704 136.406C371.469 136.284 371.19 136.223 370.869 136.223C370.568 136.223 370.284 136.278 370.017 136.389C369.753 136.497 369.537 136.655 369.369 136.862C369.202 137.067 369.111 137.314 369.096 137.604H368.074C368.091 137.146 368.229 136.746 368.487 136.402C368.746 136.055 369.084 135.786 369.501 135.592C369.922 135.399 370.383 135.303 370.886 135.303C371.426 135.303 371.889 135.412 372.275 135.631C372.662 135.847 372.959 136.132 373.166 136.487C373.373 136.842 373.477 137.226 373.477 137.638C373.477 138.129 373.348 138.548 373.089 138.895C372.834 139.241 372.486 139.482 372.045 139.615V139.683C372.596 139.774 373.027 140.009 373.337 140.386C373.646 140.761 373.801 141.226 373.801 141.78C373.801 142.254 373.672 142.68 373.413 143.058C373.158 143.433 372.808 143.729 372.365 143.945C371.922 144.161 371.417 144.268 370.852 144.268Z" fill="#949FB1"/>
<path d="M378.612 135.422V144.149H377.555V136.53H377.504L375.373 137.945V136.871L377.555 135.422H378.612Z" fill="#949FB1"/>
<circle cx="463" cy="141.149" r="8" fill="#E8EEF4"/>
<rect x="29" y="163.149" width="52" height="8" rx="4" fill="#E8EEF4"/>
<rect x="120" y="163.149" width="95" height="8" rx="4" fill="#02C797"/>
<path d="M258.631 171.268C258.131 171.268 257.68 171.169 257.28 170.97C256.879 170.771 256.558 170.499 256.317 170.152C256.075 169.805 255.943 169.411 255.92 168.967H256.943C256.983 169.362 257.162 169.689 257.48 169.947C257.801 170.203 258.185 170.331 258.631 170.331C258.989 170.331 259.307 170.247 259.585 170.08C259.866 169.912 260.087 169.682 260.246 169.389C260.408 169.094 260.489 168.76 260.489 168.388C260.489 168.007 260.405 167.668 260.237 167.369C260.072 167.068 259.845 166.831 259.555 166.658C259.266 166.484 258.935 166.396 258.562 166.393C258.295 166.391 258.021 166.432 257.74 166.517C257.459 166.599 257.227 166.706 257.045 166.837L256.057 166.717L256.585 162.422H261.119V163.359H257.472L257.165 165.933H257.216C257.395 165.791 257.619 165.673 257.889 165.58C258.159 165.486 258.44 165.439 258.733 165.439C259.267 165.439 259.743 165.567 260.16 165.822C260.581 166.075 260.91 166.422 261.149 166.862C261.391 167.303 261.511 167.805 261.511 168.371C261.511 168.928 261.386 169.425 261.136 169.862C260.889 170.297 260.548 170.641 260.114 170.893C259.679 171.143 259.185 171.268 258.631 171.268Z" fill="#949FB1"/>
<path d="M265.983 162.303C266.341 162.305 266.698 162.374 267.056 162.507C267.414 162.641 267.741 162.862 268.037 163.172C268.332 163.479 268.569 163.898 268.748 164.429C268.927 164.96 269.017 165.626 269.017 166.428C269.017 167.203 268.943 167.892 268.795 168.494C268.65 169.094 268.44 169.599 268.164 170.011C267.892 170.423 267.559 170.736 267.167 170.949C266.778 171.162 266.338 171.268 265.846 171.268C265.358 171.268 264.921 171.172 264.538 170.979C264.157 170.783 263.845 170.511 263.6 170.165C263.359 169.815 263.204 169.411 263.136 168.95H264.176C264.269 169.351 264.456 169.682 264.734 169.943C265.015 170.202 265.386 170.331 265.846 170.331C266.519 170.331 267.051 170.037 267.44 169.449C267.832 168.861 268.028 168.03 268.028 166.956H267.96C267.801 167.195 267.612 167.401 267.393 167.574C267.174 167.747 266.931 167.881 266.664 167.974C266.397 168.068 266.113 168.115 265.812 168.115C265.312 168.115 264.853 167.991 264.436 167.744C264.021 167.494 263.689 167.152 263.439 166.717C263.191 166.28 263.068 165.78 263.068 165.217C263.068 164.683 263.187 164.195 263.426 163.751C263.667 163.305 264.005 162.95 264.44 162.686C264.877 162.422 265.392 162.294 265.983 162.303ZM265.983 163.24C265.625 163.24 265.302 163.33 265.015 163.509C264.731 163.685 264.505 163.923 264.338 164.224C264.173 164.523 264.091 164.854 264.091 165.217C264.091 165.581 264.17 165.912 264.329 166.21C264.491 166.506 264.711 166.741 264.99 166.918C265.271 167.091 265.591 167.178 265.948 167.178C266.218 167.178 266.47 167.125 266.703 167.02C266.936 166.912 267.139 166.766 267.312 166.581C267.488 166.393 267.626 166.182 267.725 165.946C267.825 165.707 267.875 165.459 267.875 165.2C267.875 164.859 267.792 164.54 267.627 164.241C267.466 163.943 267.241 163.702 266.954 163.517C266.67 163.332 266.346 163.24 265.983 163.24Z" fill="#949FB1"/>
<path d="M367.903 172.149V171.382L370.784 168.229C371.122 167.859 371.4 167.538 371.619 167.266C371.838 166.99 372 166.732 372.105 166.49C372.213 166.246 372.267 165.99 372.267 165.723C372.267 165.416 372.193 165.151 372.045 164.926C371.9 164.702 371.702 164.528 371.449 164.406C371.196 164.284 370.912 164.223 370.597 164.223C370.261 164.223 369.969 164.293 369.719 164.432C369.472 164.568 369.28 164.76 369.143 165.007C369.01 165.254 368.943 165.544 368.943 165.876H367.937C367.937 165.365 368.055 164.916 368.291 164.53C368.527 164.143 368.848 163.842 369.254 163.626C369.663 163.411 370.122 163.303 370.631 163.303C371.142 163.303 371.595 163.411 371.99 163.626C372.385 163.842 372.695 164.134 372.919 164.5C373.143 164.866 373.256 165.274 373.256 165.723C373.256 166.044 373.197 166.358 373.081 166.665C372.967 166.969 372.768 167.308 372.484 167.683C372.203 168.055 371.812 168.51 371.312 169.047L369.352 171.143V171.212H373.409V172.149H367.903Z" fill="#949FB1"/>
<path d="M377.947 163.303C378.305 163.305 378.663 163.374 379.021 163.507C379.379 163.641 379.706 163.862 380.001 164.172C380.297 164.479 380.534 164.898 380.713 165.429C380.892 165.96 380.981 166.626 380.981 167.428C380.981 168.203 380.908 168.892 380.76 169.494C380.615 170.094 380.405 170.599 380.129 171.011C379.856 171.423 379.524 171.736 379.132 171.949C378.743 172.162 378.302 172.268 377.811 172.268C377.322 172.268 376.886 172.172 376.503 171.979C376.122 171.783 375.81 171.511 375.565 171.165C375.324 170.815 375.169 170.411 375.101 169.95H376.141C376.234 170.351 376.42 170.682 376.699 170.943C376.98 171.202 377.351 171.331 377.811 171.331C378.484 171.331 379.016 171.037 379.405 170.449C379.797 169.861 379.993 169.03 379.993 167.956H379.925C379.766 168.195 379.577 168.401 379.358 168.574C379.139 168.747 378.896 168.881 378.629 168.974C378.362 169.068 378.078 169.115 377.777 169.115C377.277 169.115 376.818 168.991 376.4 168.744C375.986 168.494 375.653 168.152 375.403 167.717C375.156 167.28 375.033 166.78 375.033 166.217C375.033 165.683 375.152 165.195 375.391 164.751C375.632 164.305 375.97 163.95 376.405 163.686C376.842 163.422 377.356 163.294 377.947 163.303ZM377.947 164.24C377.589 164.24 377.267 164.33 376.98 164.509C376.696 164.685 376.47 164.923 376.302 165.224C376.138 165.523 376.055 165.854 376.055 166.217C376.055 166.581 376.135 166.912 376.294 167.21C376.456 167.506 376.676 167.741 376.954 167.918C377.236 168.091 377.555 168.178 377.913 168.178C378.183 168.178 378.435 168.125 378.668 168.02C378.9 167.912 379.104 167.766 379.277 167.581C379.453 167.393 379.591 167.182 379.69 166.946C379.79 166.707 379.839 166.459 379.839 166.2C379.839 165.859 379.757 165.54 379.592 165.241C379.43 164.943 379.206 164.702 378.919 164.517C378.635 164.332 378.311 164.24 377.947 164.24Z" fill="#949FB1"/>
<circle cx="463" cy="168.149" r="8" fill="#E8EEF4"/>
</g>
<defs>
<filter id="filter0_d_18_2046" x="0" y="0" width="557.354" height="205.149" filterUnits="userSpaceOnUse" color-interpolation-filters="sRGB">
<feFlood flood-opacity="0" result="BackgroundImageFix"/>
<feColorMatrix in="SourceAlpha" type="matrix" values="0 0 0 0 0 0 0 0 0 0 0 0 0 0 0 0 0 0 127 0" result="hardAlpha"/>
<feOffset dy="4"/>
<feGaussianBlur stdDeviation="4.5"/>
<feColorMatrix type="matrix" values="0 0 0 0 0 0 0 0 0 0 0 0 0 0 0 0 0 0 0.09 0"/>
<feBlend mode="normal" in2="BackgroundImageFix" result="effect1_dropShadow_18_2046"/>
<feBlend mode="normal" in="SourceGraphic" in2="effect1_dropShadow_18_2046" result="shape"/>
</filter>
</defs>
</svg>
