<svg width="134" height="134" viewBox="0 0 134 134" fill="none" xmlns="http://www.w3.org/2000/svg">
<path fill-rule="evenodd" clip-rule="evenodd" d="M58.1375 76.3848L58.1375 88.1498C58.1375 91.1033 55.7432 93.4975 52.7897 93.4975C49.8362 93.4975 47.442 91.1033 47.442 88.1498L47.442 76.3848L58.1375 76.3848Z" fill="#FEE28C"/>
<path fill-rule="evenodd" clip-rule="evenodd" d="M85.9458 76.3848L85.9458 88.1498C85.9458 91.1033 83.5515 93.4975 80.5981 93.4975C77.6446 93.4975 75.2503 91.1033 75.2503 88.1498L75.2503 76.3848L85.9458 76.3848Z" fill="#FEE28C"/>
<path fill-rule="evenodd" clip-rule="evenodd" d="M61.3463 104.995L61.3463 76.3848L72.0417 76.3848L72.0417 104.995C72.0417 107.949 69.6475 110.343 66.694 110.343C63.7405 110.343 61.3463 107.949 61.3463 104.995Z" fill="#FEE28C"/>
<path d="M34.6074 30.1283C34.6074 29.6853 34.9666 29.3262 35.4096 29.3262H98.1978C98.6409 29.3262 99 29.6853 99 30.1283V74.9934C99 75.8636 98.2946 76.569 97.4244 76.569H36.183C35.3128 76.569 34.6074 75.8636 34.6074 74.9934V30.1283Z" fill="#C5DBFC"/>
<mask id="mask0_1193_40883" style="mask-type:alpha" maskUnits="userSpaceOnUse" x="34" y="29" width="65" height="48">
<path d="M34.6074 30.1283C34.6074 29.6853 34.9666 29.3262 35.4096 29.3262H98.1978C98.6409 29.3262 99 29.6853 99 30.1283V74.9934C99 75.8636 98.2946 76.569 97.4244 76.569H36.183C35.3128 76.569 34.6074 75.8636 34.6074 74.9934V30.1283Z" fill="#6CA4F9"/>
</mask>
<g mask="url(#mask0_1193_40883)">
<path fill-rule="evenodd" clip-rule="evenodd" d="M65.912 60.9244C66.8637 61.863 68.3953 61.8548 69.3369 60.9061L100.34 29.664C101.003 28.9965 100.543 27.8604 99.603 27.8413L33.6447 26.5043C32.678 26.4847 32.1835 27.6561 32.8719 28.3351L65.912 60.9244ZM68.5777 60.1527C68.0514 60.6831 67.1951 60.6877 66.6631 60.1629L33.623 27.5737L99.5813 28.9107L68.5777 60.1527Z" fill="#031938"/>
<path fill-rule="evenodd" clip-rule="evenodd" d="M99.4899 78.2848L78.1305 50.5273L78.9781 49.875L100.338 77.6326L99.4899 78.2848Z" fill="#031938"/>
<path fill-rule="evenodd" clip-rule="evenodd" d="M34.1003 78.7539L56.4507 50.5332L55.6122 49.8691L33.2618 78.0899L34.1003 78.7539Z" fill="#031938"/>
</g>
<path fill-rule="evenodd" clip-rule="evenodd" d="M125.267 9.67709L116.678 17.8272L115.756 16.8562L124.344 8.70617C124.613 8.45155 125.037 8.46248 125.291 8.7306C125.546 8.99871 125.535 9.42247 125.267 9.67709Z" fill="black"/>
<path fill-rule="evenodd" clip-rule="evenodd" d="M113.14 1.31045L109.78 12.6592L108.495 12.2794L111.855 0.930651C111.96 0.576093 112.333 0.373686 112.688 0.478565C113.043 0.583443 113.245 0.95589 113.14 1.31045Z" fill="black"/>
<path fill-rule="evenodd" clip-rule="evenodd" d="M131.814 27.8961L119.973 27.5908L120.008 26.2523L131.848 26.5576C132.218 26.5671 132.51 26.8745 132.501 27.2441C132.491 27.6138 132.184 27.9057 131.814 27.8961Z" fill="black"/>
<ellipse cx="99.6667" cy="31.3327" rx="14.6667" ry="14.6667" fill="#F75252"/>
<path d="M99.5212 37.8301C98.0424 37.8301 96.8606 37.4119 95.9757 36.5756C95.103 35.7271 94.6666 34.4544 94.6666 32.7574V29.6665C94.6666 28.0059 95.103 26.7453 95.9757 25.8847C96.8606 25.0241 98.0424 24.5938 99.5212 24.5938C101.012 24.5938 102.194 25.0241 103.067 25.8847C103.951 26.7453 104.394 28.0059 104.394 29.6665V32.7574C104.394 34.4544 103.951 35.7271 103.067 36.5756C102.194 37.4119 101.012 37.8301 99.5212 37.8301ZM99.5212 36.121C100.527 36.121 101.273 35.8362 101.758 35.2665C102.242 34.6847 102.485 33.8725 102.485 32.8301V29.5574C102.485 28.515 102.224 27.715 101.703 27.1574C101.182 26.5877 100.455 26.3028 99.5212 26.3028C98.5757 26.3028 97.8484 26.5938 97.3394 27.1756C96.8303 27.7453 96.5757 28.5392 96.5757 29.5574V32.8301C96.5757 33.8968 96.8181 34.715 97.303 35.2847C97.8 35.8422 98.5394 36.121 99.5212 36.121Z" fill="white"/>
</svg>
