<svg width="80" height="80" viewBox="0 0 80 80" fill="none" xmlns="http://www.w3.org/2000/svg">
  <rect width="80" height="80" rx="6" fill="#FDEFC8" />
  <rect x="12.8799" y="41.2" width="26.4" height="26.4" rx="13.2" fill="#0C5E27" />
  <path
    d="M25.729 47.4399C28.0107 47.4399 31.4455 48.1899 33.0574 49.8871C33.4666 50.3212 33.9999 51.1632 33.9999 52.4131C33.9999 54.6234 32.3259 58.0046 30.4906 59.9781C29.5359 60.9912 28.0231 62.3199 25.9771 62.3199C23.9807 62.3199 22.4555 60.8727 22.0215 60.4123C20.3351 58.6098 19.1199 55.8864 19.1199 53.3341C19.1199 51.729 19.5539 50.3212 20.6451 49.1503C21.6619 48.0583 23.4103 47.4399 25.729 47.4399ZM28.5562 56.2416C29.3251 55.426 29.5359 54.4129 29.5359 53.8603C29.5359 53.4524 29.4367 52.8604 28.9654 52.3605C28.2339 51.5842 27.4402 51.3737 26.5599 51.3737C25.4563 51.3737 24.7123 51.7421 24.2163 52.2684C23.8319 52.6762 23.4971 53.3209 23.4971 54.2287C23.4971 55.1365 23.9435 56.0048 24.4395 56.5311C24.8983 57.0179 25.6051 57.3731 26.3367 57.3731C27.0682 57.3731 27.7875 57.0573 28.5562 56.2416Z"
    fill="#CEF8DD" />
  <rect x="41.6799" y="40.72" width="26.88" height="26.88" rx="13.44" fill="#146EF6" />
  <path fill-rule="evenodd" clip-rule="evenodd"
    d="M54.0704 49.2287C54.6587 48.6526 55.4776 48.2953 56.3834 48.2953C57.5874 48.2953 58.6379 48.9263 59.1974 49.8632C59.6835 49.659 60.2216 49.5454 60.7878 49.5454C62.9594 49.5454 64.72 51.2147 64.72 53.2737C64.72 55.333 62.9594 57.0022 60.7878 57.0022C60.5277 57.0024 60.2682 56.9781 60.0132 56.9297C59.5206 57.7556 58.5818 58.3137 57.5043 58.3137C57.0532 58.3137 56.6266 58.2157 56.2467 58.0416C55.7473 59.1457 54.5838 59.9199 53.2277 59.9199C51.8156 59.9199 50.612 59.0801 50.1501 57.9022C49.9482 57.9424 49.739 57.9635 49.5244 57.9635C47.8431 57.9635 46.48 56.6691 46.48 55.0721C46.48 54.002 47.0924 53.0676 48.0023 52.5677C47.815 52.1625 47.7108 51.7153 47.7108 51.2452C47.7108 49.4087 49.2971 47.9199 51.2536 47.9199C52.4023 47.9199 53.4231 48.4333 54.0704 49.2287Z"
    fill="white" />
  <rect x="41.6799" y="11.9199" width="26.4" height="26.88" rx="13.2" fill="#FF7D1F" />
  <path
    d="M57.4251 22.5735V20.6301C57.6702 20.5101 57.8778 20.3196 58.0236 20.0808C58.1694 19.842 58.2475 19.5647 58.2488 19.2812V19.2366C58.2488 18.4101 57.6091 17.74 56.8202 17.74H56.7776C55.9886 17.74 55.3491 18.4101 55.3491 19.2366V19.2812C55.3503 19.5647 55.4284 19.842 55.5742 20.0808C55.72 20.3196 55.9276 20.5101 56.1727 20.6301V22.5735C55.4682 22.6866 54.8046 22.9926 54.2492 23.4607L49.1616 19.3093C49.1979 19.1721 49.2168 19.031 49.219 18.8894C49.2196 18.5558 49.1258 18.2296 48.9494 17.9519C48.773 17.6743 48.522 17.4576 48.2281 17.3295C47.9342 17.2013 47.6105 17.1673 47.2982 17.2318C46.9858 17.2963 46.6987 17.4564 46.4733 17.6919C46.2478 17.9273 46.094 18.2276 46.0314 18.5546C45.9688 18.8816 46.0002 19.2208 46.1216 19.5291C46.243 19.8374 46.449 20.1011 46.7135 20.2868C46.9779 20.4725 47.289 20.5718 47.6074 20.5722C47.8859 20.5709 48.1592 20.493 48.4 20.3463L53.4099 24.4304C52.4888 25.888 52.5135 27.7878 53.4719 29.2188L51.9482 30.8155C51.825 30.7743 51.6967 30.7524 51.5674 30.7505C50.8377 30.7512 50.2465 31.3712 50.2467 32.1357C50.2469 32.9001 50.8384 33.5198 51.5681 33.52C52.2978 33.5201 52.8896 32.9008 52.8902 32.1363C52.8885 32.0009 52.8676 31.8664 52.8282 31.7374L54.3356 30.1577C55.6824 31.2439 57.5323 31.3375 58.9728 30.3923C60.4133 29.447 61.1403 27.6625 60.7951 25.9189C60.45 24.1752 59.1056 22.8408 57.4251 22.5735V22.5735ZM56.8003 28.9653C56.5218 28.9731 56.2446 28.9224 55.9851 28.8162C55.7257 28.71 55.4891 28.5504 55.2895 28.3468C55.0899 28.1432 54.9312 27.8998 54.8229 27.6309C54.7145 27.362 54.6587 27.0731 54.6587 26.7813C54.6587 26.4894 54.7145 26.2006 54.8229 25.9317C54.9312 25.6628 55.0899 25.4194 55.2895 25.2158C55.4891 25.0122 55.7257 24.8527 55.9851 24.7464C56.2446 24.6402 56.5218 24.5895 56.8003 24.5974C57.9225 24.6385 58.8121 25.6032 58.8127 26.7797C58.8132 27.9561 57.9245 28.9218 56.8023 28.9641"
    fill="white" />
  <path
    d="M35.5598 24.0398H27.6398V16.1198C27.6398 15.7697 27.5007 15.434 27.2531 15.1864C27.0056 14.9389 26.6699 14.7998 26.3198 14.7998C25.9697 14.7998 25.6339 14.9389 25.3864 15.1864C25.1388 15.434 24.9998 15.7697 24.9998 16.1198V24.0398H17.0798C16.7297 24.0398 16.3939 24.1789 16.1464 24.4264C15.8988 24.674 15.7598 25.0097 15.7598 25.3598C15.7598 25.7099 15.8988 26.0456 16.1464 26.2932C16.3939 26.5407 16.7297 26.6798 17.0798 26.6798H24.9998V34.5998C24.9998 34.9499 25.1388 35.2856 25.3864 35.5332C25.6339 35.7807 25.9697 35.9198 26.3198 35.9198C26.6699 35.9198 27.0056 35.7807 27.2531 35.5332C27.5007 35.2856 27.6398 34.9499 27.6398 34.5998V26.6798H35.5598C35.9099 26.6798 36.2456 26.5407 36.4931 26.2932C36.7407 26.0456 36.8798 25.7099 36.8798 25.3598C36.8798 25.0097 36.7407 24.674 36.4931 24.4264C36.2456 24.1789 35.9099 24.0398 35.5598 24.0398Z"
    fill="#FECF41" stroke="#FECF41" stroke-width="0.75" />
</svg>