<svg width="81" height="80" viewBox="0 0 81 80" fill="none" xmlns="http://www.w3.org/2000/svg">
  <rect x="0.666504" width="80" height="80" rx="6" fill="#FFE8E8" />
  <path fill-rule="evenodd" clip-rule="evenodd"
    d="M53.5157 24.9182H24.0216V20.4155H53.5157C59.11 20.4155 63.645 24.9506 63.645 30.5448C63.645 36.139 59.11 40.6741 53.5157 40.6741H27.8506C24.2439 40.6741 21.32 43.5979 21.32 47.2046C21.32 50.8113 24.2439 53.7352 27.8506 53.7352H48.0469V58.2378H27.8506C21.7571 58.2378 16.8174 53.2981 16.8174 47.2046C16.8174 41.1111 21.7571 36.1714 27.8506 36.1714H53.5157C56.6232 36.1714 59.1423 33.6523 59.1423 30.5448C59.1423 27.4373 56.6232 24.9182 53.5157 24.9182Z"
    fill="#F199AA" />
  <path
    d="M66.3466 55.3111C66.3466 62.3983 60.5005 68.1436 53.2889 68.1436C46.0773 68.1436 40.2312 62.3983 40.2312 55.3111C40.2312 48.2239 46.0773 42.4785 53.2889 42.4785C60.5005 42.4785 66.3466 48.2239 66.3466 55.3111Z"
    fill="#E75571" />
  <path
    d="M60.9564 50.7899C60.8625 50.6888 60.7509 50.6085 60.6279 50.5537C60.505 50.4989 60.373 50.4707 60.2398 50.4707C60.1066 50.4707 59.9747 50.4989 59.8517 50.5537C59.7287 50.6085 59.6171 50.6888 59.5233 50.7899L52.0046 58.841L48.8458 55.4522C48.7484 55.3516 48.6334 55.2725 48.5074 55.2194C48.3814 55.1663 48.2468 55.1402 48.1114 55.1427C47.976 55.1452 47.8424 55.1763 47.7181 55.234C47.5939 55.2917 47.4816 55.375 47.3875 55.4792C47.2934 55.5834 47.2194 55.7064 47.1697 55.8411C47.1201 55.9758 47.0957 56.1197 47.0981 56.2645C47.1004 56.4094 47.1294 56.5523 47.1834 56.6851C47.2374 56.8179 47.3153 56.9381 47.4127 57.0387L51.2881 61.183C51.3819 61.2841 51.4935 61.3644 51.6165 61.4192C51.7395 61.474 51.8714 61.5022 52.0046 61.5022C52.1379 61.5022 52.2698 61.474 52.3927 61.4192C52.5157 61.3644 52.6273 61.2841 52.7212 61.183L60.9564 52.3764C61.0588 52.2754 61.1406 52.1527 61.1965 52.0162C61.2524 51.8796 61.2813 51.7322 61.2813 51.5832C61.2813 51.4341 61.2524 51.2867 61.1965 51.1502C61.1406 51.0137 61.0588 50.891 60.9564 50.7899Z"
    fill="white" />
  <path
    d="M36.1788 21.3161C36.1788 27.0356 31.5422 31.6722 25.8227 31.6722C20.1031 31.6722 15.4666 27.0356 15.4666 21.3161C15.4666 15.5965 20.1031 10.96 25.8227 10.96C31.5422 10.96 36.1788 15.5965 36.1788 21.3161Z"
    fill="#6A1F2D" />
  <path
    d="M24.8355 16.8617C25.0243 16.3697 25.7205 16.3697 25.9093 16.8617L26.9803 19.6526C27.0404 19.8092 27.1659 19.9318 27.3239 19.9882L30.1581 20.9995C30.6672 21.1812 30.6672 21.9011 30.1581 22.0828L27.3239 23.0941C27.1659 23.1505 27.0404 23.273 26.9803 23.4297L25.9093 26.2206C25.7205 26.7126 25.0243 26.7126 24.8355 26.2206L23.7645 23.4297C23.7044 23.273 23.5789 23.1505 23.4209 23.0941L20.5867 22.0828C20.0776 21.9011 20.0776 21.1812 20.5867 20.9995L23.4209 19.9882C23.5789 19.9318 23.7044 19.8092 23.7645 19.6526L24.8355 16.8617Z"
    fill="white" />
</svg>