<svg width="81" height="80" viewBox="0 0 81 80" fill="none" xmlns="http://www.w3.org/2000/svg">
  <rect x="0.333252" width="80" height="80" rx="6" fill="#E9F2FF" />
  <rect x="43.958" y="47.0332" width="4.09211" height="24.5336" rx="2.04606" transform="rotate(-45 43.958 47.0332)"
    fill="#6CA4F9" />
  <rect x="43.958" y="47.0332" width="4.09211" height="24.5336" rx="2.04606" transform="rotate(-45 43.958 47.0332)"
    fill="#6CA4F9" />
  <rect x="52.4148" y="57.3223" width="6.9472" height="16.3567" rx="3.4736" transform="rotate(-45 52.4148 57.3223)"
    fill="#146EF6" />
  <path fill-rule="evenodd" clip-rule="evenodd"
    d="M47.653 46.8397C55.7512 38.7415 55.7512 25.6118 47.653 17.5136C39.5548 9.41539 26.425 9.41539 18.3268 17.5136C10.2286 25.6118 10.2286 38.7415 18.3268 46.8397C26.425 54.9379 39.5548 54.9379 47.653 46.8397ZM44.5665 43.7532C50.96 37.3596 50.96 26.9937 44.5665 20.6001C38.173 14.2066 27.807 14.2066 21.4135 20.6001C15.0199 26.9937 15.0199 37.3596 21.4135 43.7532C27.807 50.1467 38.173 50.1467 44.5665 43.7532Z"
    fill="#6CA4F9" />
  <path
    d="M36.4581 32.322C37.4039 31.5819 38.0943 30.5671 38.4331 29.4186C38.772 28.2702 38.7425 27.0453 38.3488 25.9143C37.955 24.7833 37.2166 23.8025 36.2363 23.1083C35.2559 22.4141 34.0824 22.041 32.8789 22.041C31.6754 22.041 30.5019 22.4141 29.5215 23.1083C28.5412 23.8025 27.8028 24.7833 27.409 25.9143C27.0153 27.0453 26.9858 28.2702 27.3247 29.4186C27.6635 30.5671 28.3539 31.5819 29.2997 32.322C27.679 32.9677 26.2649 34.0387 25.2081 35.4209C24.1514 36.803 23.4916 38.4445 23.299 40.1702C23.2851 40.2962 23.2963 40.4237 23.3319 40.5454C23.3675 40.6671 23.4268 40.7807 23.5066 40.8796C23.6676 41.0793 23.9018 41.2072 24.1577 41.2352C24.4135 41.2632 24.6701 41.189 24.8709 41.0288C25.0717 40.8687 25.2004 40.6358 25.2285 40.3813C25.4404 38.5058 26.3396 36.7736 27.7544 35.5158C29.1692 34.2579 31.0005 33.5626 32.8982 33.5626C34.7959 33.5626 36.6272 34.2579 38.042 35.5158C39.4568 36.7736 40.356 38.5058 40.5679 40.3813C40.5941 40.6171 40.7072 40.8348 40.8854 40.9925C41.0635 41.1502 41.2941 41.2367 41.5326 41.2352H41.6387C41.8916 41.2063 42.1228 41.0791 42.2818 40.8814C42.4408 40.6837 42.5148 40.4316 42.4877 40.1798C42.2943 38.4492 41.6309 36.8035 40.5687 35.4193C39.5065 34.035 38.0855 32.9643 36.4581 32.322ZM32.8789 31.6408C32.1157 31.6408 31.3696 31.4157 30.735 30.994C30.1004 30.5723 29.6058 29.9729 29.3137 29.2716C29.0216 28.5704 28.9452 27.7987 29.0941 27.0543C29.243 26.3098 29.6105 25.626 30.1502 25.0892C30.6899 24.5525 31.3775 24.187 32.1261 24.0389C32.8746 23.8908 33.6505 23.9668 34.3557 24.2573C35.0608 24.5478 35.6635 25.0397 36.0875 25.6708C36.5115 26.3019 36.7379 27.0439 36.7379 27.803C36.7379 28.8208 36.3313 29.797 35.6076 30.5167C34.8839 31.2364 33.9024 31.6408 32.8789 31.6408Z"
    fill="#146EF6" />
</svg>